SplineFontDB: 3.2
FontName: SerpentRegular
FullName: Serpent Regular
FamilyName: Serpent
Weight: Regular
Copyright: Copyright 2022, Beverly Pearl
Version: Version 0.001
ItalicAngle: 0
UnderlinePosition: 0
UnderlineWidth: 0
Ascent: 700
Descent: 300
InvalidEm: 0
sfntRevision: 0x00010000
LayerCount: 2
Layer: 0 0 "Back" 1
Layer: 1 0 "Fore" 0
XUID: [1021 796 -666264523 4545719]
StyleMap: 0x0040
FSType: 0
OS2Version: 3
OS2_WeightWidthSlopeOnly: 0
OS2_UseTypoMetrics: 0
CreationTime: 1652040951
ModificationTime: 1653744318
PfmFamily: 81
TTFWeight: 500
TTFWidth: 5
LineGap: 0
VLineGap: 0
Panose: 0 0 0 0 0 0 0 0 0 0
OS2TypoAscent: 700
OS2TypoAOffset: 0
OS2TypoDescent: -300
OS2TypoDOffset: 0
OS2TypoLinegap: 0
OS2WinAscent: 1226
OS2WinAOffset: 0
OS2WinDescent: 407
OS2WinDOffset: 0
HheadAscent: 700
HheadAOffset: 0
HheadDescent: -300
HheadDOffset: 0
OS2SubXSize: 650
OS2SubYSize: 699
OS2SubXOff: 0
OS2SubYOff: 140
OS2SupXSize: 650
OS2SupYSize: 699
OS2SupXOff: 0
OS2SupYOff: 479
OS2StrikeYSize: 49
OS2StrikeYPos: 258
OS2CapHeight: 677
OS2XHeight: 408
OS2Vendor: 'XXXX'
OS2CodePages: 00000001.00000000
OS2UnicodeRanges: 80000007.50000000.00000000.00000000
Lookup: 4 0 1 "'liga' Standard Ligatures lookup 0" { "'liga' Standard Ligatures lookup 0 subtable"  } ['liga' ('DFLT' <'dflt' > ) ]
MarkAttachClasses: 1
DEI: 91125

StartChar: .notdef
Encoding: 0 0 0
Width: 457
GlyphClass: 1
Flags: W
LayerCount: 2
Fore
SplineSet
20 675 m 1
 437 675 l 1
 437 0 l 1
 20 0 l 1
 20 675 l 1
68 48 m 1
 388 48 l 1
 388 627 l 1
 68 627 l 1
 68 48 l 1
EndSplineSet
Validated: 1
EndChar

StartChar: exclam
Encoding: 2 33 2
Width: 289
GlyphClass: 1
Flags: HW
HStem: 76 25<186.244 221.181> 168 55<191.554 209.841>
VStem: 208.846 10<50.4486 73.5514> 209.846 21<224.212 258.368>
LayerCount: 2
Fore
SplineSet
229 140 m 1xd0
 227 141 225 144 225 145 c 1
 225 144 218 140 218 140 c 1
 217 140 l 1
 224 146 l 2
 223 148 223 151 226 154 c 0
 227 155 227 155 227 155 c 0
 230 158 234 161 231 168 c 1
 199 172.666666667 163.888888889 208 163.888888889 249.111111111 c 0
 163.888888889 269.666666667 172.666666667 291.666666667 195 312 c 1
 202.381039035 369.70630518 205.259620447 421.221731129 205.259620447 467.83027299 c 0
 205.259620447 560.143624935 193.967473385 633.208170333 184 697 c 1
 246.80370002 625.41728815 273.124063365 532.400616003 273.124063365 440.739681327 c 0
 273.124063365 396.668693805 267.03950752 352.911116102 256 312 c 1
 256.455073757 312.045507376 256.908536798 312.068004515 257.36006451 312.068004515 c 0
 271.721964079 312.068004515 284.125877358 289.307480543 284.125877358 260.297736547 c 0
 284.125877358 230.094415887 270.680273378 193.117060635 232 168 c 1
 237 160 228 151 226 150 c 0
 224 150 225 145 232 139 c 0
 236 135 229 140 229 140 c 1xd0
195 261 m 0
 187 261 180 252 180 242 c 0
 180 232 187 223 195 223 c 0
 203 223 210 232 210 242 c 0
 210 252 203 261 195 261 c 0
245 259 m 0
 237 259 231 250 231 239 c 0
 231 228 237 219 245 219 c 0
 253 219 259 228 259 239 c 0
 259 250 253 259 245 259 c 0
233 95 m 1
 233 95 l 1
 250.5485254 85.8747667919 260.706232951 68.3732733544 260.706232951 50.4503275795 c 0
 260.706232951 42.8398661791 258.874766792 35.1534156157 255 28 c 0
 245.714285714 10.1428571429 227.244897959 -0.0612244897959 207.973760933 -0.0612244897959 c 0
 200.265306122 -0.0612244897959 192.428571429 1.57142857143 185 5 c 0
 166.376273103 14.3118634487 155.961852798 31.8330334904 155.961852798 50.2131310863 c 0
 155.961852798 57.4929102769 157.59556626 64.9074297091 161 72 c 0
 170 90 189 101 210 101 c 0
 217 100 226 98 233 95 c 1
197 76 m 0
 191 76 186 70 186 63 c 0
 186 56 191 50 197 50 c 0
 204 50 209 56 209 63 c 0
 209 70 204 76 197 76 c 0
231 74 m 0xd0
 224 74 219 68 219 61 c 0xe0
 219 54 224 48 231 48 c 0xd0
 238 48 244 54 244 61 c 0
 244 68 238 74 231 74 c 0xd0
EndSplineSet
Validated: 524289
EndChar

StartChar: quotedbl
Encoding: 3 34 3
Width: 415
GlyphClass: 1
Flags: W
LayerCount: 2
Fore
SplineSet
76 702 m 0
 47 702 21 686 9 661 c 0
 -10 625 69 555 66 505 c 0
 64 469 126 561 145 597 c 0
 163 633 149 676 112 694 c 1
 102 677 l 1
 103 677 103 677 103 677 c 2
 112 677 120 669 120 658 c 0
 120 648 112 639 103 639 c 0
 97 639 91 644 88 650 c 1
 77 630 l 1
 77 630 88 649 88 651 c 0
 87 653 86 656 86 658 c 0
 86 668 92 676 100 677 c 1
 100 677 120 690 110 695 c 0
 99 700 87 703 76 702 c 0
318 701 m 0
 289 700 264 685 251 660 c 0
 233 624 306 553 302 512 c 0
 300 482 368 560 387 595 c 0
 406 631 391 675 354 693 c 1
 354 693 337 665 340 667 c 0
 343 669 347 670 350 670 c 0
 361 670 369 662 369 652 c 0
 369 642 361 634 350 634 c 0
 340 634 332 641 331 650 c 1
 319 628 l 1
 319 628 331 647 331 652 c 0
 331 657 334 662 338 665 c 2
 338 665 363 689 352 694 c 0
 341 699 330 701 318 701 c 0
51 669 m 0
 60 669 68 661 68 651 c 0
 68 641 60 633 51 633 c 0
 42 633 34 641 34 651 c 0
 34 661 42 669 51 669 c 0
298 672 m 0
 307 672 315 664 315 654 c 0
 315 644 307 636 298 636 c 0
 288 636 280 644 280 654 c 0
 280 664 288 672 298 672 c 0
EndSplineSet
Validated: 37
EndChar

StartChar: numbersign
Encoding: 4 35 4
Width: 664
GlyphClass: 1
Flags: W
HStem: 293 9<586.844 626.117> 346 59<392 480.548> 352 63<179 265.594> 354 53<179.36 267> 427 21G<604.5 617.5> 442 9<591.534 631.117>
VStem: 231 11<36.7344 76.0332> 237 2<-22.75 -17.1688> 441 10<35.2226 71.4504> 446 2<-25.0067 -20>
LayerCount: 2
Fore
SplineSet
443 -35 m 1x8040
 443 -35 448 -26 449 -28 c 0
 450 -29 452 -31 454 -32 c 2
 454 -32 461 -36 455 -32 c 0
 449 -27 446 -22 448 -20 c 0
 450 -20 455 -10 452 -3 c 1
 481 12 510 75 462 133 c 1
 469 168 480 242 483 272 c 1
 458 268 419 264 394 263 c 1
 399 232 415 159 425 126 c 1
 401 95 398 8 450 -3 c 1
 453 -10 451 -15 446 -20 c 0
 445 -22 447 -25 448 -27 c 2
 442 -35 l 1
 443 -35 l 1x8040
234 -33 m 1
 234 -33 239 -24 240 -25 c 0
 241 -27 242 -28 245 -30 c 2
 245 -30 252 -33 246 -29 c 0
 240 -25 237 -20 239 -18 c 0x81
 241 -17 246 -7 242 0 c 1x82
 271 15 301 78 253 136 c 1
 259 167 270 237 273 264 c 1
 247 265 209 272 185 275 c 1
 190 242 205 163 216 129 c 1
 192 98 189 10 241 0 c 1
 244 -8 242 -12 237 -18 c 0
 236 -19 238 -23 239 -25 c 2x81
 233 -33 l 1
 234 -33 l 1
431 28 m 0
 426 28 421 38 421 52 c 0
 421 65 426 75 431 75 c 0
 436 75 441 65 441 52 c 0x8080
 441 38 436 28 431 28 c 0
222 30 m 0
 216 30 212 41 212 54 c 0
 212 67 216 78 222 78 c 0
 227 78 231 67 231 54 c 0x82
 231 41 227 30 222 30 c 0
460 33 m 0
 455 33 451 42 451 54 c 0x8080
 451 66 455 75 460 75 c 0
 465 75 468 66 468 54 c 0
 468 42 465 33 460 33 c 0
251 35 m 0
 246 35 242 45 242 56 c 0x82
 242 68 246 78 251 78 c 0
 255 78 259 68 259 56 c 0
 259 45 255 35 251 35 c 0
352 266 m 1
 410 266 470 272 532 284 c 1
 561 264 648 258 662 299 c 1
 669 301 674 299 679 295 c 0
 680 294 684 295 686 296 c 2
 693 291 l 1
 694 292 l 1
 694 292 685 296 687 297 c 0
 688 297 690 299 691 300 c 2
 691 301 l 1
 686 297 681 295 679 296 c 0
 678 298 669 302 662 300 c 1
 648 323 587 349 527 314 c 1
 257 368 138 320 -8 326 c 1
 106 290 224 265 352 266 c 1
606 278 m 0
 593 279 583 283 583 287 c 0
 583 291 594 294 607 293 c 0
 620 293 630 289 630 285 c 0
 630 281 619 278 606 278 c 0
605 302 m 0
 593 302 584 306 585 310 c 0
 585 313 594 316 606 315 c 0
 618 315 627 312 627 308 c 0
 626 304 617 301 605 302 c 0
483 333 m 1
 484 362 483 389 482 414 c 1
 451 409 421 406 391 405 c 1
 391 385 391 366 392 346 c 1xc0
 420 343 450 339 483 333 c 1
179 352 m 1xa0
 200 353 223 354 247 354 c 0
 253 354 260 354 267 354 c 1
 268 372 267 390 267 407 c 1x90
 237 408 207 411 178 415 c 1
 178 394 178 373 179 352 c 1xa0
357 415 m 1xa8
 415 415 474 421 537 433 c 1
 566 413 653 407 667 448 c 1
 674 450 679 448 684 444 c 0
 685 443 689 445 691 445 c 2
 698 440 l 1
 698 441 l 1
 691 446 l 1
 693 447 694 448 696 450 c 1
 691 446 686 444 684 445 c 0
 683 447 674 451 667 449 c 1
 653 472 592 498 532 463 c 1
 262 517 143 469 -3 475 c 1
 111 439 229 414 357 415 c 1xa8
611 427 m 0
 598 428 588 432 588 436 c 0
 588 440 599 443 612 442 c 0x84
 625 442 635 438 635 434 c 0
 635 430 624 427 611 427 c 0
610 451 m 0
 598 451 589 455 589 459 c 0
 590 462 599 465 611 465 c 0
 623 464 632 461 632 457 c 0
 631 453 622 451 610 451 c 0
476 482 m 1
 466 564 441 639 441 712 c 1x8080
 418 643 408 565 398 493 c 1
 423 491 449 487 476 482 c 1
189 497 m 1
 209 498 229 499 250 499 c 0
 255 499 260 499 265 498 c 1
 255 574 232 635 231 704 c 1x82
 209 636 199 568 189 497 c 1
EndSplineSet
Validated: 41
EndChar

StartChar: dollar
Encoding: 5 36 5
Width: 578
GlyphClass: 1
Flags: W
HStem: 634 69<314 341 397 448.249>
VStem: 286 6<13.923 40.6308> 309 7<-105.513 -63.4609> 314 28<634 703> 340 34<1 43.4778 44.6715 106> 341 72<413 487.076> 401 7<-112.068 -83.1703>
LayerCount: 2
Fore
SplineSet
400 -204 m 1xc4
 400 -204 403 -190 404 -193 c 0
 405 -195 406 -197 408 -200 c 1xc2
 408 -200 413 -205 409 -199 c 0
 404 -192 402 -184 403 -181 c 0
 405 -180 409 -165 406 -154 c 1
 429 -131 451 -37 413 52 c 1
 433 467 371 851 341 849 c 1
 355 413 321 340 385 43 c 1
 367 -4 365 -138 405 -155 c 1
 408 -166 406 -173 402 -181 c 0
 401 -183 403 -189 404 -192 c 2
 399 -204 l 1
 400 -204 l 1xc4
311 -200 m 1
 311 -200 315 -187 315 -189 c 0
 316 -191 317 -193 319 -196 c 1
 319 -196 324 -201 320 -195 c 0
 315 -189 313 -181 315 -178 c 0
 316 -177 320 -163 317 -152 c 1
 338 -129 360 -35 325 51 c 1
 364 459 292 637 291 855 c 1
 250 619 254 333 298 41 c 1
 281 -6 279 -136 316 -152 c 1xe0
 319 -163 317 -170 314 -178 c 0xd0
 313 -180 314 -185 315 -188 c 2
 311 -200 l 1
395 -118 m 0
 391 -118 389 -110 389 -100 c 0
 389 -90 391 -81 395 -81 c 0
 398 -81 401 -90 401 -100 c 0xc2
 401 -110 398 -118 395 -118 c 0
414 -114 m 0
 411 -114 408 -106 408 -97 c 0
 408 -87 411 -79 414 -79 c 0
 417 -79 420 -87 420 -97 c 0
 420 -106 417 -114 414 -114 c 0
304 -108 m 0
 302 -108 299 -98 299 -84 c 0
 299 -71 302 -61 304 -61 c 0
 307 -61 309 -71 309 -84 c 0xe0
 309 -98 307 -108 304 -108 c 0
322 -108 m 0
 319 -108 316 -98 316 -84 c 0
 316 -71 319 -61 322 -61 c 0
 325 -61 328 -71 328 -84 c 0
 328 -98 325 -108 322 -108 c 0
357 0 m 0
 365 -1 366 1 374 1 c 1
 372 13 380 33 380 44 c 0
 379 58 369 93 368 107 c 1
 358 106 348 104 335 106 c 1
 333 97 329 69 330 53 c 0
 331 39 342 9 340 1 c 1xc8
 346 -1 349 0 357 0 c 0
433 6 m 0
 597 32 633.203125 199.3125 471 292 c 0
 464 296 429 327 422 332 c 1
 431 276 427 237 423 175 c 1
 453 152 438 120 423 110 c 1
 423 77 421.001953125 90 417 54 c 0
 416.752929688 51.77734375 432 8 433 6 c 0
286 13 m 0
 288 33 292 33 292 41 c 0
 292 60 287 94 283 109 c 1
 267 115 234 115 215 125 c 1
 197 200 116 224 1 178 c 0
 -6 178 -9 181 -12 186 c 0
 -13 188 -18 187 -20 186 c 2
 -26 194 l 1
 -26 194 -19 187 -21 186 c 0
 -23 186 -25 184 -28 183 c 2
 -28 183 -34 177 -28 182 c 0
 -21 186 -14 187 -13 185 c 0
 -13 183 -7 177 0 176 c 1
 23 108 69 31 162 67 c 1
 207 45 283 -17 286 13 c 0
93 106 m 0
 86 105 79 107 71 110 c 0
 58 115 49 124 53 129 c 0
 56 134 70 134 84 128 c 0
 97 123 106 114 102 109 c 0
 101 107 98 106 93 106 c 0
102 149 m 0
 96 149 90 150 84 151 c 0
 69 156 62 164 67 170 c 0
 72 176 88 178 103 173 c 0
 117 169 125 160 119 154 c 0
 116 151 110 149 102 149 c 0
263 268 m 1
 261 333 253 352 257 415 c 1
 44 513 184 641 259 630 c 1
 262 661 256 664 262 703 c 1
 -20.1337890625 694 -79 439 263 268 c 1
552 590 m 1
 500 633 475 688 394 698 c 1
 394 680 397 647 397 628 c 1
 465 629 480 630 552 590 c 1
341 704 m 1xe4
 342 632 l 1
 314 634 l 1xd0
 309 703 l 1
 341 704 l 1xe4
EndSplineSet
Validated: 37
EndChar

StartChar: percent
Encoding: 6 37 6
Width: 479
GlyphClass: 1
Flags: W
HStem: 146 45<50.1401 91.7404> 450 47<369.005 402.348>
VStem: 86 10<190 209> 360 9<510.603 530.467>
LayerCount: 2
Fore
SplineSet
112 171 m 0
 108 171 104 173 101 176 c 0
 94 189 84 202 84 202 c 1
 82 195 75 191 68 191 c 0
 58 191 50 199 50 209 c 0
 50 220 58 228 68 228 c 0
 78 228 86 220 86 209 c 0
 86 207 85 204 84 202 c 0
 83 199 109 152 109 152 c 1
 139 166 152 201 137 229 c 0
 122 258 86 269 57 255 c 0
 27 241 15 207 30 179 c 0
 39 159 60 147 82 146 c 0
 92 146 101 148 109 152 c 0
 113 154 108 165 101 176 c 0
 98 180 96 184 96 190 c 0
 96 200 103 209 112 209 c 0
 120 209 127 200 127 190 c 0
 127 179 120 171 112 171 c 0
425 24 m 0
 424 24 424 24 423 24 c 0
 418 25 411 31 405 40 c 0
 402 44 402 45 400 48 c 0
 396 58 395 65 399 67 c 0
 401 69 405 68 409 66 c 0
 414 60 416 60 422 52 c 0
 430 40 432 27 428 24 c 0
 427 24 426 24 425 24 c 0
457 38 m 2
 456 38 l 2
 449 39 441 47 435 56 c 0
 426 70 423 83 429 87 c 0
 434 91 446 83 454 69 c 0
 463 56 466 42 461 39 c 0
 460 38 459 38 457 38 c 2
386 497 m 0
 376 497 369 506 369 517 c 0
 369 528 376 537 386 537 c 0
 395 537 403 528 403 517 c 0
 403 506 395 497 386 497 c 0
346 505 m 0
 337 505 331 514 331 525 c 0
 331 535 337 544 346 544 c 0
 354 544 360 535 360 525 c 0
 360 514 354 505 346 505 c 0
472 -32 m 0
 469 -41 474 -32 474 -32 c 2
 475 -29 476 -26 476 -24 c 0
 476 -22 487 -28 487 -28 c 1
 487 -27 l 1
 476 -23 l 2
 476 -21 476 -16 473 -15 c 0
 465 -13 460 -9 458 0 c 1
 503 46 442 132 397 148 c 1
 327 387 166 563 -5 697 c 1
 92 548 116 371 355 130 c 1
 344 39 417 -5 456 -1 c 1
 458 -10 469 -17 472 -16 c 0
 475 -17 476 -24 472 -32 c 0
376 450 m 1
 385 450 393 452 401 455 c 0
 430 470 444 505 429 533 c 0
 414 561 378 572 349 559 c 0
 319 545 307 510 321 482 c 0
 331 463 352 450 374 450 c 0
 375 450 375 450 376 450 c 1
EndSplineSet
Validated: 37
EndChar

StartChar: ampersand
Encoding: 7 38 7
Width: 616
GlyphClass: 1
Flags: W
HStem: 69 23<445.107 488.354> 191 1<562.741 567.709>
VStem: 543 8<630 676.566>
LayerCount: 2
Fore
SplineSet
543 685 m 1
 531 630 545 639 508 598 c 1
 522 586 538 576 551 563 c 1
 566 640 549 637 543 685 c 1
262 670 m 0
 64 666 -52 499 365 262 c 1
 370 236 381 219 396 208 c 0
 431 182 487 190 538 202 c 1
 542 193 561 190 566 191 c 0
 570 191 572 184 567 174 c 1
 570 175 l 2
 572 178 572 181 572 183 c 1
 591 182 l 1
 592 183 l 1
 572 184 l 2
 572 187 571 192 568 192 c 0
 555 193 545 195 541 203 c 1
 542 203 l 1
 544 250 539 293 413 318 c 1
 43 552 312 792 614 482 c 1
 531 616 382 672 262 670 c 0
492 578 m 1
 430 497 394 493 278 440 c 1
 300 413 321 389 348 371 c 1
 455 436 498 430 538 542 c 1
 530 554 508 566 492 578 c 1
164 397 m 1
 -39 336 -142 -14 355 15 c 1
 544 -31 520 39 579 94 c 1
 588 92 598 98 598 100 c 0
 601 103 609 99 616 90 c 1
 616 92 l 2
 614 95 611 97 609 99 c 1
 618 107 l 1
 618 108 l 1
 608 99 l 2
 605 101 600 104 598 102 c 0
 592 97 585 92 576 95 c 0
 514 138 450 177 348 112 c 1
 176 85 -6 230 255 321 c 1
 221 351 192 367 164 397 c 1
471 279 m 0
 477 279 483 277 489 273 c 0
 500 266 506 254 501 247 c 0
 496 239 483 239 471 246 c 0
 459 253 454 265 459 273 c 0
 461 276 465 278 471 279 c 0
464 121 m 0
 478 121 489 115 489 107 c 0
 489 98 478 92 464 92 c 0
 450 92 439 98 439 107 c 0
 439 115 450 121 464 121 c 0
469 69 m 0
 483 69 494 62 494 53 c 0
 494 45 483 38 469 38 c 0
 455 38 444 45 444 53 c 0
 444 62 455 69 469 69 c 0
EndSplineSet
Validated: 41
EndChar

StartChar: quotesingle
Encoding: 8 39 8
Width: 197
GlyphClass: 1
Flags: W
LayerCount: 2
Fore
SplineSet
99 693 m 0
 70 692 44 676 31 652 c 0
 13 615 59 512 96 494 c 0
 134 476 150 550 169 586 c 0
 188 622 173 666 135 685 c 1
 100 619 l 1
 135 685 l 1
 124 690 111 693 99 693 c 0
82 660 m 0
 90 660 97 650 97 639 c 0
 97 628 90 619 82 619 c 0
 73 619 66 628 66 639 c 0
 66 650 73 660 82 660 c 0
135 657 m 0
 145 657 152 647 152 635 c 0
 152 622 145 613 135 613 c 0
 126 613 119 622 119 635 c 0
 119 647 126 657 135 657 c 0
EndSplineSet
Validated: 37
EndChar

StartChar: parenleft
Encoding: 9 40 9
Width: 379
GlyphClass: 1
Flags: W
HStem: 50 23<298.688 333.264>
LayerCount: 2
Fore
SplineSet
329 677 m 1
 371 692 l 1
 -121 770 -87 -27 260 14 c 5
 379 -12 340.845791451 21.2715444155 381 91 c 1
 385 89 390 95 390 97 c 1
 392 99 395 95 399 88 c 0
 402 80 399 89 399 89 c 2
 398 92 397 94 396 96 c 0
 395 97 400 103 400 103 c 1
 400 104 l 1
 395 96 l 1
 394 98 391 100 390 99 c 0
 387 94 384 91 380 93 c 0
 318 175 264 130 237 103 c 1
 68 134 -46 530 329 677 c 1
303 19 m 0
 300 21 297 25 297 29 c 0
 295 38 304 48 315 50 c 0
 327 53 338 47 340 38 c 0
 341 29 333 19 321 16 c 0
 315 15 308 16 303 19 c 0
302 77 m 0
 295 81 291 87 289 94 c 0
 286 106 294 116 307 117 c 0
 319 118 332 109 335 97 c 0
 337 85 329 74 317 73 c 0
 312 73 306 74 302 77 c 0
EndSplineSet
Validated: 41
EndChar

StartChar: parenright
Encoding: 10 41 10
Width: 419
GlyphClass: 1
Flags: W
HStem: 675 19<45.3158 93.2198>
LayerCount: 2
Fore
SplineSet
3 675 m 5
 70 694 l 1
 575.026367188 726.629882812 458.9765625 -18.3818359375 148 22 c 1
 46 -17 46 7 9 76 c 1
 4 74 -1 80 -1 82 c 1
 -2 84 -6 81 -9 73 c 0
 -13 65 -10 74 -10 74 c 2
 -8 77 -7 79 -6 81 c 0
 -5 82 -11 88 -11 88 c 1
 -11 89 l 1
 -6 81 l 1
 -4 83 -2 86 -1 84 c 0
 2 79 5 76 9 78 c 0
 70 161 107 143 150 88 c 1
 309.235351562 32 488 692 3 675 c 5
88 8 m 0
 91 11 94 14 94 18 c 0
 96 28 87 38 76 40 c 0
 64 43 53 37 51 28 c 0
 50 18 58 8 70 6 c 0
 77 4 83 5 88 8 c 0
91 72 m 0
 97 76 102 82 103 89 c 0
 106 101 98 112 86 113 c 0
 73 114 61 105 58 92 c 0
 56 80 63 69 76 68 c 0
 81 68 86 69 91 72 c 0
EndSplineSet
Validated: 37
EndChar

StartChar: asterisk
Encoding: 11 42 11
Width: 258
GlyphClass: 1
Flags: W
LayerCount: 2
Fore
SplineSet
147 697 m 0
 104 698 111 653 111 653 c 1
 111 653 68 687 43 648 c 0
 20 610 76 592 76 592 c 1
 39 592 48 541 62 533 c 0
 104 511 126 547 126 547 c 1
 126 547 144 495 182 518 c 0
 220 540 187 578 187 578 c 1
 187 578 238 564 238 615 c 0
 238 666 178 647 178 647 c 1
 163 647 199 698 147 697 c 0
167 632 m 0
 174 632 180 624 180 614 c 0
 180 604 174 595 167 595 c 0
 161 595 155 604 155 614 c 0
 155 624 161 632 167 632 c 0
125 629 m 0
 132 629 139 619 139 607 c 0
 139 595 132 585 125 585 c 0
 117 585 111 595 111 607 c 0
 111 619 117 629 125 629 c 0
EndSplineSet
Validated: 41
EndChar

StartChar: plus
Encoding: 12 43 12
Width: 501
GlyphClass: 1
Flags: W
HStem: 2 23<295.393 310.151 317.156 317.197> 342 13<463.442 486.605> 370 7<465.368 484.353> 373 20G<471.653 478.153>
VStem: 265.153 61<152.745 325.827> 310.153 7<27.2122 45.1993>
LayerCount: 2
Fore
SplineSet
310.153320312 -21 m 1xc4
 310.153320312 -21 314.153320312 -15 315.153320312 -16 c 0
 316.153320312 -17 317.153320312 -18 319.153320312 -19 c 2
 319.153320312 -19 325.153320312 -22 320.153320312 -19 c 0
 315.153320312 -16 313.153320312 -12 314.153320312 -11 c 0
 316.153320312 -10 320.153320312 -3 317.153320312 2 c 1xc4
 341.153320312 13 365.153320312 58 326.153320312 99 c 1
 321.153320312 144 334.153320312 303 332.153320312 339 c 1
 320.153320312 338 277.153320312 340 265.153320312 340 c 1xc8
 267.153320312 299 288.153320312 136 295.153320312 94 c 1
 276.153320312 72 273.153320312 9 316.153320312 2 c 1
 319.153320312 -3 316.153320312 -7 313.153320312 -10 c 0
 312.153320312 -11 314.153320312 -14 315.153320312 -15 c 1
 309.153320312 -21 l 1
 310.153320312 -21 l 1xc4
303.153320312 23 m 0
 299.153320312 23 295.153320312 28 295.153320312 35 c 0
 295.153320312 41 299.153320312 47 303.153320312 47 c 0
 307.153320312 47 310.153320312 41 310.153320312 35 c 0
 310.153320312 28 307.153320312 23 303.153320312 23 c 0
325.153320312 25 m 0
 321.153320312 25 317.153320312 30 317.153320312 36 c 0
 317.153320312 43 321.153320312 48 325.153320312 48 c 0
 329.153320312 48 332.153320312 43 332.153320312 36 c 0
 332.153320312 30 329.153320312 25 325.153320312 25 c 0
459.153320312 342 m 1
 481.153320312 342 503.153320312 351 508.153320312 375 c 1
 514.153320312 377 517.153320312 375 521.153320312 371 c 0
 522.153320312 370 524.153320312 372 525.153320312 373 c 2
 531.153320312 368 l 1
 526.153320312 373 l 1xd0
 527.153320312 374 528.153320312 376 529.153320312 377 c 2xe0
 529.153320312 378 l 1
 526.153320312 373 522.153320312 371 521.153320312 373 c 0xd0
 520.153320312 374 513.153320312 379 508.153320312 376 c 1
 498.153320312 400 454.153320312 426 412.153320312 388 c 5
 223.153320312 392 147.153320312 379 42.1533203125 386 c 1
 162.153320312 340 283.153320312 339 416.153320312 357 c 1
 425.153320312 348 442.153320312 342 460.153320312 342 c 1
 459.153320312 342 l 1
475.153320312 355 m 0
 468.153320312 355 463.153320312 359 463.153320312 363 c 0
 463.153320312 367 469.153320312 370 475.153320312 370 c 0xe0
 482.153320312 370 487.153320312 367 487.153320312 362 c 0
 487.153320312 358 481.153320312 355 475.153320312 355 c 0
474.153320312 377 m 0
 468.153320312 377 463.153320312 381 463.153320312 385 c 0
 463.153320312 390 468.153320312 393 475.153320312 393 c 0xd0
 481.153320312 392 486.153320312 389 486.153320312 385 c 0
 486.153320312 380 481.153320312 377 474.153320312 377 c 0
259.153320312 393 m 5
 270.153320312 393 321.153320312 394 333.153320312 394 c 1
 329.153320312 484 318.153320312 625 321.153320312 695 c 1
 296.153320312 623 258.153320312 471 259.153320312 393 c 5
EndSplineSet
Validated: 37
EndChar

StartChar: comma
Encoding: 13 44 13
Width: 240
GlyphClass: 1
Flags: W
LayerCount: 2
Fore
SplineSet
29 2 m 1
 28 1 l 1
 27 -8 l 1
 26 -7 23 -7 21 -8 c 2
 20 -9 l 1
 27 -8 33 -10 32 -13 c 0
 31 -15 32 -27 41 -29 c 1
 20 -52 36 -142 97 -150 c 1
 190 -257 94 -239 38 -300 c 1
 206 -299 307 -174 118 -106 c 1
 131 -84 115 -20 69 -20 c 0
 62 -20 55 -22 47 -25 c 0
 45 -26 43 -27 42 -28 c 0
 33 -25 33 -19 34 -12 c 0
 34 -10 30 -9 28 -8 c 2
 29 2 l 1
84 -45 m 0
 92 -45 98 -53 98 -63 c 0
 98 -72 92 -80 84 -80 c 0
 77 -80 71 -72 71 -63 c 0
 71 -53 77 -45 84 -45 c 0
EndSplineSet
Validated: 41
EndChar

StartChar: hyphen
Encoding: 14 45 14
Width: 492
GlyphClass: 1
Flags: W
HStem: 360 9<403.447 415.906> 365 20G<409.5 415>
VStem: 417 34<369.003 384.441>
LayerCount: 2
Fore
SplineSet
472 370 m 1x60
 472 371 l 1
 467 365 l 1x60
 465 367 463 368 462 367 c 0
 459 363 456 361 451 364 c 1
 444 409 388 406 368 384 c 1
 249 406 130 404 22 356 c 1
 116 362 199 368 364 352 c 1
 402 310 442 337 451 362 c 1
 456 359 462 364 462 366 c 0
 464 367 467 365 470 360 c 1xa0
 470 361 l 2
 469 363 468 364 467 365 c 1
 472 370 l 1x60
423 377 m 0
 423 373 419 369 413 369 c 0xa0
 407 369 402 373 402 377 c 0
 402 381 407 385 412 385 c 0
 418 385 423 382 423 377 c 0
417 352 m 0
 417 347 412 344 407 344 c 0
 401 343 396 347 396 352 c 0
 396 356 401 360 406 360 c 0
 412 360 417 357 417 352 c 0
EndSplineSet
Validated: 37
EndChar

StartChar: period
Encoding: 15 46 15
Width: 240
GlyphClass: 1
Flags: W
LayerCount: 2
Fore
SplineSet
118 192 m 0
 81 191 47 170 30 138 c 0
 6 90 26 33 76 10 c 0
 125 -13 185 6 209 53 c 0
 234 100 215 157 166 181 c 1
 120 96 l 1
 166 182 l 1
 152 188 134 192 118 192 c 0
88 143 m 0
 99 143 108 132 108 117 c 0
 108 103 99 91 88 91 c 0
 76 91 67 103 67 117 c 0
 67 132 76 143 88 143 c 0
159 142 m 0
 171 142 180 129 180 113 c 0
 180 97 171 85 159 85 c 0
 147 85 137 97 137 113 c 0
 137 129 147 142 159 142 c 0
EndSplineSet
Validated: 41
EndChar

StartChar: slash
Encoding: 16 47 16
Width: 540
GlyphClass: 1
Flags: W
LayerCount: 2
Fore
SplineSet
-10 -11 m 1
 -10 -11 1 -6 1 -9 c 0
 1 -11 1 -14 3 -18 c 1
 3 -18 7 -27 4 -18 c 0
 1 -8 2 -1 5 -1 c 0
 7 -2 19 3 21 13 c 1
 61 1 134 35 127 134 c 1
 285 403 433 558 540 696 c 1
 326 584 132 358 85 162 c 1
 39 153 -25 72 20 14 c 1
 17 4 12 2 4 1 c 0
 1 1 1 -5 1 -8 c 2
 -11 -10 l 1
 -10 -11 l 1
24 57 m 0
 19 62 20 73 27 82 c 0
 33 91 43 94 48 90 c 0
 53 85 52 74 45 65 c 0
 39 56 29 53 24 57 c 0
52 35 m 0
 47 40 48 51 55 59 c 0
 61 68 70 71 75 67 c 0
 81 62 80 51 73 42 c 0
 67 34 58 30 52 35 c 0
EndSplineSet
Validated: 37
EndChar

StartChar: zero
Encoding: 17 48 17
Width: 566
GlyphClass: 1
Flags: W
HStem: 684 12<228.366 251.118>
LayerCount: 2
Fore
SplineSet
245.538085938 696 m 1
 221.538085938 696 201.538085938 680 190.538085938 647 c 1
 185.538085938 647 181.538085938 640 181.538085938 638 c 0
 180.538085938 636 176.538085938 637 172.538085938 641 c 1
 172.538085938 640 l 2
 174.538085938 639 175.538085938 637 176.538085938 637 c 1
 173.538085938 629 l 1
 173.538085938 628 l 1
 177.538085938 637 l 1
 178.538085938 636 181.538085938 635 182.538085938 637 c 0
 183.538085938 642 186.538085938 645 190.538085938 646 c 1
 190.538085938 645 190.538085938 645 190.538085938 645 c 2
 193.538085938 642 165.538085938 622 169.538085938 618 c 1
 4.5380859375 430 53.5380859375 153 165.538085938 56 c 1
 259.538085938 -57 451.538085938 27 467.538085938 64 c 5
 629.452148438 163.095703125 606.208007812 646.96875 297.538085938 672 c 5
 279.538085938 687 262.538085938 696 245.538085938 696 c 1
237.538085938 684 m 0
 244.538085938 685 250.538085938 684 251.538085938 681 c 0
 252.538085938 678 247.538085938 674 240.538085938 672 c 0
 234.538085938 671 228.538085938 672 227.538085938 675 c 0
 226.538085938 678 231.538085938 682 237.538085938 684 c 0
196.538085938 642 m 1
 220.538085938 615 205.538085938 642 292.538085938 612 c 1
 439.052734375 577.430664062 519.538085938 286 363.538085938 168 c 1
 331.538085938 132 256.569335938 123.8515625 217.538085938 171 c 1
 15.5380859375 442 188.538085938 577 196.538085938 642 c 1
EndSplineSet
Validated: 41
EndChar

StartChar: one
Encoding: 18 49 18
Width: 169
GlyphClass: 1
Flags: W
VStem: 111.615 14<42.6014 83.6482>
LayerCount: 2
Fore
SplineSet
125.615234375 -32 m 1
 126.615234375 -32 l 1
 120.615234375 -24 l 2
 121.615234375 -22 124.615234375 -18 122.615234375 -17 c 0
 118.615234375 -11 115.615234375 -6 118.615234375 1 c 1
 171.615234375 12 168.615234375 100 144.615234375 132 c 1
 206.615234375 330 119.615234375 849 98.615234375 658 c 1
 145.615234375 762 51.615234375 416 107.615234375 139 c 1
 58.615234375 80 88.615234375 16 117.615234375 1 c 1
 113.615234375 -6 119.615234375 -16 121.615234375 -17 c 0
 122.615234375 -19 120.615234375 -24 114.615234375 -28 c 0
 108.615234375 -32 115.615234375 -29 115.615234375 -29 c 1
 117.615234375 -27 119.615234375 -26 120.615234375 -24 c 0
 121.615234375 -23 125.615234375 -32 125.615234375 -32 c 1
135.615234375 37 m 0
 130.615234375 37 125.615234375 47 125.615234375 61 c 0
 125.615234375 74 130.615234375 85 135.615234375 85 c 0
 141.615234375 85 145.615234375 74 145.615234375 61 c 0
 145.615234375 47 141.615234375 37 135.615234375 37 c 0
102.615234375 42 m 0
 97.615234375 42 93.615234375 51 93.615234375 63 c 0
 93.615234375 75 97.615234375 85 102.615234375 85 c 0
 107.615234375 85 111.615234375 75 111.615234375 63 c 0
 111.615234375 51 107.615234375 42 102.615234375 42 c 0
EndSplineSet
Validated: 37
EndChar

StartChar: two
Encoding: 19 50 19
Width: 559
GlyphClass: 1
Flags: W
HStem: 1 78<217.928 363.349>
VStem: 589 1<191.761 193>
LayerCount: 2
Fore
SplineSet
235 1 m 0
 285 3 346 8 419 25 c 0
 538 58 528 101 554 176 c 1
 562 183 570 182 579 178 c 0
 581 177 584 181 586 183 c 2
 599 178 l 1
 599 180 l 1
 587 184 l 1
 588 186 589 188 590 192 c 2
 589 193 l 1
 586 184 581 179 578 180 c 0
 576 182 562 185 555 179 c 1
 479 231 371 163 360 79 c 1
 -71 129 320.776367188 134.8671875 487 402 c 0
 643.368164062 653.293945312 131.89453125 874.640625 49 474 c 1
 269 769 558.5625 558.662109375 240 348 c 0
 -8 184 -137 -16 235 1 c 0
461 140 m 0
 459 141 458 142 457 143 c 0
 451 148 457 159 469 167 c 0
 482 175 496 178 501 173 c 0
 506 167 500 156 488 148 c 0
 479 142 468 139 461 140 c 0
EndSplineSet
Validated: 41
EndChar

StartChar: three
Encoding: 20 51 20
Width: 424
GlyphClass: 1
Flags: W
HStem: 66 321<44 282>
LayerCount: 2
Fore
SplineSet
80 -41 m 0
 154 -30 126.94140625 -1.2294921875 148 0 c 0
 559 24 415 304 238 345 c 1
 519 467 344 894 -8 597 c 1
 255 684 258 528 271 509 c 1
 270 509 297.971679688 395.768554688 70 387 c 0
 44 386 60 307 58 306 c 1
 432 210 282 57 104 66 c 1
 38 80 3 40 0 4 c 1
 -7 6 -14 -5 -14 -8 c 0
 -15 -10 -20 -9 -26 -3 c 0
 -32 3 -27 -4 -27 -4 c 1
 -24 -7 -22 -8 -21 -9 c 0
 -19 -10 -25 -19 -25 -19 c 1
 -25 -20 l 1
 -20 -9 l 1
 -18 -10 -14 -11 -13 -9 c 0
 -10 -2 -7 3 0 3 c 1
 14 -16 49 -46 80 -41 c 0
73 26 m 0
 72 23 47 13 43 18 c 0
 38 23 42 32 51 38 c 0
 60 44 71 45 75 39 c 0
 78 36 77 31 73 26 c 0
EndSplineSet
Validated: 37
EndChar

StartChar: four
Encoding: 21 52 21
Width: 582
GlyphClass: 1
Flags: W
HStem: 183.967 103.735<154.525 224.537>
VStem: 89.3906 65.1201<380.981 524.197> 262.271 25.165<286.726 540.284>
LayerCount: 2
Fore
SplineSet
325.206054688 57.8681640625 m 0
 339.141601562 57.8681640625 339.146484375 26.1455078125 325.206054688 26.142578125 c 0
 311.263671875 26.142578125 311.263671875 57.8681640625 325.206054688 57.8681640625 c 0
325.206054688 58.8115234375 m 0
 309.995117188 58.8115234375 309.994140625 25.19921875 325.20703125 25.19921875 c 0
 340.412109375 25.201171875 340.4140625 58.8046875 325.206054688 58.8115234375 c 0
295.658203125 58.8935546875 m 0
 307.740234375 58.8935546875 307.740234375 27.9306640625 295.657226562 27.9306640625 c 0
 283.58203125 27.9306640625 283.580078125 58.8935546875 295.658203125 58.8935546875 c 0
295.657226562 59.8369140625 m 0
 282.29296875 59.8369140625 282.293945312 26.986328125 295.657226562 26.986328125 c 0
 309.02734375 26.986328125 309.02734375 59.8369140625 295.657226562 59.8369140625 c 0
527.661132812 223.533203125 m 0
 527.661132812 236.163085938 556.497070312 236.16015625 556.497070312 223.533203125 c 0
 556.493164062 210.90625 527.6640625 210.903320312 527.661132812 223.533203125 c 0
557.440429688 223.533203125 m 0
 557.440429688 237.428710938 526.717773438 237.431640625 526.717773438 223.533203125 c 0
 526.720703125 209.634765625 557.4375 209.637695312 557.440429688 223.533203125 c 0
527.065429688 253.712890625 m 0
 527.068359375 265.771484375 556.455078125 265.771484375 556.458984375 253.712890625 c 0
 556.458984375 241.649414062 527.065429688 241.649414062 527.065429688 253.712890625 c 0
557.401367188 253.712890625 m 0
 557.3984375 267.049804688 526.125 267.049804688 526.122070312 253.712890625 c 0
 526.122070312 240.37109375 557.401367188 240.37109375 557.401367188 253.712890625 c 0
369.723632812 298.572265625 m 1
 370.84765625 298.060546875 438.313476562 304.384765625 485.974609375 256.9765625 c 0
 487.852539062 256.9140625 509.100585938 279.176757812 534.375 279.176757812 c 0
 556.583007812 279.176757812 573.372070312 261.5703125 580.649414062 230.583007812 c 0
 580.735351562 230.436523438 587.458984375 220.412109375 597.135742188 234.359375 c 0
 599.404296875 234.828125 601.231445312 231.416992188 602.416992188 231.362304688 c 0
 602.416992188 229.603515625 606.838867188 225.563476562 605.5078125 222.874023438 c 1
 603.686523438 229.658203125 600.345703125 233.798828125 597.98046875 233.798828125 c 2
 596.48828125 232.935546875 l 1
 595.814453125 230.157226562 587.514648438 222.180664062 581.92578125 228.803710938 c 0
 581.126953125 228.421875 581.126953125 228.421875 581.403320312 226.951171875 c 0
 547.909179688 178.801757812 524.323242188 184.272460938 484.89453125 213.383789062 c 1
 484.276367188 213.33203125 l 1
 458.247070312 186.553710938 440.109375 183.276367188 420.607421875 183.276367188 c 0
 414.118164062 183.276367188 407.477539062 183.645507812 400.361328125 183.645507812 c 0
 389.107421875 183.645507812 376.646484375 182.721679688 361.716796875 177.962890625 c 1
 369.34765625 245.193359375 369.706054688 294.39453125 369.723632812 298.572265625 c 1
400.361328125 182.701171875 m 0
 407.4609375 182.701171875 414.098632812 182.33203125 420.607421875 182.33203125 c 0
 440.274414062 182.33203125 458.77734375 185.747070312 484.952148438 212.674804688 c 1
 524.728515625 182.194335938 549.170898438 178.749023438 582.254882812 226.771484375 c 0
 582.412109375 227.514648438 583.275390625 225.296875 587.026367188 225.296875 c 0
 592.013671875 225.296875 596.780273438 230.135742188 597.384765625 232.629882812 c 0
 598.529296875 233.836914062 602.444335938 230.22265625 605.512695312 222.537109375 c 0
 608.797851562 221.794921875 604.861328125 229.162109375 603.169921875 231.364257812 c 1
 605.165039062 233.935546875 607.361328125 236.3046875 609.23046875 239 c 1
 609.23046875 241.7265625 l 1
 601.895507812 231.984375 l 1
 601.4375 233.333007812 599.44921875 235.633789062 597.716796875 235.633789062 c 0
 591.612304688 228.56640625 588.07421875 224.922851562 581.428710938 231.038085938 c 0
 569.788085938 281.188476562 532.162109375 297.8203125 485.998046875 257.66796875 c 1
 451.462890625 292.61328125 399.397460938 301.782226562 369.213867188 299.330078125 c 0
 368.174804688 298.205078125 369.350585938 254.063476562 361.390625 177.5625 c 1
 363.267578125 176.033203125 372.2578125 182.701171875 400.361328125 182.701171875 c 0
263.21484375 286.725585938 m 0
 263.21484375 385.04296875 277.61328125 456.856445312 288.08984375 529.58984375 c 0
 296.85546875 590.442382812 287.907226562 536.72265625 287.907226562 540.299804688 c 1
 352.751953125 403.579101562 385.0390625 253.26171875 327.418945312 95.0400390625 c 0
 327.5390625 94.5390625 347.286132812 76.6943359375 347.286132812 47.5263671875 c 0
 347.286132812 26.833984375 336.373046875 7.140625 307.58203125 1.328125 c 0
 307.450195312 1.2294921875 301.211914062 -5.4921875 310.612304688 -14.96875 c 1
 302.467773438 -8.0185546875 305.838867188 -1.0712890625 306.833984375 0.326171875 c 0
 306.370117188 1.052734375 306.370117188 1.052734375 306.000976562 0.9853515625 c 0
 275.575195312 11.630859375 243.774414062 48.525390625 293.212890625 96.7333984375 c 0
 293.69140625 98.59765625 263.21484375 182.3046875 263.21484375 286.725585938 c 0
287.145507812 529.58984375 m 0
 287.145507812 456.232421875 262.270507812 385.122070312 262.270507812 286.725585938 c 0
 262.270507812 233.13671875 269.650390625 171.459960938 292.432617188 96.9345703125 c 1
 243.971679688 50.6083984375 272.4921875 11.6630859375 305.932617188 0.07421875 c 0
 306.4296875 0.1142578125 306.48046875 0.1259765625 306.536132812 0.13671875 c 1
 301.559570312 -2.7099609375 306.268554688 -14.185546875 309.60546875 -15.314453125 c 0
 309.70703125 -17.673828125 307.584960938 -20.9873046875 303.498046875 -23.798828125 c 1
 304.663085938 -25.19921875 l 1
 306.96875 -23.6162109375 308.399414062 -22.3232421875 309.333007812 -21.0888671875 c 1
 313.918945312 -26.931640625 l 1
 316.145507812 -27.0205078125 l 1
 309.67578125 -19.9541015625 l 1
 310.51171875 -19.2998046875 311.806640625 -17.3095703125 311.806640625 -15.69921875 c 0
 307.146484375 -9.83203125 304.520507812 -6.23828125 308.094726562 0.6494140625 c 1
 361.416992188 11.08203125 354.516601562 70.65625 328.185546875 95.22265625 c 1
 391.828125 267.4453125 343.19921875 426.615234375 287.862304688 540.490234375 c 1
 287.862304688 536.701171875 287.145507812 533.142578125 287.145507812 529.58984375 c 0
264.37109375 176.560546875 m 1
 241.280273438 183.987304688 98.8076171875 180.643554688 72.8359375 183.966796875 c 1
 78.6650390625 243.133789062 89.390625 468.34765625 89.390625 607.112304688 c 0
 89.390625 637.706054688 87.654296875 664.096679688 87.654296875 683.592773438 c 1
 102.216796875 655.174804688 154.9140625 536.020507812 154.510742188 298.009765625 c 0
 154.650390625 297.72265625 165.036132812 287.702148438 184.63671875 287.702148438 c 0
 209.092773438 287.702148438 234.0703125 301.872070312 255.342773438 294.603515625 c 1
 253.635742188 275.674804688 251.188476562 248.5390625 260.221679688 200.557617188 c 0
 261.60546875 193.212890625 263.05078125 185.543945312 264.37109375 176.560546875 c 1
255.966796875 295.020507812 m 1
 227.380859375 306.98828125 188.2734375 272.875 155.270507812 298.381835938 c 0
 155.456054688 298.908203125 155.456054688 299.805664062 155.456054688 300.704101562 c 0
 155.456054688 510.569335938 92.23046875 768 87.6005859375 683.78515625 c 1
 87.6005859375 664.073242188 88.447265625 637.693359375 88.447265625 607.112304688 c 0
 88.447265625 468.399414062 77.720703125 243.158203125 72.3056640625 183.541992188 c 1
 96.5888671875 179.389648438 239.979492188 182.91015625 264.713867188 176.174804688 c 1
 262.684570312 202.5234375 254.834960938 217.622070312 254.834960938 262.038085938 c 0
 254.834960938 271.466796875 255.177734375 282.279296875 255.966796875 295.020507812 c 1
308.9296875 -20.017578125 m 1
 308.98046875 -20.2548828125 304.924804688 -24.98046875 303.985351562 -23.7705078125 c 1
 306.072265625 -22.7490234375 307.793945312 -21.396484375 308.9296875 -20.017578125 c 1
87.181640625 683.563476562 m 1
 113.4453125 634.309570312 155.340820312 509.443359375 154.981445312 298.009765625 c 1
 187.690429688 272.728515625 225.174804688 305.411132812 255.494140625 295.05078125 c 1
 251.422851562 229.212890625 259.227539062 214.762695312 264.837890625 176.630859375 c 1
 240.715820312 183.19921875 97.841796875 180.291015625 72.775390625 183.499023438 c 1
 79.38671875 256.297851562 93.9052734375 575.737304688 87.181640625 683.563476562 c 1
287.435546875 540.284179688 m 1
 352.620117188 406.147460938 385.974609375 254.456054688 327.861328125 94.87890625 c 1
 353.590820312 70.875 361.432617188 11.7177734375 307.674804688 0.8671875 c 1
 304.12109375 -5.982421875 306.512695312 -10.1669921875 310.947265625 -14.63671875 c 0
 312.1171875 -15.814453125 310.35546875 -18.66796875 309.325195312 -20.271484375 c 2
 315.10546875 -26.583984375 l 1
 314.266601562 -26.6123046875 l 1
 308.956054688 -20.8037109375 l 1
 308.067382812 -21.9794921875 306.674804688 -23.2451171875 304.631835938 -24.6484375 c 2
 303.763671875 -24.1865234375 l 1
 308.923828125 -20.6396484375 311.188476562 -16.265625 309.755859375 -14.8662109375 c 0
 307.711914062 -14.17578125 302.145507812 -5.44140625 306.44921875 0.6005859375 c 1
 306.314453125 0.5751953125 306.208007812 0.5439453125 306.086914062 0.521484375 c 0
 274.790039062 11.3662109375 243.336914062 48.7587890625 292.8828125 97.0732421875 c 1
 226.259765625 315.009765625 291.461914062 422.864257812 287.435546875 540.284179688 c 1
379.541015625 299.038085938 m 1
 400.6640625 298.600585938 449.989257812 293.435546875 486.306640625 257.311523438 c 1
 531.814453125 296.895507812 569.220703125 281.3125 581.108398438 230.69140625 c 0
 587.841796875 224.49609375 592.11328125 227.94921875 596.74609375 234.627929688 c 0
 597.958007812 236.374023438 600.72265625 233.420898438 602.2734375 231.701171875 c 1
 608.758789062 240.315429688 l 1
 608.758789062 239 l 1
 602.793945312 231.079101562 l 2
 603.92578125 229.606445312 605.123046875 227.34375 606.439453125 224.046875 c 2
 605.950195312 222.712890625 l 1
 602.627929688 231.037109375 598.370117188 234.888671875 596.92578125 232.743164062 c 0
 596.166015625 229.606445312 587.3984375 221.586914062 581.564453125 228.5 c 1
 581.661132812 228 581.771484375 227.543945312 581.866210938 227.040039062 c 0
 548.203125 178.176757812 524.268554688 183.7265625 484.614257812 213.00390625 c 1
 436.16796875 163.165039062 414.532226562 194.301757812 361.859375 177.513671875 c 1
 369.223632812 248.290039062 369.251953125 298.861328125 369.251953125 298.861328125 c 1
 369.251953125 298.861328125 370.338867188 298.94921875 372.333984375 299.01171875 c 0
 374.081054688 299.065429688 376.522460938 299.099609375 379.541015625 299.038085938 c 1
541.76171875 263.413085938 m 0
 533.390625 263.413085938 526.59375 259.06640625 526.592773438 253.712890625 c 0
 526.592773438 248.357421875 533.390625 244.009765625 541.76171875 244.009765625 c 0
 550.131835938 244.009765625 556.9296875 248.357421875 556.9296875 253.712890625 c 0
 556.928710938 259.06640625 550.131835938 263.413085938 541.76171875 263.413085938 c 0
542.077148438 233.666015625 m 0
 533.859375 233.666015625 527.188476562 229.123046875 527.188476562 223.533203125 c 0
 527.189453125 217.94140625 533.860351562 213.40234375 542.077148438 213.40234375 c 0
 550.29296875 213.40234375 556.965820312 217.94140625 556.967773438 223.533203125 c 0
 556.967773438 229.123046875 550.294921875 233.666015625 542.077148438 233.666015625 c 0
295.657226562 59.365234375 m 0
 290.293945312 59.36328125 285.939453125 52.2158203125 285.939453125 43.4130859375 c 0
 285.939453125 34.609375 290.293945312 27.4580078125 295.657226562 27.4580078125 c 0
 301.022460938 27.4580078125 305.37890625 34.607421875 305.37890625 43.4130859375 c 0
 305.37890625 52.216796875 301.021484375 59.365234375 295.657226562 59.365234375 c 0
325.206054688 58.33984375 m 0
 319.059570312 58.33984375 314.071289062 51.0185546875 314.071289062 42.0048828125 c 0
 314.071289062 32.990234375 319.059570312 25.6708984375 325.206054688 25.6708984375 c 0
 331.349609375 25.671875 336.337890625 32.9912109375 336.337890625 42.0048828125 c 0
 336.337890625 51.017578125 331.349609375 58.3369140625 325.206054688 58.33984375 c 0
EndSplineSet
Validated: 37
EndChar

StartChar: five
Encoding: 22 53 22
Width: 445
GlyphClass: 1
Flags: HW
HStem: 705 2<441.462 444.854> 714 16<396.135 406.459>
VStem: 417.462 24<678.189 694.999> 451.462 12<713 714.608>
LayerCount: 2
Fore
SplineSet
406.461914062 730 m 1
 379.461914062 731 350.461914062 709 344.461914062 691 c 1
 271.461914062 709 211.461914062 701 159.461914062 677 c 0
 119.461914062 658 84.4619140625 629 52.4619140625 595 c 1
 133.461914062 614 221.461914062 565 354.461914062 654 c 1
 417.461914062 635 442.461914062 677 441.461914062 705 c 1
 447.461914062 705 451.461914062 713 451.461914062 715 c 0
 451.461914062 718 457.461914062 716 463.461914062 711 c 1
 463.461914062 713 l 2
 460.461914062 715 458.461914062 716 457.461914062 716 c 1
 460.461914062 725 l 1
 459.461914062 726 l 1
 456.461914062 717 l 2
 454.461914062 717 450.461914062 719 450.461914062 717 c 0
 448.461914062 711 446.461914062 707 441.461914062 707 c 1
 432.461914062 723 419.461914062 730 406.461914062 730 c 1
398.461914062 714 m 0
 402.461914062 714 406.461914062 712 406.461914062 709 c 0
 407.461914062 706 402.461914062 701 396.461914062 700 c 0
 389.461914062 699 383.461914062 700 383.461914062 704 c 0
 382.461914062 708 386.461914062 712 393.461914062 713 c 0
 394.461914062 714 396.461914062 714 398.461914062 714 c 0
411.461914062 695 m 0
 414.461914062 695 416.461914062 694 417.461914062 692 c 0
 419.461914062 688 416.461914062 682 410.461914062 678 c 0
 404.461914062 674 397.461914062 675 395.461914062 678 c 0
 392.461914062 682 396.461914062 688 402.461914062 692 c 0
 405.461914062 694 408.461914062 695 411.461914062 695 c 0
106.461914062 594 m 0
 40.4619140625 598 57.4619140625 568 57.4619140625 526 c 1
 57.4619140625 526 65.4619140625 301 59.4619140625 281 c 1
 387.461914062 349 395.461914062 10 162.461914062 71 c 1
 135.461914062 125 95 120 45 102 c 1
 41 111 41.9342214934 115.472307431 46.4619140625 120 c 0
 47.4619140625 121 45.4619140625 124 44.4619140625 126 c 2
 49.4619140625 133 l 1
 48.4619140625 133 l 1
 44.4619140625 127 l 1
 43.4619140625 129 41.4619140625 130 39.4619140625 132 c 2
 38.4619140625 132 l 1
 44.4619140625 127 46.4619140625 121 45.4619140625 120 c 0
 43.4619140625 120 38.4619140625 109 44.4619140625 102 c 1
 33.4619140625 57 63.4619140625 -17 149.461914062 16 c 1
 486.461914062 -99 612.461914062 454 162.461914062 383 c 1
 146.461914062 429 152.461914062 530 170.461914062 589 c 1
 152.461914062 592 122.432617188 593.032226562 106.461914062 594 c 0
38.4619140625 134 m 1
 38.4619140625 134 38.4619140625 134 38.4619140625 136 c 1
 38.4619140625 134 l 1
101.461914062 91 m 0
 104.461914062 91 106.461914062 91 108.461914062 90 c 0
 118.461914062 88 125.461914062 80 123.461914062 74 c 0
 121.461914062 67 112.461914062 64 102.461914062 67 c 0
 92.4619140625 69 86.4619140625 77 87.4619140625 83 c 0
 89.4619140625 88 94.4619140625 91 101.461914062 91 c 0
79.4619140625 61 m 0
 84.4619140625 61 90.4619140625 59 94.4619140625 56 c 0
 102.461914062 50 104.461914062 42 99.4619140625 37 c 0
 94.4619140625 32 83.4619140625 33 75.4619140625 38 c 0
 67.4619140625 44 65.4619140625 52 70.4619140625 57 c 0
 72.4619140625 59 75.4619140625 60 79.4619140625 61 c 0
EndSplineSet
Validated: 41
EndChar

StartChar: six
Encoding: 23 54 23
Width: 512
GlyphClass: 1
Flags: HW
VStem: 207.23 56<310.911 325.261>
LayerCount: 2
Fore
SplineSet
294.23046875 345 m 1
 305.23046875 342 317.23046875 335 327.23046875 320 c 1
 498.23046875 342 607.23046875 71 388.23046875 6 c 1
 363.653320312 1.8623046875 340.719726562 -0.1015625 319.354492188 -0.1015625 c 0
 137.357421875 -0.1015625 69.216796875 142.459960938 69.216796875 298.905273438 c 0
 69.216796875 489.110351562 169.938476562 699.836914062 289.2265625 699.836914062 c 0
 356.919921875 699.836914062 430.591796875 631.977539062 495.23046875 454 c 1
 256.23046875 841 83.23046875 341 239.23046875 127 c 1
 428.23046875 13 472.23046875 255 303.23046875 255 c 1
 245.23046875 232 230.23046875 290 213.23046875 308 c 1
 211.23046875 306 209.64453125 302.828125 208.23046875 300 c 0
 207.23046875 298 203 299 201 300 c 1
 196.23046875 290 l 1
 196.23046875 291 l 1
 200 300 l 1
 198 301 196.23046875 303 196.23046875 304 c 2
 196.23046875 305 l 1
 201.23046875 300 206.23046875 299 207.23046875 301 c 1
 207.23046875 303 211.23046875 309 216.23046875 311 c 0
 233.23046875 324 264.23046875 351 294.23046875 345 c 1
287.23046875 328 m 0
 285.23046875 328 282.23046875 328 280.23046875 328 c 0
 271.23046875 327 263.23046875 321 263.23046875 315 c 0
 263.23046875 309 271.23046875 304 280.23046875 306 c 0
 289.23046875 307 296.23046875 312 296.23046875 319 c 0
 296.23046875 323 293.23046875 326 287.23046875 328 c 0
EndSplineSet
Validated: 33
EndChar

StartChar: seven
Encoding: 24 55 24
Width: 395
GlyphClass: 1
Flags: W
HStem: 701 18<39.6104 59.9524>
LayerCount: 2
Fore
SplineSet
55 719 m 0
 31 717 9 684 -4 660 c 1
 -11 657 -15 661 -19 667 c 0
 -20 668 -23 666 -25 665 c 2
 -31 674 l 1
 -31 673 l 1
 -31 673 -24 666 -26 665 c 0
 -27 664 -29 662 -30 659 c 2
 -30 659 -34 652 -30 658 c 0
 -25 665 -21 667 -19 665 c 0
 -19 662 -10 654 -4 659 c 1
 14 615 81 604 109 644 c 1
 145 624 207 578 313 631 c 1
 322 592 167 446 81 0 c 0
 80.810546875 -0.9814453125 369 412 391 690 c 0
 393.052734375 715.938476562 116 690 102 695 c 1
 84 713 78 716 60 719 c 0
 58 719 56 719 55 719 c 0
54 701 m 0
 57 701 59 700 60 697 c 0
 62 692 58 684 50 678 c 0
 43 673 36 673 34 678 c 0
 32 683 37 692 44 697 c 0
 48 700 51 701 54 701 c 0
EndSplineSet
Validated: 37
EndChar

StartChar: eight
Encoding: 25 56 25
Width: 429
GlyphClass: 1
Flags: W
HStem: 674 25<129.013 262.109>
LayerCount: 2
Fore
SplineSet
391 733 m 1
 396 727 397 722 396 722 c 0
 394 722 387 718 388 712 c 1
 338 743 271 715 264 663 c 1
 141 713 -77 561 152 371 c 1
 175 384 199 401 219 415 c 1
 28 614 261 580 291 609 c 1
 383 598 413 668 390 712 c 0
 389 712 389 712 389 712 c 1
 389 717 392 719 397 721 c 0
 398 721 397 725 396 727 c 1
 404 730 l 1
 403 730 l 1
 396 727 l 2
 395 729 394 731 392 733 c 2
 391 733 l 1
328 707 m 0
 338 707 345 703 345 699 c 0
 345 694 338 691 328 691 c 0
 319 691 312 694 312 699 c 0
 312 703 319 707 328 707 c 0
235 699 m 0
 200 699 160 694 117 684 c 1
 117 684 156 683 202 674 c 1
 224 675 244 672 263 665 c 1
 265 678 269 688 277 697 c 1
 264 698 251 699 235 699 c 0
362 681 m 0
 364 681 365 681 366 680 c 0
 369 677 366 668 360 661 c 0
 353 654 344 650 341 653 c 0
 338 657 340 665 347 672 c 0
 352 678 358 681 362 681 c 0
393 651 m 1
 385 633 368 618 343 611 c 1
 371 576 330 490 231 414 c 1
 -15 271 -143.185016323 -1.46551418823 252 5 c 0
 526.021564005 9.48319201583 428.609375 233.119140625 272 355 c 1
 256 341 232 318 218 304 c 1
 239 266 370 195 292 134 c 1
 -10 77 167 289 324 407 c 1
 436 509 449 599 393 651 c 1
EndSplineSet
Validated: 37
EndChar

StartChar: nine
Encoding: 26 57 26
Width: 354
GlyphClass: 1
Flags: W
VStem: 73 3<78 79>
LayerCount: 2
Fore
SplineSet
159 0 m 1
 171 0 180 4 193 17 c 1
 771 1234 -483.752929688 492.11328125 229 331 c 1
 -197 469 439 912 189 89 c 1
 136 127 108 71 86 57 c 0
 84 59 83 63 82 67 c 0
 82 69 78 68 76 68 c 2
 73 79 l 1
 73 78 l 1
 73 78 77 68 76 68 c 0
 74 68 72 67 70 65 c 2
 70 65 64 60 70 64 c 0
 76 68 81 68 82 65 c 1
 81 63 84 57 88 54 c 0
 102 35 127 1 159 0 c 1
155 57 m 0
 153 56 151 54 148 53 c 0
 139 50 130 52 127 57 c 0
 124 63 128 71 137 74 c 0
 146 78 156 76 159 70 c 0
 161 66 159 61 155 57 c 0
EndSplineSet
Validated: 37
EndChar

StartChar: colon
Encoding: 27 58 27
Width: 324
GlyphClass: 1
Flags: W
HStem: 135 39<165.167 263.308> 410 21G<164.115 177.115 231.115 244.115> 469 33<149.072 240.121>
VStem: 194.615 19<415.273 462.81> 205.615 25<79.8625 132.138>
LayerCount: 2
Fore
SplineSet
193.615234375 502 m 0xe0
 159.615234375 501 128.615234375 482 113.615234375 453 c 0
 91.615234375 410 110.615234375 358 154.615234375 337 c 0
 199.615234375 316 253.615234375 333 275.615234375 376 c 0
 298.615234375 418 280.615234375 470 236.615234375 492 c 1
 195.615234375 415 l 1
 238.615234375 492 l 1
 225.615234375 498 207.615234375 502 193.615234375 502 c 0xe0
170.615234375 469 m 0
 183.615234375 469 194.615234375 456 194.615234375 440 c 0xf0
 194.615234375 424 183.615234375 410 170.615234375 410 c 0
 157.615234375 410 146.615234375 424 146.615234375 440 c 0
 146.615234375 456 157.615234375 469 170.615234375 469 c 0
237.615234375 464 m 0
 250.615234375 464 261.615234375 450 261.615234375 434 c 0
 261.615234375 418 250.615234375 405 237.615234375 405 c 0
 224.615234375 405 213.615234375 418 213.615234375 434 c 0
 213.615234375 450 224.615234375 464 237.615234375 464 c 0
212.615234375 174 m 0
 178.615234375 173 147.615234375 154 132.615234375 125 c 0
 110.615234375 82 129.615234375 30 173.615234375 9 c 0
 218.615234375 -12 272.615234375 5 294.615234375 48 c 0
 317.615234375 90 299.615234375 142 255.615234375 164 c 1
 213.615234375 87 l 1
 256.615234375 164 l 1
 243.615234375 170 226.615234375 174 212.615234375 174 c 0
184.615234375 135 m 0
 195.615234375 135 205.615234375 122 205.615234375 106 c 0xe8
 205.615234375 90 195.615234375 77 184.615234375 77 c 0
 172.615234375 77 163.615234375 90 163.615234375 106 c 0
 163.615234375 122 172.615234375 135 184.615234375 135 c 0
251.615234375 133 m 0
 263.615234375 133 272.615234375 119 272.615234375 103 c 0
 272.615234375 87 263.615234375 74 251.615234375 74 c 0
 239.615234375 74 230.615234375 87 230.615234375 103 c 0
 230.615234375 119 239.615234375 133 251.615234375 133 c 0
EndSplineSet
Validated: 37
EndChar

StartChar: semicolon
Encoding: 28 59 28
Width: 240
GlyphClass: 1
Flags: W
LayerCount: 2
Fore
SplineSet
67 421 m 0
 49 420 33 410 25 395 c 0
 13 372 23 345 47 334 c 0
 70 323 99 332 110 354 c 0
 122 377 113 404 90 416 c 1
 79 396 l 1
 81 398 84 399 88 399 c 0
 95 399 102 392 102 383 c 0
 102 374 95 366 88 366 c 0
 80 366 73 374 73 383 c 0
 73 384 74 385 74 386 c 1
 68 375 l 1
 74 388 l 2
 75 390 76 392 77 394 c 2
 88 416 l 1
 82 419 74 421 67 421 c 0
48 402 m 0
 56 402 62 395 62 387 c 0
 62 379 56 372 48 372 c 0
 41 372 35 379 35 387 c 0
 35 395 41 402 48 402 c 0
57 273 m 1
 56 273 l 1
 55 264 l 1
 53 265 51 265 48 265 c 1
 48 264 l 1
 55 264 59 262 59 260 c 0
 58 259 58 251 62 247 c 1
 38 234 51 143 109 135 c 1
 193 39 107 55 56 0 c 1
 208 1 298 113 128 175 c 1
 140 195 125 253 83 252 c 0
 78 252 71 251 64 248 c 2
 64 248 64 248 63 248 c 0
 59 251 59 255 60 261 c 0
 61 262 57 264 55 264 c 1
 57 273 l 1
90 233 m 0
 97 233 103 226 103 217 c 0
 103 208 97 201 90 201 c 0
 84 201 78 208 78 217 c 0
 78 226 84 233 90 233 c 0
EndSplineSet
Validated: 37
EndChar

StartChar: less
Encoding: 29 60 29
Width: 270
GlyphClass: 1
Flags: W
LayerCount: 2
Fore
SplineSet
20 234 m 1
 41 187 68 152 141 97 c 1
 152 50 194 32 234 26 c 0
 239 22 239 18 238 12 c 0
 238 11 241 9 243 9 c 1
 242 0 l 1
 243 1 l 1
 244 9 l 1
 245 8 247 8 250 8 c 1
 250 9 l 1
 244 9 239 11 239 13 c 1
 239 13 l 1
 241 15 240 23 235 26 c 1
 234 71 218 110 162 123 c 1
 142 158 157 182 86 209 c 1
 126 200 216 387 214 399 c 0
 212 413 65 227 20 234 c 1
 20 234 l 1
194 55 m 0
 194 56 194 57 194 57 c 2
 196 60 201 60 206 57 c 0
 211 54 213 49 211 46 c 0
 210 44 204 44 200 47 c 0
 196 49 194 53 194 55 c 0
EndSplineSet
Validated: 37
EndChar

StartChar: equal
Encoding: 30 61 30
Width: 538
GlyphClass: 1
Flags: W
LayerCount: 2
Fore
SplineSet
448 194 m 1
 469 194 491 211 496 253 c 1
 501 258 504 254 508 247 c 0
 509 245 511 248 513 250 c 1
 518 241 l 1
 518 242 l 1
 513 251 l 2
 514 252 515 255 516 258 c 2
 516 259 l 1
 513 251 509 247 508 249 c 0
 507 252 501 260 496 255 c 1
 485 298 441 343 400 273 c 1
 217 246 125 256 21 265 c 1
 141 187 272 183 404 219 c 1
 413 203 431 193 448 194 c 1
 448 194 l 1
448 212 m 0
 442 212 437 218 437 226 c 0
 437 233 442 239 449 239 c 0
 455 238 460 232 460 225 c 0
 460 218 455 212 448 212 c 0
444 269 m 0
 438 269 432 275 432 283 c 0
 433 290 438 296 444 296 c 0
 451 296 456 289 456 282 c 0
 456 274 450 268 444 269 c 0
434 397 m 1
 456 397 478 414 482 457 c 1
 488 461 491 457 495 451 c 0
 496 449 498 452 500 454 c 1
 505 444 l 1
 505 446 l 1
 500 454 l 2
 501 456 502 458 503 461 c 2
 503 463 l 1
 500 454 496 450 495 453 c 0
 494 456 488 464 482 459 c 1
 472 502 428 546 386 477 c 1
 204 450 112 460 8 469 c 1
 128 390 259 387 391 422 c 1
 400 407 417 397 434 397 c 1
 434 397 l 1
433 419 m 0
 427 419 422 425 422 433 c 0
 422 440 427 446 434 446 c 0
 440 445 446 439 445 432 c 0
 445 425 440 419 433 419 c 0
429 461 m 0
 423 462 417 468 418 475 c 0
 418 483 423 489 429 489 c 0
 436 489 441 482 441 475 c 0
 441 467 435 461 429 461 c 0
EndSplineSet
Validated: 37
EndChar

StartChar: greater
Encoding: 31 62 31
Width: 270
GlyphClass: 1
Flags: W
LayerCount: 2
Fore
SplineSet
250 200 m 1
 250 200 l 1
 209 197 86 378 83 366 c 0
 80 355 151 176 188 182 c 1
 121 162 133 138 112 107 c 1
 60 100 42 65 38 24 c 1
 33 21 32 13 33 12 c 1
 34 10 33 12 33 12 c 1
 33 10 29 8 23 9 c 0
 17 10 23 8 23 8 c 1
 25 8 27 8 29 8 c 0
 30 8 29 1 29 1 c 1
 30 0 l 1
 29 8 l 2
 31 9 34 9 34 11 c 0
 34 16 34 20 39 23 c 0
 76 26 116 40 129 82 c 1
 200 128 228 158 250 200 c 1
79 47 m 1
 79 47 l 1
 79 44 76 41 73 38 c 0
 68 36 62 36 61 39 c 0
 59 42 62 46 67 49 c 0
 72 52 77 52 79 49 c 0
 79 48 79 48 79 47 c 1
EndSplineSet
Validated: 37
EndChar

StartChar: question
Encoding: 32 63 32
Width: 316
GlyphClass: 1
Flags: W
HStem: 73 20<78.6567 117.233>
VStem: 98 18<38.254 63.8601> 108 9<56.1399 60.2222>
LayerCount: 2
Fore
SplineSet
161 698 m 0x80
 86 699 -4 660 3 486 c 1
 34 834 448 544 78 418 c 0
 30 402 46 298 95 236 c 1
 60 217 46 177 83 126 c 0
 85 119 83 115 80 112 c 0
 80 110 81 107 82 105 c 2
 78 99 l 1
 78 98 l 1
 82 104 l 1
 83 103 84 101 86 99 c 1
 82 104 80 110 81 111 c 0
 83 112 86 119 84 126 c 1
 148 141 152 192 138 229 c 1
 154 333 123 338 131 374 c 1
 436 479 295 696 161 698 c 0x80
91 201 m 2
 91 201 91 201 92 201 c 0
 97 200 99 191 96 181 c 0
 94 171 88 165 82 166 c 0
 77 167 75 176 78 186 c 0
 80 195 86 201 91 201 c 2
109 93 m 0
 90 93 73 83 65 67 c 0
 54 45 63 18 87 6 c 0
 110 -5 139 4 150 27 c 0
 162 49 153 76 130 88 c 1
 121 72 l 1
 124 75 127 76 130 76 c 0
 138 76 145 67 145 56 c 0
 145 45 138 37 130 37 c 0
 122 37 116 45 116 56 c 0xc0
 116 59 116 61 117 64 c 1
 108 47 l 1xa0
 128 88 l 1
 122 91 116 93 109 93 c 0
87 73 m 0
 93 73 98 64 98 53 c 0
 98 42 93 33 87 33 c 0
 80 33 75 42 75 53 c 0
 75 64 80 73 87 73 c 0
EndSplineSet
Validated: 41
EndChar

StartChar: at
Encoding: 33 64 33
Width: 719
GlyphClass: 1
Flags: W
HStem: 138 2<725.701 735.613>
VStem: 737 1<144 150>
LayerCount: 2
Fore
SplineSet
395 700 m 1
 215 701 81.4072265625 587.228515625 30 453 c 0
 -78 171 120 -141 682 68 c 1
 713 85 714 104 720 133 c 0
 723 139 728 139 734 138 c 0
 736 138 737 142 738 143 c 2
 747 143 l 1
 746 143 l 1
 738 144 l 2
 738 146 738 148 738 150 c 2
 737 151 l 1
 738 144 736 139 734 140 c 0
 732 141 722 140 719 133 c 1
 687 157 620 133 609 96 c 1
 160 -12 63 231 89 344 c 0
 117 465 183 525 266 571 c 1
 266 571 431 630 546 550 c 0
 668 465 635 377 620 331 c 0
 573 192 518 150 507 278 c 0
 476 655 368 472 380 190 c 1
 162 165 151 465 399 433 c 1
 411 471 426 494 441 493 c 1
 413 508 344 509 322 509 c 0
 245 509 173 449 149 373 c 0
 118 274 159 152 299 130 c 0
 367 120 448 111 451 168 c 0
 459 334 447 219 468 166 c 0
 530 9 681 207 696 286 c 1
 778 547 599 694 419 696 c 1
 395 700 l 1
461 488 m 1
 475 468 483 449 488 426 c 1
 509 419 535 406 558 391 c 1
 531 425 500 458 461 488 c 1
668 134 m 0
 673 135 677 133 679 129 c 0
 681 124 677 117 670 113 c 0
 663 110 655 112 652 117 c 0
 650 122 654 129 661 133 c 0
 663 134 666 134 668 134 c 0
688 116 m 0
 692 117 695 115 696 113 c 0
 699 108 695 101 688 97 c 0
 681 93 673 93 671 98 c 0
 668 103 672 110 679 114 c 0
 682 115 685 116 688 116 c 0
EndSplineSet
Validated: 37
EndChar

StartChar: A
Encoding: 34 65 34
Width: 578
GlyphClass: 1
Flags: W
HStem: 183 49<136.368 393.408> 579 119<243.76 319.285>
LayerCount: 2
Fore
SplineSet
560.616210938 1 m 1
 561.616210938 0 l 2
 566.616210938 -3 570.616210938 -6 575.616210938 -8 c 0
 577.616210938 -9 581.616210938 -9 585.616210938 -9 c 2
 595.616210938 -17 l 1
 595.616210938 -16 l 1
 586.616210938 -9 l 1
 590.616210938 -8 593.616210938 -7 598.616210938 -5 c 1
 598.616210938 -4 l 1
 586.616210938 -8 580.616210938 -9 575.616210938 -7 c 0
 570.616210938 -5 567.616210938 -2 561.616210938 1 c 1
 581.616210938 112 537.616210938 133 526.616210938 155 c 1
 559.616210938 368 408.616210938 699 283.616210938 698 c 0
 157.616210938 698 73.0869140625 301.727539062 29.6162109375 71 c 0
 16.6162109375 2 14.6162109375 13 7.6162109375 0 c 1
 41.6162109375 13 56.6162109375 66 84.6162109375 140 c 0
 86.6162109375 145 89.6162109375 152 91.6162109375 161 c 1
 86.6162109375 179 88.6162109375 196 106.616210938 211 c 1
 142.616210938 341 204.616210938 576 281.616210938 579 c 0
 358.616210938 582 429.616210938 332 462.616210938 211 c 1
 468.616210938 206 472.616210938 199 476.616210938 189 c 1
 488.616210938 181 l 1
 494.616210938 181 l 2
 495.616210938 181 495.616210938 181 495.616210938 180 c 2
 495.616210938 179 l 1
 495.616210938 179 495.616210938 178 494.616210938 178 c 2
 492.616210938 178 l 1
 493.616210938 177 l 1
 493.616210938 177 494.616210938 176 493.616210938 176 c 1
 493.616210938 175 l 1
 492.616210938 175 492.616210938 174 491.616210938 175 c 2
 476.616210938 186 l 2
 474.616210938 184 472.616210938 182 470.616210938 180 c 0
 473.616210938 167 476.616210938 157 477.616210938 151 c 0
 485.616210938 125 463.616210938 69 560.616210938 1 c 1
187.616210938 232 m 1
 183.616210938 232 179.616210938 232 176.616210938 232 c 0
 154.616210938 232 136.616210938 232 111.616210938 210 c 0
 60.6162109375 167 133.616210938 107 181.616210938 69 c 1
 161.616210938 115 90.6162109375 185 179.616210938 183 c 0
 300.616210938 179 296.616210938 206 359.616210938 201 c 0
 413.616210938 197 439.616210938 149 471.616210938 186 c 1
 455.616210938 231 420.616210938 222 310.616210938 227 c 0
 248.616210938 230 213.616210938 232 187.616210938 232 c 1
443.616210938 204 m 0
 446.616210938 204 449.616210938 201 449.616210938 198 c 0
 449.616210938 195 446.616210938 193 443.616210938 193 c 0
 440.616210938 193 437.616210938 195 437.616210938 198 c 0
 437.616210938 201 440.616210938 204 443.616210938 204 c 0
550.616210938 64 m 0
 554.616210938 64 557.616210938 61 557.616210938 57 c 0
 557.616210938 53 554.616210938 49 550.616210938 49 c 0
 546.616210938 49 543.616210938 53 543.616210938 57 c 0
 543.616210938 61 546.616210938 64 550.616210938 64 c 0
EndSplineSet
Validated: 41
EndChar

StartChar: B
Encoding: 35 66 35
Width: 662
GlyphClass: 1
Flags: W
HStem: -1 11<290.043 299.539> 100 8<22.6001 35.6914> 602 96<284.161 453.519>
VStem: 193.691 120<106 205.633>
LayerCount: 2
Fore
SplineSet
360.69140625 698 m 0
 303.69140625 698 249.69140625 667 214.69140625 648 c 1
 214.69140625 641 214.69140625 638 213.69140625 633 c 1
 193.69140625 667 159.69140625 663 104.69140625 598 c 1
 252.69140625 733 188.69140625 321 193.69140625 106 c 1
 193.69140625 106 265.69140625 85 313.69140625 85 c 1
 283.69140625 602 l 1
 527.69140625 641 496.69140625 506 354.69140625 439 c 1
 669.69140625 323 713.69140625 -28 183.69140625 103 c 1
 106.69140625 166 76.69140625 132 49.69140625 102 c 0
 48.69140625 102 52.69140625 100 20.69140625 108 c 0
 18.69140625 108 36.69140625 102 35.69140625 100 c 0
 35.69140625 98 19.69140625 101 21.69140625 101 c 0
 34.69140625 95 48.69140625 97 48.69140625 97 c 1
 69.69140625 59 108.69140625 34 181.69140625 56 c 1
 745.69140625 -155 805.69140625 318 446.69140625 451 c 1
 633.69140625 606 503.69140625 698 360.69140625 698 c 0
99.69140625 120 m 0
 102.69140625 121 104.69140625 121 106.69140625 121 c 0
 114.69140625 120 120.69140625 116 119.69140625 111 c 0
 119.69140625 106 112.69140625 103 105.69140625 104 c 0
 97.69140625 104 91.69140625 109 92.69140625 113 c 0
 92.69140625 117 95.69140625 119 99.69140625 120 c 0
188.69140625 47 m 1
 313.69140625 10 l 1
 313.69140625 10 285.69140625 0 252.69140625 -1 c 0
 222.69140625 -1 193.69140625 10 193.69140625 10 c 1
 188.69140625 47 l 1
EndSplineSet
Validated: 37
EndChar

StartChar: C
Encoding: 36 67 36
Width: 706
GlyphClass: 1
Flags: W
HStem: 14 53<396.032 526.59> 58 1<656.232 659.036>
LayerCount: 2
Fore
SplineSet
537.232421875 0 m 0x80
 577.232421875 0 626.232421875 23 656.232421875 58 c 1
 663.232421875 58 668.232421875 65 668.232421875 68 c 1
 670.232421875 70 675.232421875 69 681.232421875 64 c 1
 682.232421875 65 l 1
 679.232421875 67 677.232421875 68 676.232421875 69 c 2
 680.232421875 77 l 1
 680.232421875 78 l 1
 675.232421875 69 l 2
 673.232421875 70 669.232421875 71 668.232421875 69 c 0
 665.232421875 63 662.232421875 59 655.232421875 59 c 1x40
 624.232421875 118 553.232421875 115 496.232421875 67 c 1
 40.232421875 66 56.232421875 852 694.232421875 545 c 5
 78.3603515625 1095.14257812 -240.611328125 -13.1240234375 492.232421875 14 c 5
 503.232421875 4 519.232421875 0 537.232421875 0 c 0x80
594.232421875 60 m 0
 586.232421875 60 580.232421875 66 580.232421875 72 c 0
 580.232421875 79 586.232421875 85 594.232421875 85 c 0
 602.232421875 85 609.232421875 79 609.232421875 72 c 0
 609.232421875 66 602.232421875 60 594.232421875 60 c 0
EndSplineSet
Validated: 41
EndChar

StartChar: D
Encoding: 37 68 37
Width: 735
GlyphClass: 1
Flags: W
HStem: 1 56<114.871 150.184> 643 41<89.8043 363.892>
VStem: 79.6152 35<57.0145 79.9849> 193.615 55<517.654 635.078> 236.615 12<-67.191 -42.9033>
LayerCount: 2
Fore
SplineSet
230.615234375 -111 m 1xe0
 237.615234375 -104 l 1
 238.615234375 -106 240.615234375 -108 242.615234375 -110 c 2
 243.615234375 -110 l 1
 237.615234375 -104 235.615234375 -98 237.615234375 -96 c 1
 240.615234375 -95 249.615234375 -82 240.615234375 -72 c 1
 245.615234375 -84 242.615234375 -90 235.615234375 -95 c 0
 234.615234375 -97 236.615234375 -101 237.615234375 -103 c 2
 229.615234375 -111 l 1
 230.615234375 -111 l 1xe0
250.615234375 -143 m 1
 288.615234375 -132 313.615234375 -66 292.615234375 0 c 1
 273.615234375 1 254.615234375 9 224.615234375 18 c 1
 193.615234375 -92 227.615234375 -124 250.615234375 -143 c 1
257.615234375 -68 m 0
 252.615234375 -68 248.615234375 -62 248.615234375 -55 c 0xe8
 248.615234375 -48 252.615234375 -42 257.615234375 -42 c 0
 262.615234375 -42 266.615234375 -48 266.615234375 -55 c 0
 266.615234375 -62 262.615234375 -68 257.615234375 -68 c 0
230.615234375 -68 m 0
 227.615234375 -68 224.615234375 -61 224.615234375 -54 c 0
 224.615234375 -46 227.615234375 -40 230.615234375 -40 c 0
 233.615234375 -40 236.615234375 -46 236.615234375 -54 c 0
 236.615234375 -61 233.615234375 -68 230.615234375 -68 c 0
142.615234375 1 m 1
 165.615234375 0 189.615234375 10 203.615234375 33 c 1
 790.615234375 -188 1016.61523438 826 220.615234375 684 c 1
 167.615234375 686 148.615234375 682 62.615234375 669 c 1
 115.615234375 660 118.615234375 647 200.615234375 643 c 0
 991.615234375 620 539.615234375 15 200.615234375 83 c 1
 168.615234375 117 86.615234375 110 79.615234375 46 c 0
 79.615234375 45 79.615234375 43 79.615234375 41 c 0
 70.615234375 40 66.615234375 45 63.615234375 52 c 0
 62.615234375 54 58.615234375 53 56.615234375 52 c 2
 50.615234375 63 l 1
 50.615234375 62 l 1
 55.615234375 52 l 1
 53.615234375 51 51.615234375 50 49.615234375 48 c 2
 49.615234375 46 l 1
 55.615234375 52 61.615234375 53 62.615234375 51 c 0
 62.615234375 48 70.615234375 36 79.615234375 40 c 1
 82.615234375 18 111.615234375 1 142.615234375 1 c 1
132.615234375 57 m 0
 122.615234375 57 114.615234375 62 114.615234375 68 c 0
 114.615234375 75 122.615234375 80 132.615234375 80 c 0
 142.615234375 80 150.615234375 75 150.615234375 68 c 0
 150.615234375 62 142.615234375 57 132.615234375 57 c 0
278.615234375 83 m 1
 263.615234375 221 329.615234375 175 248.615234375 634 c 1
 236.615234375 637 206.615234375 635 193.615234375 638 c 1xf0
 167.615234375 469 125.615234375 349 225.615234375 83 c 1
 231.615234375 82 272.615234375 83 278.615234375 83 c 1
182.615234375 690 m 1
 188.615234375 692 221.615234375 688 228.615234375 690 c 1
 216.615234375 705 186.615234375 725 161.615234375 732 c 1
 167.615234375 717 177.615234375 705 182.615234375 690 c 1
EndSplineSet
Validated: 41
EndChar

StartChar: E
Encoding: 38 69 38
Width: 473
GlyphClass: 1
Flags: W
HStem: 0 45<385.698 413.49> 55 3<445.788 458.058> 310 42<322.882 360.368> 346 20G<333.693 341.693>
VStem: 78.6934 77<429.9 606.203> 84.6934 81<234.312 313 359.571 476.5>
LayerCount: 2
Fore
SplineSet
334.693359375 0 m 0xc0
 384.693359375 0 448.693359375 14 441.693359375 59 c 0
 432.693359375 106 352.693359375 73 299.693359375 41 c 0
 246.693359375 9 149.693359375 59 149.693359375 59 c 1
 167.693359375 314 l 1
 83.693359375 313 l 1
 84.693359375 213 85.693359375 114 87.693359375 3 c 1
 304.693359375 3 l 2
 312.693359375 1 323.693359375 0 334.693359375 0 c 0xc0
399.693359375 45 m 0
 391.693359375 45 385.693359375 50 385.693359375 55 c 0
 385.693359375 61 391.693359375 65 399.693359375 65 c 0
 408.693359375 65 414.693359375 61 414.693359375 55 c 0
 414.693359375 50 408.693359375 45 399.693359375 45 c 0
452.693359375 55 m 0
 459.693359375 55 464.693359375 62 464.693359375 65 c 0
 465.693359375 67 470.693359375 66 476.693359375 61 c 1
 476.693359375 62 l 2
 474.693359375 64 472.693359375 65 471.693359375 66 c 2
 475.693359375 74 l 1
 475.693359375 75 l 1
 470.693359375 66 l 2
 468.693359375 67 464.693359375 68 463.693359375 66 c 0
 460.693359375 59 456.693359375 55 445.693359375 58 c 1
 447.693359375 56 450.693359375 55 452.693359375 55 c 0
331.693359375 310 m 1xe0
 352.693359375 310 367.693359375 326 377.693359375 346 c 1
 385.693359375 340 392.693359375 351 392.693359375 354 c 0
 393.693359375 356 398.693359375 355 403.693359375 350 c 1
 403.693359375 351 l 2
 401.693359375 353 399.693359375 354 398.693359375 355 c 2
 402.693359375 363 l 1
 401.693359375 364 l 1
 397.693359375 355 l 1
 396.693359375 356 392.693359375 357 392.693359375 355 c 0
 389.693359375 348 385.693359375 344 377.693359375 346 c 0xd0
 377.693359375 347 377.693359375 347 377.693359375 347 c 1
 361.693359375 372 340.693359375 404 290.693359375 364 c 1
 221.693359375 379 46.693359375 332 52.693359375 318 c 1
 290.693359375 327 l 1
 306.693359375 315 319.693359375 310 331.693359375 310 c 1xe0
337.693359375 352 m 0xe0
 329.693359375 352 322.693359375 355 322.693359375 359 c 0
 322.693359375 363 329.693359375 366 337.693359375 366 c 0xd0
 345.693359375 366 352.693359375 363 352.693359375 359 c 0
 352.693359375 355 345.693359375 352 337.693359375 352 c 0xe0
165.693359375 360 m 1xc4
 155.693359375 593 l 1
 210.693359375 650 418.693359375 596 469.693359375 551 c 1
 481.693359375 613 113.693359375 776 78.693359375 656 c 1xc8
 81.693359375 557 83.693359375 431 84.693359375 342 c 1
 126.693359375 353 130.693359375 357 165.693359375 360 c 1xc4
EndSplineSet
Validated: 37
EndChar

StartChar: F
Encoding: 39 70 39
Width: 471
GlyphClass: 1
Flags: W
HStem: 315 60<57.7971 112.464> 365 21G<328.964 335.964> 387 16<320.077 344.693>
VStem: 157.464 58<52.125 86.0403> 464.464 5<514.814 522.328>
LayerCount: 2
Fore
SplineSet
156.463867188 142 m 1x38
 71.4638671875 90 129.463867188 10 167.463867188 2 c 1
 168.463867188 -15 165.463867188 -26 177.463867188 -36 c 0
 180.463867188 -37 156.463867188 1 194.463867188 -41 c 1
 171.463867188 -10 170.463867188 -12 174.463867188 3 c 1
 213.463867188 27 218.463867188 67 215.463867188 132 c 1
 215.463867188 132 222.463867188 327 189.463867188 332 c 0
 167.463867188 335 118.463867188 340 120.463867188 329 c 0
 134.463867188 259 156.463867188 142 156.463867188 142 c 1x38
157.463867188 69 m 0
 158.463867188 60 154.463867188 51 148.463867188 51 c 0
 143.463867188 51 137.463867188 58 137.463867188 68 c 0
 136.463867188 77 140.463867188 86 146.463867188 86 c 0
 151.463867188 87 157.463867188 79 157.463867188 69 c 0
323.463867188 403 m 0
 309.463867188 402 290.463867188 395 265.463867188 374 c 1
 44.4638671875 375 l 1
 48.4638671875 301 68.4638671875 315 112.463867188 315 c 1xb8
 -23.5361328125 362 273.463867188 333 273.463867188 333 c 1
 319.463867188 309 355.463867188 321 386.463867188 380 c 1
 392.463867188 382 395.463867188 378 397.463867188 372 c 0
 398.463867188 370 400.463867188 371 402.463867188 372 c 1
 406.463867188 363 l 1
 406.463867188 364 l 1
 402.463867188 372 l 1
 404.463867188 373 405.463867188 374 407.463867188 376 c 1
 406.463867188 377 l 1
 402.463867188 372 398.463867188 371 398.463867188 373 c 0
 398.463867188 376 392.463867188 384 386.463867188 382 c 0
 363.463867188 385 348.463867188 403 323.463867188 403 c 0
332.463867188 387 m 0
 339.463867188 387 345.463867188 382 345.463867188 376 c 0
 345.463867188 370 339.463867188 365 332.463867188 365 c 0x78
 325.463867188 365 319.463867188 370 319.463867188 376 c 0
 319.463867188 382 325.463867188 387 332.463867188 387 c 0
109.463867188 641 m 0
 119.864257812 438.177734375 117.463867188 382 117.463867188 382 c 1
 193.463867188 382 l 1
 193.463867188 382 147.463867188 550 201.463867188 603 c 0
 259.463867188 661 455.463867188 599 464.463867188 510 c 0
 468.463867188 462 475.905273438 593.081054688 469.463867188 627 c 0
 464.637695312 652.416015625 102.891601562 769.166992188 109.463867188 641 c 0
EndSplineSet
Validated: 37
EndChar

StartChar: G
Encoding: 40 71 40
Width: 592
GlyphClass: 1
Flags: W
HStem: 274 4<221.045 227.002>
LayerCount: 2
Fore
SplineSet
590.001953125 300 m 0
 590.001953125 333 421.001953125 330 340.001953125 319 c 1
 281.001953125 331 272.001953125 324 272.001953125 324 c 2
 237.001953125 323 230.001953125 283 229.001953125 278 c 0
 228.001953125 274 213.001953125 282 210.001953125 284 c 1
 221.001953125 276 l 2
 222.001953125 275 207.001953125 273 207.001953125 273 c 1
 227.001953125 274 l 1
 227.001953125 274 281.001953125 215 342.001953125 274 c 1
 494.001953125 289 592.001953125 199 450.001953125 122 c 1
 -98.998046875 -37 139.001953125 1044 592.001953125 412 c 1
 394.208984375 948.598632812 -81.6904296875 617.837890625 69.001953125 139 c 1
 185.001953125 -76 479.001953125 -26 562.001953125 123 c 1
 590.001953125 201 588.001953125 191 590.001953125 300 c 0
264.001953125 307 m 0
 266.001953125 308 268.001953125 309 271.001953125 310 c 0
 277.001953125 311 283.001953125 308 284.001953125 303 c 0
 284.001953125 299 280.001953125 294 273.001953125 293 c 0
 267.001953125 292 261.001953125 294 260.001953125 299 c 0
 260.001953125 302 261.001953125 305 264.001953125 307 c 0
EndSplineSet
Validated: 41
EndChar

StartChar: H
Encoding: 41 72 41
Width: 554
GlyphClass: 1
Flags: W
HStem: 1 36<61.9822 93.0771 478.232 504.179> 383 20G<152.584 157.231>
VStem: 173.231 65<163.871 255.954 313.842 500.571> 306.231 66<191.412 285.82 333.246 442.26>
LayerCount: 2
Fore
SplineSet
473.231445312 5 m 0
 493.231445312 4 517.231445312 7 547.231445312 16 c 0
 558.231445312 20 569.231445312 21 569.231445312 24 c 1
 570.231445312 26 578.231445312 25 585.231445312 20 c 0
 592.231445312 15 585.231445312 21 585.231445312 21 c 2
 582.231445312 23 580.231445312 24 578.231445312 25 c 0
 576.231445312 25 584.231445312 32 584.231445312 32 c 1
 583.231445312 33 l 1
 577.231445312 25 l 2
 574.231445312 26 569.231445312 27 568.231445312 25 c 0
 564.231445312 19 559.231445312 15 547.231445312 17 c 1
 518.231445312 45 515.231445312 89 431.231445312 75 c 5
 392.76953125 184 386.76953125 208 372.231445312 294 c 5
 359.231445312 294 323.231445312 287 306.231445312 285 c 1
 302.231445312 183 330.984375 100.697265625 384.231445312 51 c 0
 399.231445312 37 418.231445312 7 473.231445312 5 c 0
478.231445312 39 m 1
 478.231445312 39 478.231445312 40 479.231445312 40 c 1
 472.231445312 44 469.231445312 49 470.231445312 52 c 0
 472.231445312 57 481.231445312 58 490.231445312 55 c 0
 499.231445312 51 506.231445312 45 504.231445312 41 c 0
 503.231445312 36 494.231445312 35 484.231445312 38 c 0
 483.231445312 38 481.231445312 39 480.231445312 40 c 0
 479.231445312 40 478.231445312 39 478.231445312 39 c 1
84.2314453125 1 m 0
 102.231445312 0 125.231445312 10 164.231445312 26 c 1
 240.231445312 179 232.231445312 228 238.231445312 266 c 1
 217.231445312 264 200.231445312 259 173.231445312 255 c 5
 168.76953125 212 134.76953125 128 138.231445312 62 c 5
 49.2314453125 81 53.2314453125 66 32.2314453125 37 c 1
 24.2314453125 35 20.2314453125 39 18.2314453125 45 c 0
 17.2314453125 47 13.2314453125 46 11.2314453125 46 c 2
 7.2314453125 54 l 1
 7.2314453125 53 l 1
 11.2314453125 45 l 1
 9.2314453125 45 7.2314453125 44 5.2314453125 42 c 2
 5.2314453125 41 l 1
 11.2314453125 45 16.2314453125 46 17.2314453125 44 c 0
 17.2314453125 42 24.2314453125 33 31.2314453125 36 c 1
 52.2314453125 12 66.2314453125 1 84.2314453125 1 c 0
77.2314453125 41 m 0
 68.2314453125 42 61.2314453125 45 61.2314453125 49 c 0
 61.2314453125 53 69.2314453125 57 78.2314453125 56 c 0
 86.2314453125 56 94.2314453125 52 93.2314453125 48 c 0
 93.2314453125 44 86.2314453125 41 77.2314453125 41 c 0
155.231445312 403 m 1
 157.231445312 400 l 1
 9.248046875 136.0546875 278.913085938 326.037109375 403.231445312 293 c 0
 459.52734375 278.040039062 486.231445312 319 503.231445312 326 c 1
 511.231445312 322 519.231445312 333 519.231445312 336 c 0
 520.231445312 339 525.231445312 337 531.231445312 331 c 1
 531.231445312 333 l 2
 529.231445312 335 527.231445312 337 526.231445312 337 c 1
 530.231445312 347 l 1
 530.231445312 348 l 1
 525.231445312 338 l 2
 523.231445312 338 519.231445312 340 518.231445312 338 c 0
 516.231445312 331 512.231445312 326 506.231445312 327 c 0
 460.231445312 344 429.231445312 360 401.231445312 335 c 1
 238.709960938 313.623046875 124.262695312 282.127929688 146.231445312 335 c 1
 155.231445312 403 l 1
439.231445312 320 m 0
 431.231445312 320 424.231445312 323 425.231445312 327 c 0
 425.231445312 330 431.231445312 333 440.231445312 332 c 0
 448.231445312 332 455.231445312 329 454.231445312 325 c 0
 454.231445312 322 447.231445312 319 439.231445312 320 c 0
240.231445312 315 m 1
 256.231445312 407 184.231445312 640 140.231445312 702 c 1
 156.231445312 637 202.231445312 548 173.231445312 310 c 1
 179.231445312 308 227.231445312 312 240.231445312 315 c 1
307.231445312 326 m 1
 323.231445312 330 362.231445312 332 377.231445312 334 c 1
 376.231445312 582 418.231445312 626 439.231445312 697 c 1
 420.231445312 703 320.231445312 501 307.231445312 326 c 1
EndSplineSet
Validated: 37
EndChar

StartChar: I
Encoding: 42 73 42
Width: 209
GlyphClass: 1
Flags: W
VStem: 107.385 28<57.0455 80.7568>
LayerCount: 2
Fore
SplineSet
133.384765625 -33 m 1
 134.384765625 -33 l 1
 124.384765625 -26 l 1
 126.384765625 -24 129.384765625 -21 127.384765625 -20 c 0
 119.384765625 -15 114.384765625 -10 122.384765625 -1 c 0
 123.384765625 -1 123.384765625 -1 124.384765625 -2 c 0
 176.384765625 13 230.384765625 78 143.384765625 136 c 1
 104.384765625 398 119.384765625 549 127.384765625 698 c 1
 35.384765625 525 29.384765625 318 77.384765625 129 c 1
 35.384765625 98 30.384765625 10 121.384765625 -1 c 1
 110.384765625 -8 121.384765625 -19 125.384765625 -20 c 0
 127.384765625 -22 123.384765625 -27 113.384765625 -31 c 0
 104.384765625 -35 115.384765625 -31 115.384765625 -31 c 2
 119.384765625 -30 121.384765625 -28 123.384765625 -27 c 0
 125.384765625 -26 133.384765625 -33 133.384765625 -33 c 1
150.384765625 57 m 0
 141.384765625 57 135.384765625 64 135.384765625 72 c 0
 135.384765625 80 141.384765625 86 150.384765625 86 c 0
 158.384765625 86 165.384765625 80 165.384765625 72 c 0
 165.384765625 64 158.384765625 57 150.384765625 57 c 0
94.384765625 56 m 0
 87.384765625 56 82.384765625 62 82.384765625 68 c 0
 82.384765625 75 87.384765625 81 94.384765625 81 c 0
 101.384765625 81 107.384765625 75 107.384765625 68 c 0
 107.384765625 62 101.384765625 56 94.384765625 56 c 0
EndSplineSet
Validated: 41
EndChar

StartChar: J
Encoding: 43 74 43
Width: 316
GlyphClass: 1
Flags: W
LayerCount: 2
Fore
SplineSet
36.5390625 314 m 2
 35.5390625 312 34.5390625 311 34.5390625 310 c 0
 33.5390625 308 28.5390625 313 28.5390625 313 c 1
 27.5390625 313 l 1
 34.5390625 309 l 2
 33.5390625 307 32.5390625 305 34.5390625 304 c 0
 38.5390625 302 41.5390625 299 40.5390625 292 c 1
 22.5390625 286 10.5390625 253 27.5390625 178 c 1
 -19.4609375 -102 549.5390625 -134 215.5390625 700 c 1
 241.5390625 326 233.34765625 322.927734375 222.5390625 206 c 0
 211.5390625 87 89.5390625 57 68.5390625 175 c 1
 119.5390625 231 80.5390625 293 48.5390625 294 c 0
 46.5390625 294 43.5390625 293 41.5390625 293 c 1
 44.5390625 299 36.5390625 305 34.5390625 305 c 0
 33.5390625 305 34.5390625 309 37.5390625 314 c 0
 41.5390625 318 36.5390625 314 36.5390625 314 c 2
62.5390625 254 m 1
 69.5390625 247 71.5390625 251 72.5390625 240 c 0
 70.5390625 229 69.5390625 231 62.5390625 226 c 1
 55.5390625 236 59.5390625 232 56.5390625 240 c 0
 57.5390625 251 57.5390625 246 62.5390625 254 c 1
EndSplineSet
Validated: 37
EndChar

StartChar: K
Encoding: 44 75 44
Width: 501
GlyphClass: 1
Flags: W
HStem: 0 46<65.2736 85.6126> 377 21G<152.116 214.116>
VStem: 85.6162 8<52.4404 71.356>
LayerCount: 2
Fore
SplineSet
108.616210938 -32 m 1
 109.616210938 -31 l 1
 101.616210938 -25 l 1
 103.616210938 -23 105.616210938 -20 103.616210938 -18 c 0
 97.6162109375 -13 93.6162109375 -8 99.6162109375 1 c 1
 132.616210938 17 165.616210938 79 110.616210938 137 c 1
 120.616210938 201 135.616210938 232 166.616210938 321 c 1
 192.616210938 259 162.616210938 253 329.616210938 70 c 1
 356.616210938 -28 415.616210938 -5 491.616210938 8 c 1
 497.616210938 1 509.616210938 5 511.616210938 7 c 1
 513.616210938 8 517.616210938 4 520.616210938 -3 c 0
 522.616210938 -10 521.616210938 -2 521.616210938 -2 c 2
 520.616210938 1 519.616210938 3 518.616210938 4 c 1
 527.616210938 8 l 1
 527.616210938 9 l 1
 517.616210938 5 l 2
 516.616210938 6 513.616210938 9 511.616210938 8 c 0
 504.616210938 5 498.616210938 3 491.616210938 9 c 1
 492.616210938 50 449.616210938 111 388.616210938 102 c 1
 260.616210938 317 l 1
 349.616210938 656 339.616210938 742 473.616210938 517 c 1
 375.616210938 846 263.616210938 685 164.616210938 377 c 1
 139.616210938 478 127.616210938 518 81.6162109375 700 c 1
 44.6162109375 449 45.6162109375 277 66.6162109375 146 c 1
 33.6162109375 111 38.6162109375 10 98.6162109375 0 c 1
 90.6162109375 -7 99.6162109375 -18 102.616210938 -19 c 0
 104.616210938 -20 101.616210938 -25 94.6162109375 -29 c 0
 87.6162109375 -34 95.6162109375 -30 95.6162109375 -30 c 2
 98.6162109375 -28 100.616210938 -27 101.616210938 -25 c 0
 102.616210938 -24 108.616210938 -32 108.616210938 -32 c 1
427.616210938 47 m 0
 422.616210938 47 416.616210938 49 411.616210938 53 c 0
 404.616210938 60 402.616210938 70 408.616210938 75 c 0
 413.616210938 79 424.616210938 78 431.616210938 71 c 0
 439.616210938 64 440.616210938 54 435.616210938 50 c 0
 433.616210938 48 430.616210938 47 427.616210938 47 c 0
73.6162109375 46 m 0
 67.6162109375 46 62.6162109375 53 62.6162109375 61 c 0
 62.6162109375 69 67.6162109375 75 73.6162109375 75 c 0
 80.6162109375 75 85.6162109375 69 85.6162109375 61 c 0
 85.6162109375 53 80.6162109375 46 73.6162109375 46 c 0
105.616210938 48 m 0
 98.6162109375 48 93.6162109375 56 93.6162109375 64 c 0
 93.6162109375 73 98.6162109375 80 105.616210938 80 c 0
 112.616210938 80 118.616210938 73 118.616210938 64 c 0
 118.616210938 56 112.616210938 48 105.616210938 48 c 0
EndSplineSet
Validated: 37
EndChar

StartChar: L
Encoding: 45 76 45
Width: 440
GlyphClass: 1
Flags: W
HStem: 2 51<357.385 387.968>
VStem: 411.385 25<108.048 128.999>
LayerCount: 2
Fore
SplineSet
436.384765625 56 m 0
 440.384765625 142 393.384765625 165 381.384765625 186 c 0
 382.384765625 192 377.384765625 198 376.384765625 199 c 1
 375.384765625 200 376.384765625 205 379.384765625 209 c 1
 378.384765625 210 l 1
 377.384765625 208 376.384765625 206 376.384765625 205 c 1
 371.384765625 209 l 1
 370.384765625 209 l 1
 375.384765625 204 l 2
 375.384765625 202 374.384765625 199 375.384765625 198 c 0
 378.384765625 195 380.384765625 192 380.384765625 186 c 0
 366.384765625 135 342.384765625 110 388.384765625 53 c 1
 144.384765625 55 l 1
 210.384765625 400 78.384765625 573 96.384765625 696 c 1
 46.384765625 707 64.384765625 231 59.384765625 2 c 1
 357.384765625 2 l 2
 391.384765625 3 430.384765625 -15 435.384765625 48 c 0
 435.384765625 51 436.384765625 54 436.384765625 56 c 0
411.384765625 115 m 0
 411.384765625 111 410.384765625 109 408.384765625 108 c 0
 404.384765625 106 398.384765625 113 395.384765625 123 c 0
 391.384765625 133 391.384765625 142 395.384765625 144 c 0
 398.384765625 145 404.384765625 139 408.384765625 129 c 0
 410.384765625 124 411.384765625 119 411.384765625 115 c 0
EndSplineSet
Validated: 41
EndChar

StartChar: M
Encoding: 46 77 46
Width: 561
GlyphClass: 1
Flags: W
LayerCount: 2
Fore
SplineSet
460.000976562 704 m 1
 344.579101562 470.142578125 290.754882812 442.096679688 126.000976562 704 c 1
 280.454101562 -171.16796875 31.4267578125 109.674804688 10.0009765625 114 c 1
 155.000976562 -195 341.000976562 194 236.000976562 482 c 1
 301.000976562 342 340.000976562 282 400.000976562 480 c 1
 407.000976562 356 364.000976562 276 475.000976562 123 c 1
 474.000976562 77 494.000976562 15 540.000976562 7 c 1
 546.000976562 -1 558.000976562 5 559.000976562 8 c 0
 560.000976562 9 565.000976562 6 568.000976562 0 c 1
 569.000976562 1 l 2
 568.000976562 3 566.000976562 5 565.000976562 6 c 1
 572.000976562 12 l 1
 572.000976562 13 l 1
 565.000976562 7 l 2
 563.000976562 8 560.000976562 10 558.000976562 9 c 0
 553.000976562 4 548.000976562 2 541.000976562 7 c 1
 542.000976562 7 542.000976562 7 543.000976562 7 c 0
 547.000976562 47 581.000976562 112 510.000976562 153 c 1
 473.000976562 397 502.000976562 538 460.000976562 704 c 1
522.000976562 97 m 0
 526.000976562 96 531.000976562 93 533.000976562 88 c 0
 537.000976562 82 536.000976562 74 532.000976562 72 c 0
 527.000976562 70 521.000976562 73 517.000976562 80 c 0
 514.000976562 86 515.000976562 93 519.000976562 96 c 0
 520.000976562 96 521.000976562 97 522.000976562 97 c 0
EndSplineSet
Validated: 41
EndChar

StartChar: N
Encoding: 47 78 47
Width: 496
GlyphClass: 1
Flags: W
HStem: 702 2<501.555 507.228>
LayerCount: 2
Fore
SplineSet
400.4609375 0 m 0
 426.4609375 5 476.4609375 178 456.4609375 550 c 1
 533.4609375 597 489.4609375 658 479.4609375 699 c 1
 488.4609375 692 501.4609375 700 502.4609375 702 c 0
 503.4609375 704 510.4609375 701 515.4609375 696 c 1
 515.4609375 697 l 2
 513.4609375 699 511.4609375 700 510.4609375 701 c 1
 517.4609375 708 l 1
 517.4609375 709 l 1
 509.4609375 702 l 2
 507.4609375 703 503.4609375 705 501.4609375 704 c 0
 495.4609375 698 490.4609375 695 479.4609375 700 c 1
 479.4609375 701 l 1
 424.4609375 692 406.4609375 626 412.4609375 577 c 1
 359.4609375 447 356.4609375 352 361.4609375 226 c 1
 228.4609375 1003 -37.5390625 740 55.4609375 6 c 1
 205.4609375 1237 252.4609375 -28 400.4609375 0 c 0
448.4609375 629 m 2
 447.4609375 629 l 2
 441.4609375 630 437.4609375 638 438.4609375 647 c 0
 439.4609375 656 445.4609375 663 450.4609375 662 c 0
 456.4609375 661 460.4609375 653 459.4609375 644 c 0
 458.4609375 636 453.4609375 630 448.4609375 629 c 2
EndSplineSet
Validated: 41
EndChar

StartChar: O
Encoding: 48 79 48
Width: 597
GlyphClass: 1
Flags: W
LayerCount: 2
Fore
SplineSet
340.3359375 675.392578125 m 5
 626.672851562 576.717773438 638.041992188 214.765625 473 62 c 5
 402.6171875 9.673828125 245.916015625 -47.04296875 122.950195312 66.388671875 c 1
 -193.860351562 403.232421875 197.475585938 649.744140625 191.56640625 653.712890625 c 1
 191.56640625 653.712890625 184.513671875 651.680664062 181.380859375 646.666015625 c 0
 178.354492188 645.651367188 176.327148438 644.642578125 174.327148438 644.6328125 c 2
 169.114257812 636.608398438 l 1
 169.141601562 637.609375 l 1
 173.354492188 645.62890625 l 1
 171.354492188 645.619140625 167.354492188 645.600585938 167.43359375 648.6015625 c 2
 167.43359375 648.6015625 178.247070312 641.651367188 183.513671875 651.67578125 c 0
 188.59375 654.69921875 186.673828125 657.690429688 191.7265625 659.713867188 c 0
 245.721679688 734.96484375 315.735351562 690.279296875 340.3359375 675.392578125 c 5
267.443359375 687.064453125 m 0
 256.443359375 687.013671875 247.336914062 682.971679688 247.23046875 678.970703125 c 0
 247.125 674.970703125 256.018554688 671.01171875 267.018554688 671.0625 c 0
 278.018554688 671.11328125 287.125 675.155273438 287.23046875 679.15625 c 0
 287.336914062 683.15625 278.443359375 687.115234375 267.443359375 687.064453125 c 0
192.513671875 651.717773438 m 1
 182.02734375 667.2109375 -66.56640625 339.284179688 212.635742188 167.805664062 c 1
 267.499023438 133.877929688 327.252929688 119.227539062 410.713867188 171.72265625 c 0
 558.4140625 264.620117188 505.78125 588.166992188 327.713867188 622.342773438 c 1
 289.395507812 610.165039062 256.15625 601.01171875 192.513671875 651.717773438 c 1
EndSplineSet
Validated: 37
EndChar

StartChar: P
Encoding: 49 80 49
Width: 524
GlyphClass: 1
Flags: W
HStem: 382 318<176.537 396>
VStem: 166 81<132.842 330> 177.537 38<610 662.646 703.619 772.938> 189 7<32.4737 51.5263>
LayerCount: 2
Fore
SplineSet
195.537109375 777 m 1xa0
 188.537109375 756 179.537109375 724 177.537109375 698 c 1
 188.537109375 702 201.537109375 703 213.537109375 704 c 5
 213.537109375 723 200.537109375 758 195.537109375 777 c 1xa0
236.537109375 700 m 1
 176.537109375 699 99.537109375 677 64.537109375 606 c 1
 203.537109375 757 456.236328125 609.90625 447 496 c 0
 444 459 396 372 152 382 c 1
 121 401 73 398 55 353 c 1
 50 349 45 350 40 354 c 0
 39 354 37 352 35 351 c 2
 28 355 l 1
 28 354 l 1
 35 350 l 1
 34 349 33 347 32 345 c 2
 33 344 l 1
 35 350 39 353 40 352 c 0
 41 350 52 346 56 353 c 1
 74 350 88 310 163 345 c 1
 230.178710938 325.206054688 382.03515625 347.473632812 382 346 c 1
 467 367 498.025390625 406.111328125 513 443 c 0
 554 544 432.537109375 701 236.537109375 700 c 1
215.537109375 664 m 1
 201.537109375 664 186.537109375 663 177.537109375 662 c 1
 159 386 l 1
 189 387 215 385 241 389 c 1
 215.537109375 664 l 1
97 376 m 0
 105 378 111 377 112 373 c 0
 113 370 108 365 101 363 c 0
 94 361 87 362 86 366 c 0
 85 370 90 374 97 376 c 0
247 330 m 1xc0
 226 328 189 332 166 337 c 1xc0
 159 201 163 247 184 95 c 1
 161 62 164 23 193 0 c 0
 195 -6 193 -9 189 -12 c 0x90
 188 -13 190 -15 191 -17 c 2
 186 -21 l 1
 191 -17 l 2
 192 -18 193 -19 194 -20 c 2
 195 -20 l 1
 191 -17 189 -13 190 -12 c 0
 192 -12 197 -5 194 0 c 1
 227 15 249 36 218 93 c 1
 235 199 260 207 247 330 c 1xc0
203 53 m 0
 208 53 211 48 211 42 c 0
 211 36 208 31 203 31 c 0
 199 31 196 36 196 42 c 0x90
 196 48 199 53 203 53 c 0
183 53 m 0
 187 53 189 48 189 42 c 0
 189 36 187 31 183 31 c 0
 180 31 177 36 177 42 c 0
 177 48 180 53 183 53 c 0
EndSplineSet
Validated: 37
EndChar

StartChar: Q
Encoding: 50 81 50
Width: 697
GlyphClass: 1
Flags: W
HStem: -77 1<479 484> -73 1<469.114 477.087> 0 119<280.371 294.404 344.991 397> 640 14<312.643 346.104> 673 28<309.179 346.794>
VStem: 478 1<-80.907 -77>
LayerCount: 2
Fore
SplineSet
338 701 m 1
 308 700 284 683 270 640 c 1
 263 642 256 634 256 632 c 0
 255 630 250 631 245 635 c 1
 245 634 l 2
 247 632 249 631 250 631 c 1
 246 623 l 1
 246 622 l 1
 251 630 l 2
 253 630 256 629 257 631 c 0
 260 636 263 640 270 639 c 1
 295 605 351 572 396 615 c 1
 567 582 673.262695312 302.184570312 483 169 c 0
 423 127 409 117 347 119 c 1
 328 100 412 32 441 0 c 1
 833 118 738 598 457 633 c 1
 431 648 359 701 338 701 c 1
290 695 m 1
 -30 738 -188 38 397 2 c 1
 363 48 317 68 292 122 c 1
 42 143 -88 628 290 695 c 1
328 673 m 0
 338 673 347 669 347 664 c 0
 347 658 338 654 328 654 c 0
 318 654 309 658 309 664 c 0
 309 669 318 673 328 673 c 0
331 640 m 0
 342 640 351 636 351 631 c 0
 351 626 342 622 331 622 c 0
 321 622 312 626 312 631 c 0
 312 636 321 640 331 640 c 0
401 157 m 1
 188 138 378 67 415 -18 c 1
 421 -61 456 -60 465 -68 c 0
 466 -74 474 -74 476 -73 c 0
 478 -73 479 -77 478 -81 c 1
 479 -79 479 -78 479 -77 c 2
 484 -76 l 1
 479 -76 l 1
 479 -75 478 -72 477 -72 c 0
 471 -73 467 -73 466 -65 c 1
 462 -35 469 -9 433 -4 c 1
 370 72 310 104 346 125 c 1
 401 157 l 1
447 -14 m 2
 450 -15 452 -17 453 -20 c 0
 455 -25 454 -29 451 -30 c 0
 448 -31 445 -28 443 -24 c 0
 442 -20 443 -16 446 -15 c 2
 447 -14 l 2
432 -21 m 2
 435 -21 437 -23 439 -26 c 0
 441 -30 441 -34 439 -36 c 0
 436 -37 432 -35 430 -31 c 0
 427 -27 428 -23 430 -21 c 0
 431 -21 432 -21 432 -21 c 2
EndSplineSet
Validated: 41
EndChar

StartChar: R
Encoding: 51 82 51
Width: 553
GlyphClass: 1
Flags: W
VStem: 114.307 47<569.889 625.119> 114.307 16<28.1609 45.4954>
LayerCount: 2
Fore
SplineSet
82.306640625 714 m 1x00
 101.306640625 687 128.306640625 702 117.306640625 659 c 1
 134.306640625 665 140.306640625 669 156.306640625 672 c 1
 147.306640625 701 143.306640625 692 82.306640625 714 c 1x00
49.306640625 619 m 1
 542.306640625 720 487.306640625 357 184.306640625 398 c 1
 -36.693359375 437 257.306640625 189 411.306640625 29 c 1
 451.306640625 -5 522.306640625 -22 558.306640625 21 c 1
 566.306640625 24 572.306640625 20 579.306640625 14 c 0
 581.306640625 12 585.306640625 14 587.306640625 15 c 2
 596.306640625 7 l 1
 596.306640625 8 l 1
 587.306640625 16 l 1
 589.306640625 17 590.306640625 18 592.306640625 20 c 2
 591.306640625 22 l 1
 587.306640625 16 581.306640625 14 579.306640625 16 c 0
 578.306640625 18 564.306640625 27 556.306640625 21 c 1
 530.306640625 32 557.306640625 77 442.306640625 69 c 1
 258.306640625 425 112.306640625 334 272.306640625 343 c 0
 788.306640625 373 520.306640625 890 49.306640625 619 c 1
114.306640625 624 m 1x80
 94.306640625 389 l 1
 107.306640625 428 174.306640625 402 188.306640625 401 c 1
 161.306640625 629 l 1
 152.306640625 631 120.306640625 625 114.306640625 624 c 1x80
97.306640625 387 m 1
 95.306640625 383 97.306640625 387 97.306640625 387 c 1
106.306640625 88 m 1
 30.306640625 36 82.306640625 16 118.306640625 -7 c 0
 121.306640625 -13 119.306640625 -16 114.306640625 -19 c 0x40
 113.306640625 -20 114.306640625 -22 115.306640625 -23 c 1
 109.306640625 -28 l 1
 110.306640625 -28 l 1
 116.306640625 -24 l 2
 117.306640625 -25 118.306640625 -26 120.306640625 -27 c 2
 121.306640625 -27 l 1
 116.306640625 -24 114.306640625 -20 115.306640625 -19 c 0
 117.306640625 -19 124.306640625 -12 119.306640625 -7 c 1
 162.306640625 9 213.306640625 23 150.306640625 86 c 1
 172.306640625 193 156.306640625 128 175.306640625 257 c 1
 129.306640625 307 108.306640625 330 93.306640625 374 c 1
 93.306640625 374 79.306640625 240 106.306640625 88 c 1
140.306640625 46 m 0
 146.306640625 46 151.306640625 41 151.306640625 34 c 0
 151.306640625 27 146.306640625 21 140.306640625 21 c 0
 135.306640625 21 130.306640625 27 130.306640625 34 c 0
 130.306640625 41 135.306640625 46 140.306640625 46 c 0
105.306640625 55 m 0
 110.306640625 55 114.306640625 49 114.306640625 42 c 0
 114.306640625 34 110.306640625 28 105.306640625 28 c 0
 100.306640625 28 96.306640625 34 96.306640625 42 c 0
 96.306640625 49 100.306640625 55 105.306640625 55 c 0
491.306640625 51 m 0
 493.306640625 51 496.306640625 51 498.306640625 50 c 0
 505.306640625 48 511.306640625 43 510.306640625 39 c 0
 510.306640625 35 503.306640625 33 496.306640625 35 c 0
 488.306640625 37 483.306640625 42 483.306640625 46 c 0
 484.306640625 49 487.306640625 51 491.306640625 51 c 0
EndSplineSet
Validated: 37
EndChar

StartChar: S
Encoding: 52 83 52
Width: 518
GlyphClass: 1
Flags: W
LayerCount: 2
Fore
SplineSet
347.616210938 4 m 0
 497.616210938 3 584.616210938 319 323.616210938 375 c 1
 -66.3837890625 414 241.616210938 873 424.616210938 479 c 1
 285.616210938 995 -160.383789062 477 179.616210938 329 c 1
 554.616210938 251 329.616210938 -7 180.616210938 152 c 0
 145.616210938 190 111.616210938 250 27.6162109375 208 c 0
 22.6162109375 208 29.6162109375 208 27.6162109375 212 c 0
 26.6162109375 214 22.6162109375 214 20.6162109375 214 c 2
 15.6162109375 219 l 1
 5.6162109375 225 l 1
 17.6162109375 214 l 1
 16.6162109375 213 15.6162109375 213 12.6162109375 212 c 2
 0.6162109375 208 l 1
 11.6162109375 211 24.6162109375 213 25.6162109375 211 c 1
 25.6162109375 209 20.6162109375 206 25.6162109375 206 c 1
 35.6162109375 146 21.6162109375 121 150.616210938 102 c 1
 190.616210938 69 189.616210938 5 347.616210938 4 c 0
95.6162109375 133 m 0
 90.6162109375 133 84.6162109375 134 79.6162109375 137 c 0
 68.6162109375 143 62.6162109375 151 64.6162109375 157 c 0
 67.6162109375 162 78.6162109375 161 88.6162109375 156 c 0
 99.6162109375 150 105.616210938 142 103.616210938 136 c 0
 102.616210938 134 99.6162109375 133 95.6162109375 133 c 0
107.616210938 174 m 0
 103.616210938 174 99.6162109375 175 95.6162109375 176 c 0
 86.6162109375 181 81.6162109375 189 84.6162109375 195 c 0
 88.6162109375 200 98.6162109375 202 108.616210938 197 c 0
 118.616210938 193 122.616210938 185 119.616210938 179 c 0
 117.616210938 176 113.616210938 174 107.616210938 174 c 0
56.6162109375 19 m 1
 56.6162109375 19 l 1
EndSplineSet
Validated: 41
EndChar

StartChar: T
Encoding: 53 84 53
Width: 783
GlyphClass: 1
Flags: W
HStem: 44 14<192.078 219.526> 670 30<98.9994 195.88>
VStem: 851.231 3<645.847 647>
LayerCount: 2
Fore
SplineSet
365.231445312 696 m 1
 392.231445312 583 568.231445312 7 257.231445312 77 c 1
 229.231445312 97 174.231445312 102 156.231445312 40 c 1
 141.231445312 39 l 1
 128.231445312 46 l 1
 128.231445312 45 l 1
 140.231445312 38 l 1
 131.231445312 27 l 1
 132.231445312 26 l 1
 141.231445312 37 l 1
 156.231445312 38 l 1
 174.231445312 -6 250.231445312 -20 263.231445312 19 c 1
 346.231445312 -2 l 1
 743.58984375 -18.123046875 399.818359375 643.14453125 365.231445312 696 c 1
720.231445312 700 m 1
 691.231445312 699 665.231445312 669 627.231445312 638 c 1
 528.231445312 610 452.231445312 649 395.231445312 663 c 1
 405.231445312 641 438.231445312 567 450.231445312 538 c 1
 492.231445312 535 532.231445312 544 628.231445312 579 c 1
 739.231445312 546 789.231445312 572 819.231445312 631 c 1
 831.231445312 635 837.231445312 632 845.231445312 633 c 0
 848.231445312 630 857.231445312 636 863.231445312 628 c 1
 861.231445312 632 l 1
 847.231445312 634 l 1
 854.231445312 649 l 1
 851.231445312 647 l 2
 850.231445312 642 848.231445312 638 846.231445312 636 c 0
 842.231445312 633 827.3671875 629.866210938 822.231445312 636 c 0
 786.231445312 679 753.231445312 701 724.231445312 699 c 1
 720.231445312 700 l 1
863.231445312 628 m 1
 865.231445312 627 l 1
 864.231445312 627 864.231445312 628 863.231445312 628 c 1
166.231445312 700 m 0
 119.231445312 699 89.2314453125 694 17.2314453125 670 c 1
 310.231445312 679 311.231445312 570 392.231445312 548 c 1
 385.231445312 576 370.231445312 641 364.231445312 663 c 1
 296.231445312 682 256.216796875 701.915039062 166.231445312 700 c 0
739.231445312 657 m 0
 742.231445312 657 745.231445312 656 748.231445312 655 c 0
 756.231445312 651 759.231445312 643 754.231445312 638 c 0
 749.231445312 633 738.231445312 632 730.231445312 636 c 0
 722.231445312 640 720.231445312 648 725.231445312 653 c 0
 728.231445312 656 733.231445312 658 739.231445312 657 c 0
750.231445312 620 m 0
 753.231445312 620 756.231445312 620 759.231445312 618 c 0
 766.231445312 614 768.231445312 606 763.231445312 601 c 0
 757.231445312 595 747.231445312 594 740.231445312 598 c 0
 732.231445312 601 731.231445312 609 736.231445312 615 c 0
 739.231445312 618 744.231445312 620 750.231445312 620 c 0
204.231445312 77 m 0
 213.231445312 77 220.231445312 73 220.231445312 68 c 0
 220.231445312 62 213.231445312 58 204.231445312 58 c 0
 195.231445312 58 188.231445312 62 188.231445312 68 c 0
 188.231445312 73 195.231445312 77 204.231445312 77 c 0
206.231445312 44 m 0
 214.231445312 44 221.231445312 40 221.231445312 34 c 0
 221.231445312 28 214.231445312 23 206.231445312 23 c 0
 198.231445312 23 191.231445312 28 191.231445312 34 c 0
 191.231445312 40 198.231445312 44 206.231445312 44 c 0
EndSplineSet
Validated: 37
EndChar

StartChar: U
Encoding: 54 85 54
Width: 585
GlyphClass: 1
Flags: W
HStem: 42 1<600.769 618.769>
LayerCount: 2
Fore
SplineSet
612.768554688 43 m 1
 613.768554688 43 l 2
 616.768554688 43 620.768554688 45 620.768554688 45 c 1
 613.768554688 43 l 1
 611.768554688 43 l 1
 600.768554688 43 l 1
 612.768554688 42 l 1
 618.768554688 41 l 1
 618.768554688 41 615.768554688 42 612.768554688 43 c 1
515.768554688 117 m 0
 521.768554688 117 529.768554688 114 532.768554688 112 c 0
 539.768554688 108 548.768554688 99 544.768554688 90 c 0
 539.768554688 82 519.768554688 93 519.768554688 93 c 2
 513.768554688 95 504.768554688 103 507.768554688 112 c 0
 508.768554688 116 511.768554688 117 515.768554688 117 c 0
618.768554688 42 m 1
 619.768554688 41 619.768554688 40 619.768554688 40 c 1
 621.768554688 40 l 1
 618.768554688 42 l 1
101.768554688 700 m 1
 98.6796875 449.599609375 -31.2314453125 238 46.7685546875 132 c 0
 174.270507812 -41.2724609375 347.768554688 12 376.768554688 43 c 0
 415.768554688 83 392.768554688 95 431.768554688 36 c 1
 481.768554688 -17 524.768554688 -7 587.768554688 43 c 1
 571.768554688 87 579.768554688 125 497.768554688 153 c 0
 486.768554688 157 465.768554688 155 454.768554688 156 c 1
 471.768554688 1058 275.768554688 698 314.768554688 151 c 0
 319.961914062 78.1572265625 181.774414062 88.005859375 143.768554688 121 c 0
 52.7685546875 200 126.768554688 623 101.768554688 700 c 1
EndSplineSet
Validated: 37
EndChar

StartChar: V
Encoding: 55 86 55
Width: 463
GlyphClass: 1
Flags: W
HStem: 640 36<363.114 401.659>
LayerCount: 2
Fore
SplineSet
399.229492188 702 m 1
 405.229492188 696 l 1
 406.229492188 697 408.229492188 698 410.229492188 700 c 1
 411.229492188 699 l 1
 405.229492188 696 402.229492188 691 404.229492188 690 c 0
 406.229492188 689 412.229492188 680 407.229492188 674 c 1
 434.229492188 667 451.229492188 628 424.229492188 537 c 1
 522.229492188 318 422.229492188 124 246.229492188 0 c 1
 118.229492188 93 35.2294921875 406 48.2294921875 748 c 1
 87.2294921875 535 196.229492188 226 258.229492188 121 c 1
 334.229492188 259 415.229492188 321 367.229492188 535 c 1
 296.229492188 602 353.229492188 676 397.229492188 676 c 0
 400.229492188 676 403.229492188 675 406.229492188 675 c 0
 410.229492188 681 407.229492188 685 403.229492188 690 c 0
 401.229492188 691 403.229492188 694 405.229492188 695 c 1
 398.229492188 702 l 1
 399.229492188 702 l 1
375.229492188 640 m 0
 368.229492188 640 362.229492188 633 362.229492188 624 c 0
 362.229492188 615 368.229492188 608 375.229492188 608 c 0
 382.229492188 608 388.229492188 615 388.229492188 624 c 0
 388.229492188 633 382.229492188 640 375.229492188 640 c 0
EndSplineSet
Validated: 33
EndChar

StartChar: W
Encoding: 56 87 56
Width: 700
GlyphClass: 1
Flags: W
HStem: 721 1<704.632 707.155>
VStem: 586.155 68<185.282 560.15>
LayerCount: 2
Fore
SplineSet
696.155273438 730 m 1
 699.155273438 720 l 2
 697.155273438 719 694.155273438 717 694.155273438 716 c 0
 697.155273438 709 697.155273438 703 690.155273438 698 c 1
 636.155273438 692 613.155273438 627 614.155273438 578 c 1
 550.98046875 464.412109375 559.474609375 347.927734375 559.155273438 354 c 1
 471.155273438 652 341.155273438 553 270.155273438 345 c 1
 329.155273438 625 135.155273438 842 36.1552734375 589 c 1
 311.155273438 872 93.1552734375 156 210.155273438 0 c 1
 352.796875 470.348632812 480.095703125 560.150390625 586.155273438 6 c 1
 695.155273438 240 653.155273438 340 654.155273438 547 c 1
 733.155273438 589 695.155273438 655 691.155273438 697 c 1
 699.155273438 701 698.155273438 713 696.155273438 715 c 0
 695.155273438 717 700.155273438 720 707.155273438 721 c 0
 715.155273438 722 707.155273438 722 707.155273438 722 c 1
 704.155273438 722 701.155273438 721 700.155273438 721 c 0
 698.155273438 720 697.155273438 730 697.155273438 730 c 1
 696.155273438 730 l 1
660.155273438 666 m 0
 661.155273438 666 661.155273438 666 662.155273438 665 c 0
 669.155273438 664 673.155273438 657 671.155273438 649 c 0
 669.155273438 641 663.155273438 635 656.155273438 636 c 0
 650.155273438 638 646.155273438 645 647.155273438 653 c 0
 649.155273438 660 654.155273438 665 660.155273438 666 c 0
EndSplineSet
Validated: 37
EndChar

StartChar: X
Encoding: 57 88 57
Width: 538
GlyphClass: 1
Flags: W
HStem: -4 1<530.952 538.863> 1 57<73.9131 104.842 501.851 529.842> 89 44<501.851 526.139>
VStem: 144.847 43<32.1914 65.9942> 420.847 36<34.0546 62.9949> 540.847 1<-16 -7.09536>
LayerCount: 2
Fore
SplineSet
70.8466796875 -28 m 1
 67.8466796875 -19 l 2
 69.8466796875 -18 72.8466796875 -16 72.8466796875 -14 c 0
 70.8466796875 -8 69.8466796875 -3 75.8466796875 1 c 0
 135.846679688 3 192.846679688 8 187.846679688 114 c 1
 295.846679688 285 l 1
 247.846679688 360 l 1
 117.846679688 139 l 1
 18.8466796875 106 47.8466796875 54 73.8466796875 2 c 1
 68.8466796875 -2 69.8466796875 -12 70.8466796875 -14 c 0
 71.8466796875 -16 67.8466796875 -19 59.8466796875 -20 c 0
 52.8466796875 -20 60.8466796875 -21 60.8466796875 -21 c 2
 63.8466796875 -20 65.8466796875 -20 67.8466796875 -19 c 0
 68.8466796875 -19 69.8466796875 -28 69.8466796875 -28 c 1
 70.8466796875 -28 l 1
540.846679688 -16 m 0
 539.846679688 -23 541.846679688 -16 541.846679688 -16 c 1
 541.846679688 -13 541.846679688 -11 541.846679688 -9 c 0
 541.846679688 -8 550.846679688 -9 550.846679688 -9 c 1
 550.846679688 -8 l 1
 541.846679688 -9 l 1
 541.846679688 -7 540.846679688 -3 538.846679688 -3 c 0
 532.846679688 -4 527.846679688 -3 524.846679688 3 c 1
 549.846679688 53 542.846679688 134 484.846679688 133 c 5
 398.921875 349.875 278.499023438 522.60546875 164.846679688 704 c 1
 65.8466796875 687 99.8466796875 628 67.8466796875 559 c 1
 131.846679688 694 159.846679688 522 191.846679688 462 c 1
 420.846679688 109 l 1
 425.846679688 -16 469.846679688 3 523.846679688 2 c 1
 526.846679688 -4 535.846679688 -5 537.846679688 -4 c 1
 539.846679688 -4 541.846679688 -9 540.846679688 -16 c 0
128.846679688 32 m 0
 120.846679688 32 113.846679688 40 113.846679688 49 c 0
 113.846679688 58 120.846679688 66 128.846679688 66 c 0
 137.846679688 66 144.846679688 58 144.846679688 49 c 0
 144.846679688 40 137.846679688 32 128.846679688 32 c 0
471.846679688 32 m 0
 463.846679688 32 456.846679688 39 456.846679688 47 c 0
 456.846679688 56 463.846679688 63 471.846679688 63 c 0
 479.846679688 63 486.846679688 56 486.846679688 47 c 0
 486.846679688 39 479.846679688 32 471.846679688 32 c 0
89.8466796875 58 m 0
 80.8466796875 58 73.8466796875 66 73.8466796875 75 c 0
 73.8466796875 85 80.8466796875 92 89.8466796875 92 c 0
 97.8466796875 92 104.846679688 85 104.846679688 75 c 0
 104.846679688 66 97.8466796875 58 89.8466796875 58 c 0
515.846679688 59 m 0
 507.846679688 59 501.846679688 65 501.846679688 74 c 0
 501.846679688 82 507.846679688 89 515.846679688 89 c 0
 522.846679688 89 529.846679688 82 529.846679688 74 c 0
 529.846679688 65 522.846679688 59 515.846679688 59 c 0
363.846679688 401 m 1
 421.846679688 527 l 1
 478.846679688 658 508.846679688 630 545.846679688 594 c 1
 512.846679688 666 562.846679688 679 454.846679688 698 c 1
 315.846679688 477 l 1
 363.846679688 401 l 1
EndSplineSet
Validated: 37
EndChar

StartChar: Y
Encoding: 58 89 58
Width: 449
GlyphClass: 1
Flags: W
HStem: 1 50<72.8369 96.689> 257 1<430.18 432.693> 317 4<363.693 364.693>
VStem: 96.6934 8<55 60.8229> 371.693 45<287.057 331.892> 421.693 1<250 259>
LayerCount: 2
Fore
SplineSet
447.693359375 700 m 5
 292.693359375 604 195.693359375 342 121.693359375 134 c 1
 42.693359375 76 57.693359375 54 80.693359375 1 c 0
 80.693359375 -6 77.693359375 -9 71.693359375 -12 c 0
 70.693359375 -12 71.693359375 -16 71.693359375 -18 c 2
 63.693359375 -22 l 1
 64.693359375 -23 l 1
 71.693359375 -19 l 2
 72.693359375 -20 73.693359375 -22 74.693359375 -25 c 2
 75.693359375 -25 l 1
 71.693359375 -19 71.693359375 -13 72.693359375 -12 c 0
 75.693359375 -12 82.693359375 -6 81.693359375 1 c 1
 132.693359375 3 168.693359375 -2 176.693359375 110 c 1
 234.693359375 253 323.693359375 384 352.693359375 533 c 1
 411.693359375 693 451.693359375 681 452.693359375 700 c 1
 427.693359375 701 465.693359375 700 447.693359375 700 c 5
16.693359375 700 m 1
 81.693359375 584 83.693359375 433 201.693359375 362 c 1
 238.693359375 445 l 1
 135.693359375 481 94.693359375 627 16.693359375 700 c 1
311.693359375 379 m 1
 282.693359375 318 l 1
 289.693359375 314 280.693359375 320 290.693359375 313 c 1
 312.693359375 269 367.693359375 259 412.693359375 285 c 1
 420.693359375 278 420.693359375 273 418.693359375 265 c 0
 418.693359375 264 421.693359375 261 424.693359375 260 c 2
 421.693359375 250 l 1
 422.693359375 250 l 1
 424.693359375 259 l 1
 426.693359375 258 428.693359375 257 432.693359375 257 c 1
 432.693359375 258 l 1
 424.693359375 259 419.693359375 263 420.693359375 266 c 0
 422.693359375 267 422.693359375 281 413.693359375 285 c 1
 414.693359375 290 416.693359375 295 416.693359375 300 c 0
 416.693359375 346 368.693359375 372 324.693359375 368 c 0
 320.693359375 371 311.693359375 379 311.693359375 379 c 1
370.693359375 347 m 0
 377.693359375 347 383.693359375 341 383.693359375 334 c 0
 383.693359375 327 377.693359375 321 370.693359375 321 c 0
 363.693359375 321 358.693359375 327 358.693359375 334 c 0
 358.693359375 341 363.693359375 347 370.693359375 347 c 0
356.693359375 317 m 0
 364.693359375 317 371.693359375 310 371.693359375 302 c 0
 371.693359375 294 364.693359375 287 356.693359375 287 c 0
 348.693359375 287 342.693359375 294 342.693359375 302 c 0
 342.693359375 310 348.693359375 317 356.693359375 317 c 0
83.693359375 80 m 0
 90.693359375 80 96.693359375 73 96.693359375 65 c 0
 96.693359375 57 90.693359375 51 83.693359375 51 c 0
 76.693359375 51 70.693359375 57 70.693359375 65 c 0
 70.693359375 73 76.693359375 80 83.693359375 80 c 0
119.693359375 66 m 0
 128.693359375 66 134.693359375 59 134.693359375 50 c 0
 134.693359375 42 128.693359375 35 119.693359375 35 c 0
 111.693359375 35 104.693359375 42 104.693359375 50 c 0
 104.693359375 59 111.693359375 66 119.693359375 66 c 0
EndSplineSet
Validated: 37
EndChar

StartChar: Z
Encoding: 59 90 59
Width: 708
GlyphClass: 1
Flags: W
LayerCount: 2
Fore
SplineSet
155.921875 12 m 0
 -93.7060546875 58.86328125 145.190429688 246.549804688 394.921875 415 c 1
 812.921875 742 318.921875 658 168.921875 676 c 5
 497.845703125 720.46875 974.921875 743.995117188 530.921875 361 c 5
 269.921875 108 49.921875 118 497.921875 97 c 1
 535.921875 164 603.921875 165 673.921875 94 c 0
 681.921875 91 685.921875 93 690.921875 97 c 0
 692.921875 98 696.921875 96 698.921875 94 c 2
 707.921875 100 l 1
 707.921875 99 l 1
 699.921875 94 l 1
 701.921875 92 703.921875 91 705.921875 88 c 2
 704.921875 87 l 1
 699.921875 94 693.921875 97 691.921875 96 c 0
 690.921875 94 683.921875 90 675.921875 92 c 1
 676.921875 91 676.921875 91 676.921875 91 c 1
 622.921875 37 618.921875 -6 518.921875 29 c 1
 209.845703125 -14 210.120117188 1.8251953125 155.921875 12 c 0
567.921875 101 m 0
 570.921875 97 576.921875 94 583.921875 92 c 0
 595.921875 90 606.921875 93 607.921875 99 c 0
 609.921875 106 600.921875 114 588.921875 116 c 0
 576.921875 119 565.921875 116 564.921875 109 c 0
 563.921875 106 564.921875 103 567.921875 101 c 0
EndSplineSet
Validated: 33
EndChar

StartChar: bracketleft
Encoding: 60 91 60
Width: 300
GlyphClass: 1
Flags: W
HStem: 0 29<238.004 266.456> 53 3<313.717 319.43>
VStem: 8 70<109.754 363.016>
LayerCount: 2
Fore
SplineSet
232 0 m 0
 257 0 280 11 307 44 c 1
 312 51 315 53 317 53 c 0
 318 53 318 53 319 52 c 0
 320 51 321 50 322 49 c 0
 325 47 327 44 331 42 c 0
 334 40 338 40 344 42 c 0
 349 45 353 29 353 29 c 1
 355 30 l 1
 346 44 l 1
 355 53 l 1
 353 55 l 1
 344 45 l 2
 338 43 335 43 332 44 c 0
 329 46 327 49 325 51 c 0
 323 52 322 54 321 54 c 0
 320 55 318 56 316 56 c 0
 314 55 311 53 307 48 c 1
 282 149 175 21 78 127 c 1
 73 318 66 570 80 619 c 1
 96 623 294 673 316 703 c 1
 229 705 78 697 2 695 c 1
 -3.462890625 463.306640625 5.5078125 262.357421875 8 0 c 1
 132 6 182 0 232 0 c 0
252 29 m 0
 244 29 238 34 238 40 c 0
 238 46 244 51 252 51 c 0
 260 51 267 46 267 40 c 0
 267 34 260 29 252 29 c 0
EndSplineSet
Validated: 41
EndChar

StartChar: backslash
Encoding: 61 92 61
Width: 315
GlyphClass: 1
Flags: W
LayerCount: 2
Fore
SplineSet
294 4 m 1
 294 4 287 8 286 6 c 0
 286 5 285 4 284 2 c 2
 284 2 280 -3 283 2 c 0
 286 7 286 11 285 11 c 0
 283 11 275 14 275 20 c 1
 246 17 198 42 215 93 c 1
 133 246 80 318 20 400 c 1
 126 322 197 217 247 102 c 1
 277 93 313 45 276 20 c 1
 276 15 280 13 286 12 c 0
 287 11 287 9 287 7 c 2
 295 5 l 1
 294 4 l 1
277 43 m 0
 281 44 282 50 278 55 c 0
 275 61 268 63 264 62 c 0
 261 60 260 54 264 49 c 0
 267 44 273 41 277 43 c 0
255 34 m 0
 259 36 260 42 256 47 c 0
 253 52 247 54 243 53 c 0
 239 51 238 45 242 40 c 0
 245 35 251 32 255 34 c 0
EndSplineSet
Validated: 33
EndChar

StartChar: bracketright
Encoding: 62 93 62
Width: 298
GlyphClass: 1
Flags: W
HStem: 0 47<42.5527 69.9949> 53 3<-9.46875 -3.93481>
VStem: 214 78<100.324 365.561>
LayerCount: 2
Fore
SplineSet
73 0 m 0
 120 0 176 6 292 0 c 1
 296 265 299 466 292 695 c 1
 221 697 68 699 -14 697 c 1
 6 667 178 657 212 611 c 1
 226 562 218 312 214 121 c 1
 122 15 25 149 2 48 c 1
 -1 53 -4 55 -7 56 c 0
 -8 56 -10 55 -11 54 c 0
 -12 54 -13 52 -14 51 c 0
 -16 49 -18 46 -21 44 c 0
 -24 43 -27 43 -32 45 c 0
 -37 48 -41 55 -41 55 c 1
 -43 53 l 1
 -34 44 l 1
 -43 30 l 1
 -41 29 l 1
 -32 42 l 1
 -27 40 -23 40 -20 42 c 0
 -17 44 -14 47 -12 49 c 0
 -11 50 -10 51 -9 52 c 0
 -8 53 -8 53 -7 53 c 0
 -5 53 -2 51 2 44 c 1
 28 11 49 0 73 0 c 0
56 47 m 0
 48 47 42 52 42 58 c 0
 42 64 48 69 56 69 c 0
 63 69 70 64 70 58 c 0
 70 52 63 47 56 47 c 0
EndSplineSet
Validated: 41
EndChar

StartChar: asciicircum
Encoding: 63 94 63
Width: 512
GlyphClass: 1
Flags: W
HStem: 432 1<507.374 508.992> 437 35<439.283 456.231>
VStem: 512 2<419 425.906>
LayerCount: 2
Fore
SplineSet
224 697 m 1
 234 641 8 451 25 449 c 0
 40 447 270 566 257 615 c 1
 293 529 324 548 368 524 c 1
 386 455 435 436 491 437 c 1
 495 430 506 430 508 432 c 1
 510 432 513 426 512 418 c 1
 514 419 l 2
 514 422 514 424 513 426 c 0
 513 428 523 428 523 428 c 1
 524 429 l 1
 513 427 l 2
 512 429 510 433 508 433 c 0
 501 432 496 432 492 438 c 0
 483 488 458 539 399 551 c 1
 327 640 283 673 224 697 c 1
441 501 m 0
 446 502 452 498 456 492 c 0
 461 484 462 475 457 472 c 0
 453 469 445 473 439 481 c 0
 434 488 433 497 438 500 c 0
 439 501 440 501 441 501 c 0
EndSplineSet
Validated: 37
EndChar

StartChar: underscore
Encoding: 64 95 64
Width: 780
GlyphClass: 1
Flags: W
HStem: 379 11<604.35 633.918> 395 20G<614 624>
LayerCount: 2
Fore
SplineSet
710 378 m 1
 702 386 l 1
 703 387 705 389 707 392 c 2
 706 393 l 1
 702 386 695 382 693 384 c 0
 693 387 682 394 673 390 c 1
 657 428 586 468 519 405 c 1
 254.942382812 422.512695312 234.301757812 410.696289062 43 383 c 1
 236 312 314 324 526 356 c 1
 561 325 661 320 674 388 c 1
 682 392 687 388 693 382 c 0
 695 381 699 383 701 385 c 2
 710 377 l 1
 710 378 l 1
640 367 m 0
 639 360 631 355 620 355 c 0
 610 355 601 361 601 368 c 0
 602 374 610 379 621 379 c 0
 631 379 640 374 640 367 c 0
638 402 m 0
 637 396 629 390 619 390 c 0
 608 390 600 396 600 403 c 0
 600 410 609 415 619 415 c 0
 629 415 638 409 638 402 c 0
EndSplineSet
Validated: 41
EndChar

StartChar: grave
Encoding: 65 96 65
Width: 830
GlyphClass: 1
Flags: W
LayerCount: 2
Fore
SplineSet
796 335 m 4
 794 334 792 333 790 332 c 5
 792 332 793 333 794 333 c 4
 815 333 821 322 825 307 c 4
 826 303 834 303 839 303 c 5
 840 300 l 5
 841 297 l 5
 845 283 l 5
 846 285 l 5
 846 285 843 292 796 335 c 4
840 299 m 5
 840 302 840 304 841 304 c 4
 845 304 849 306 855 309 c 5
 855 309 869 319 855 311 c 4
 841 304 828 304 827 309 c 5
 828 315 816 339 796 335 c 5
 798 336 799 338 800 339 c 4
 837 454 722 461 684 467 c 5
 507 625 309 721 80 689 c 5
 242 623 386 568 644 384 c 5
 671 287 764 304 794 332 c 5
 794 332 796 334 840 299 c 5
727 394 m 4
 713 401 705 413 710 420 c 4
 716 427 732 427 746 420 c 4
 761 413 768 401 763 394 c 4
 758 387 742 387 727 394 c 4
EndSplineSet
Validated: 37
EndChar

StartChar: a
Encoding: 66 97 66
Width: 497
GlyphClass: 1
Flags: W
HStem: 1 63<142.112 241.241> 56 2<482.467 492.191> 61 19<412.816 445.485> 355 34<161.855 243.801>
VStem: 254.467 123<100.724 394.276>
LayerCount: 2
Fore
SplineSet
313.466796875 400 m 0x78
 291.466796875 400 269.466796875 397 254.466796875 390 c 1
 234.466796875 312 241.466796875 67 241.466796875 64 c 1
 -20.533203125 65 48.466796875 363 242.466796875 355 c 1
 244.466796875 365 247.466796875 379 250.466796875 389 c 1
 -100.533203125 401 -64.533203125 16 240.466796875 1 c 0x98
 256.466796875 1 305.466796875 7 315.466796875 54 c 1
 318.466796875 13 330.466796875 2 341.466796875 0 c 0
 357.466796875 1 368.466796875 -4 384.466796875 8 c 1
 455.466796875 -8 465.466796875 11 482.466796875 56 c 1x58
 489.466796875 53 498.466796875 60 498.466796875 63 c 0
 500.466796875 65 505.466796875 62 510.466796875 55 c 1
 511.466796875 57 l 2
 509.466796875 59 507.466796875 61 506.466796875 62 c 2
 512.466796875 70 l 1
 512.466796875 71 l 1
 505.466796875 63 l 2
 503.466796875 64 499.466796875 66 498.466796875 64 c 0x98
 493.466796875 59 489.466796875 56 482.466796875 58 c 1
 474.466796875 66 445.466796875 80 420.466796875 80 c 0
 406.466796875 81 394.466796875 77 386.466796875 68 c 0
 380.466796875 67 378.466796875 67 377.466796875 67 c 1
 395.466796875 137 378.466796875 236 382.466796875 375 c 0
 384.466796875 389 349.466796875 399 313.466796875 400 c 0x78
387.466796875 374 m 1
 387.466796875 344 l 1
 423.466796875 332 449.466796875 306 481.466796875 283 c 1
 451.466796875 340 445.466796875 350 387.466796875 374 c 1
429.466796875 61 m 0x38
 438.466796875 61 446.466796875 56 446.466796875 49 c 0
 446.466796875 43 438.466796875 37 429.466796875 37 c 0
 419.466796875 37 412.466796875 43 412.466796875 49 c 0
 412.466796875 56 419.466796875 61 429.466796875 61 c 0x38
EndSplineSet
Validated: 41
EndChar

StartChar: b
Encoding: 67 98 67
Width: 457
GlyphClass: 1
Flags: W
HStem: 0 49<55.7499 92.0285> 367 21G<155.807 172.807> 678 20G<61.3066 63.3066>
VStem: 21.3066 34<49.6669 57>
LayerCount: 2
Fore
SplineSet
61.306640625 698 m 1
 61.306640625 698 61.306640625 189 65.306640625 89 c 1
 89.306640625 93 115.306640625 83 146.306640625 67 c 1
 148.306640625 168 144.306640625 147 156.306640625 285 c 1
 426.306640625 393 460.306640625 -5 137.306640625 64 c 1
 67.306640625 100 54.306640625 84 22.306640625 57 c 1
 14.306640625 66 2.306640625 57 2.306640625 54 c 0
 0.306640625 52 -4.693359375 54 -9.693359375 61 c 1
 -10.693359375 59 l 2
 -8.693359375 57 -6.693359375 55 -5.693359375 54 c 2
 -11.693359375 47 l 1
 -11.693359375 46 l 1
 -4.693359375 54 l 2
 -2.693359375 53 1.306640625 51 2.306640625 52 c 0
 7.306640625 59 12.306640625 62 22.306640625 57 c 1
 21.306640625 57 21.306640625 57 21.306640625 56 c 0
 34.306640625 29 52.306640625 1 85.306640625 0 c 0
 100.306640625 0 117.306640625 5 137.306640625 16 c 1
 514.306640625 -90 522.306640625 389 250.306640625 390 c 0
 213.306640625 390 196.306640625 386 149.306640625 367 c 1
 162.306640625 530 65.306640625 695 61.306640625 698 c 1
74.306640625 69 m 0
 84.306640625 69 92.306640625 65 92.306640625 59 c 0
 92.306640625 53 84.306640625 49 74.306640625 49 c 0
 64.306640625 49 55.306640625 53 55.306640625 59 c 0
 55.306640625 65 64.306640625 69 74.306640625 69 c 0
EndSplineSet
Validated: 37
EndChar

StartChar: c
Encoding: 68 99 68
Width: 453
GlyphClass: 1
Flags: W
LayerCount: 2
Fore
SplineSet
434.155273438 56 m 1
 442.155273438 53 451.155273438 59 452.155273438 61 c 1
 453.155273438 63 459.155273438 60 463.155273438 53 c 1
 464.155273438 54 l 2
 462.155273438 57 461.155273438 59 459.155273438 60 c 1
 467.155273438 67 l 1
 467.155273438 68 l 1
 458.155273438 61 l 2
 457.155273438 62 453.155273438 65 451.155273438 63 c 0
 446.155273438 58 442.155273438 55 435.155273438 58 c 1
 405.155273438 86 387.155273438 115 323.155273438 76 c 1
 33.1552734375 52 83.1552734375 430 328.155273438 366 c 1
 328.155273438 366 294.155273438 378 423.155273438 330 c 1
 423.155273438 330 412.155273438 358 330.155273438 402 c 1
 -88.318359375 519.504882812 -29.8798828125 -92.517578125 330.155273438 16 c 1
 398.155273438 -13 422.155273438 28 434.155273438 56 c 1
388.155273438 50 m 0
 379.155273438 50 372.155273438 55 372.155273438 61 c 0
 372.155273438 68 379.155273438 73 388.155273438 73 c 0
 397.155273438 73 404.155273438 68 404.155273438 61 c 0
 404.155273438 55 397.155273438 50 388.155273438 50 c 0
EndSplineSet
Validated: 37
EndChar

StartChar: d
Encoding: 69 100 69
Width: 449
GlyphClass: 1
Flags: W
HStem: 0 49<382.649 419.455> 362 21G<326.539 343.539> 678 20G<417.039 417.539>
VStem: 419.539 35<49.6669 57>
LayerCount: 2
Fore
SplineSet
417.5390625 698 m 1
 416.5390625 683 337.5390625 525 349.5390625 362 c 1
 303.5390625 381 261.5390625 390 225.5390625 390 c 0
 -46.4609375 389 -38.4609375 -90 337.5390625 16 c 1
 358.5390625 5 375.5390625 0 389.5390625 0 c 0
 423.5390625 1 441.5390625 29 454.5390625 56 c 0
 454.5390625 57 454.5390625 57 453.5390625 57 c 1
 463.5390625 62 468.5390625 59 473.5390625 52 c 0
 474.5390625 51 478.5390625 53 480.5390625 54 c 2
 487.5390625 46 l 1
 487.5390625 47 l 1
 480.5390625 54 l 1
 482.5390625 55 484.5390625 57 485.5390625 59 c 2
 485.5390625 61 l 1
 480.5390625 54 475.5390625 52 473.5390625 54 c 0
 473.5390625 57 461.5390625 66 453.5390625 57 c 1
 421.5390625 84 407.5390625 100 337.5390625 64 c 1
 57.5390625 16 65.5390625 335 273.5390625 296 c 1
 272.5390625 295 271.5390625 295 270.5390625 295 c 1
 272.5390625 295 273.5390625 295 275.5390625 296 c 0
 284.5390625 294 294.5390625 291 304.5390625 288 c 0
 345.5390625 258 342.5390625 154 338.5390625 74 c 1
 355.5390625 81 385.5390625 99 409.5390625 95 c 1
 409.5390625 170 417.5390625 698 417.5390625 698 c 1
401.5390625 69 m 0
 411.5390625 69 419.5390625 65 419.5390625 59 c 0
 419.5390625 53 411.5390625 49 401.5390625 49 c 0
 391.5390625 49 382.5390625 53 382.5390625 59 c 0
 382.5390625 65 391.5390625 69 401.5390625 69 c 0
EndSplineSet
Validated: 37
EndChar

StartChar: e
Encoding: 70 101 70
Width: 461
GlyphClass: 1
Flags: W
LayerCount: 2
Fore
SplineSet
423.385742188 113 m 1
 378.385742188 115 327.385742188 99 333.385742188 52 c 1
 71.3857421875 70 72.3857421875 276 196.385742188 321 c 1
 370.385742188 396 428.385742188 171 164.385742188 202 c 1
 490.385742188 131 488.744140625 382.705078125 302.385742188 406 c 0
 286.385742188 408 269.385742188 409 251.385742188 409 c 0
 222.385742188 408 194.640625 400.2734375 164.385742188 388 c 0
 -47.6142578125 302 -35.6142578125 -65 365.385742188 10 c 1
 365.385742188 10 451.385742188 32 423.385742188 113 c 0
 422.385742188 119 421.385742188 124 425.385742188 137 c 2
 432.385742188 148 l 1
 421.385742188 137 l 1
 413.385742188 144 l 1
 421.385742188 134 l 2
 422.385742188 127 423.385742188 120 419.385742188 114 c 1
 423.385742188 113 l 1
377.385742188 92 m 0
 381.385742188 92 385.385742188 90 386.385742188 87 c 0
 389.385742188 82 385.385742188 75 378.385742188 71 c 0
 370.385742188 66 362.385742188 67 359.385742188 72 c 0
 356.385742188 77 360.385742188 84 368.385742188 89 c 0
 371.385742188 90 374.385742188 91 377.385742188 92 c 0
401.385742188 76 m 0
 404.385742188 76 406.385742188 75 407.385742188 73 c 0
 411.385742188 68 409.385742188 58 403.385742188 51 c 0
 397.385742188 44 389.385742188 43 386.385742188 48 c 0
 382.385742188 53 384.385742188 62 390.385742188 69 c 0
 393.385742188 73 397.385742188 76 401.385742188 76 c 0
EndSplineSet
Validated: 37
EndChar

StartChar: f
Encoding: 71 102 71
Width: 343
GlyphClass: 1
Flags: W
HStem: 368 17<265.389 280.047>
VStem: 143.309 18<38.0926 60.9956> 167.309 2<-10.1761 -7.03125>
LayerCount: 2
Fore
SplineSet
149.30859375 694 m 0
 70.30859375 676 45.30859375 497 88.30859375 371 c 1
 132.30859375 370 135.30859375 368 185.30859375 371 c 1
 97.1904296875 563.623046875 265.30859375 756 315.30859375 542 c 1
 326.30859375 608 292.30859375 725 149.30859375 694 c 0
267.30859375 385 m 0
 257.30859375 385 250.30859375 372 237.30859375 371 c 0
 108.30859375 359 82.30859375 369 8.30859375 380 c 1
 92.30859375 320 146.30859375 313 239.30859375 332 c 1
 268.30859375 319 294.30859375 330 304.30859375 352 c 1
 312.30859375 347 324.30859375 354 325.30859375 356 c 0
 327.30859375 358 333.30859375 355 338.30859375 347 c 1
 338.30859375 349 l 2
 336.30859375 351 335.30859375 354 333.30859375 355 c 1
 342.30859375 362 l 1
 342.30859375 363 l 1
 332.30859375 355 l 2
 330.30859375 357 326.30859375 360 325.30859375 358 c 0
 319.30859375 353 313.30859375 350 304.30859375 354 c 1
 297.30859375 375 282.30859375 385 267.30859375 385 c 0
273.30859375 368 m 0
 277.30859375 368 280.30859375 365 280.30859375 362 c 0
 280.30859375 358 277.30859375 356 273.30859375 356 c 0
 269.30859375 356 265.30859375 358 265.30859375 362 c 0
 265.30859375 365 269.30859375 368 273.30859375 368 c 0
201.30859375 322 m 1
 175.282226562 319.06640625 156.30859375 317 104.30859375 321 c 0
 95.279296875 321.694335938 145.30859375 152 134.30859375 100 c 1
 91.30859375 51 119.30859375 14 162.30859375 0 c 1
 162.30859375 -5 166.30859375 -8 167.30859375 -7 c 0
 169.30859375 -8 166.30859375 -13 159.30859375 -19 c 1
 160.30859375 -19 l 2
 163.30859375 -17 165.30859375 -15 166.30859375 -13 c 1
 172.30859375 -16 l 1
 173.30859375 -16 l 1
 166.30859375 -13 l 1
 168.30859375 -11 170.30859375 -7 169.30859375 -6 c 0
 165.30859375 -5 163.30859375 -3 164.30859375 1 c 0
 201.30859375 42 211.30859375 77 175.30859375 100 c 1
 197.30859375 141 201.30859375 322 201.30859375 322 c 1
169.30859375 61 m 0
 174.30859375 61 178.30859375 55 178.30859375 49 c 0
 178.30859375 42 174.30859375 36 169.30859375 36 c 0
 165.30859375 36 161.30859375 42 161.30859375 49 c 0
 161.30859375 55 165.30859375 61 169.30859375 61 c 0
135.30859375 62 m 0
 140.30859375 62 143.30859375 57 143.30859375 50 c 0
 143.30859375 44 140.30859375 38 135.30859375 38 c 0
 130.30859375 38 127.30859375 44 127.30859375 50 c 0
 127.30859375 57 130.30859375 62 135.30859375 62 c 0
EndSplineSet
Validated: 37
EndChar

StartChar: g
Encoding: 72 103 72
Width: 442
GlyphClass: 1
Flags: W
LayerCount: 2
Fore
SplineSet
389.692382812 440 m 1
 337.692382812 376 287.692382812 419 249.692382812 425 c 1
 45.6923828125 486 -124.083984375 -58.455078125 269.692382812 7 c 1
 325.692382812 24 336.692382812 90 346.692382812 160 c 1
 355.692382812 -76 265.692382812 -164 198.692382812 -145 c 0
 186.692382812 -142 176.692382812 -143 176.692382812 -143 c 1
 172.692382812 -88 109.692382812 -70 83.6923828125 -83 c 0
 82.6923828125 -83 75.6923828125 -82 68.6923828125 -71 c 0
 62.6923828125 -63 66.6923828125 -66 61.6923828125 -61 c 0
 60.6923828125 -61 67.6923828125 -71 68.6923828125 -75 c 0
 68.6923828125 -76 61.6923828125 -70 60.6923828125 -72 c 2
 60.6923828125 -72 61.6923828125 -73 67.6923828125 -77 c 0
 80.6923828125 -84 80.6923828125 -87 80.6923828125 -87 c 1
 51.6923828125 -148 126.692382812 -196 144.692382812 -197 c 1
 401.692382812 -325 472.692382812 49 376.692382812 396 c 1
 315.692382812 381 330.384765625 381.537109375 298.692382812 363 c 0
 245.692382812 332 293.692382812 311 284.692382812 265 c 1
 169.692382812 -182 -19.3076171875 375 231.692382812 374 c 1
 339.692382812 395 365.044921875 390.028320312 389.692382812 440 c 1
129.692382812 -103 m 0
 131.692382812 -103 134.692382812 -104 136.692382812 -106 c 0
 140.692382812 -110 141.692382812 -117 138.692382812 -121 c 0
 135.692382812 -126 129.692382812 -126 124.692382812 -122 c 0
 120.692382812 -118 119.692382812 -111 122.692382812 -107 c 0
 123.692382812 -104 126.692382812 -103 129.692382812 -103 c 0
105.692382812 -121 m 0
 110.692382812 -121 114.692382812 -126 114.692382812 -133 c 0
 114.692382812 -139 110.692382812 -144 105.692382812 -144 c 0
 100.692382812 -144 96.6923828125 -139 96.6923828125 -133 c 0
 96.6923828125 -126 100.692382812 -121 105.692382812 -121 c 0
EndSplineSet
Validated: 41
EndChar

StartChar: h
Encoding: 73 104 73
Width: 383
GlyphClass: 1
Flags: W
VStem: 34.4619 109<13.1512 227.868>
LayerCount: 2
Fore
SplineSet
20.4619140625 700 m 1
 2.4619140625 699 -7.5380859375 656 -16.5380859375 628 c 1
 54.8251953125 788.376953125 19.2197265625 31.8603515625 34.4619140625 17 c 1
 92.4619140625 -26 117.461914062 -6 143.461914062 6 c 1
 149.461914062 42 130.461914062 160 135.461914062 177 c 0
 166.461914062 290 261.461914062 331 311.461914062 115 c 1
 286.461914062 70 313.461914062 -1 358.461914062 -4 c 1
 361.461914062 -10 377.461914062 -8 372.461914062 -12 c 0
 371.461914062 -14 375.461914062 -17 376.461914062 -19 c 2
 368.461914062 -27 l 1
 372.461914062 -25 l 1
 377.461914062 -20 l 1
 378.461914062 -22 381.461914062 -23 384.461914062 -28 c 1
 385.461914062 -28 l 1
 378.461914062 -16 369.461914062 -15 376.461914062 -11 c 0
 378.461914062 -10 366.461914062 -9 363.461914062 -3 c 1
 403.461914062 53 367.461914062 106 347.461914062 121 c 1
 389.62890625 360.590820312 165.2265625 477.297851562 95.4619140625 231 c 0
 87.3916015625 202.5078125 167.499023438 630.4765625 41.4619140625 679 c 0
 37.6142578125 680.481445312 31.4619140625 700 29.4619140625 700 c 1
 20.4619140625 700 l 1
358.461914062 82 m 1
 362.461914062 82 366.461914062 75 368.461914062 67 c 0
 370.461914062 58 368.461914062 50 363.461914062 49 c 0
 359.461914062 48 354.461914062 55 352.461914062 64 c 0
 350.461914062 73 352.461914062 81 357.461914062 82 c 2
 357.461914062 82 357.461914062 82 358.461914062 82 c 1
329.461914062 70 m 1
 334.461914062 70 339.461914062 63 341.461914062 55 c 0
 343.461914062 46 340.461914062 38 335.461914062 37 c 0
 329.461914062 36 324.461914062 42 322.461914062 51 c 0
 320.461914062 60 323.461914062 68 328.461914062 70 c 0
 329.461914062 70 329.461914062 70 329.461914062 70 c 1
EndSplineSet
Validated: 41
EndChar

StartChar: i
Encoding: 74 105 74
Width: 161
GlyphClass: 1
Flags: W
HStem: 1 23<57.8054 75.2822> 490 20<42.8462 73.6984>
VStem: 59.4639 11<478.047 489.266> 75.4639 12<26.6357 51.1805>
LayerCount: 2
Fore
SplineSet
65.4638671875 510 m 0
 49.4638671875 510 34.4638671875 501 27.4638671875 487 c 0
 17.4638671875 466 26.4638671875 442 47.4638671875 432 c 0
 68.4638671875 422 94.4638671875 430 104.463867188 450 c 0
 115.463867188 470 107.463867188 495 86.4638671875 506 c 1
 79.4638671875 493 l 1
 79.4638671875 493 79.4638671875 493 80.4638671875 493 c 0
 85.4638671875 493 89.4638671875 488 89.4638671875 481 c 0
 89.4638671875 475 85.4638671875 469 80.4638671875 469 c 0
 75.4638671875 469 72.4638671875 473 71.4638671875 478 c 1
 66.4638671875 469 l 1
 71.4638671875 478 l 2
 70.4638671875 479 70.4638671875 480 70.4638671875 481 c 0
 70.4638671875 487 73.4638671875 492 78.4638671875 493 c 2
 85.4638671875 506 l 1
 78.4638671875 509 72.4638671875 510 65.4638671875 510 c 0
51.4638671875 490 m 0
 55.4638671875 490 59.4638671875 485 59.4638671875 478 c 0
 59.4638671875 472 55.4638671875 467 51.4638671875 467 c 0
 46.4638671875 467 42.4638671875 472 42.4638671875 478 c 0
 42.4638671875 485 46.4638671875 490 51.4638671875 490 c 0
75.4638671875 -24 m 1
 81.4638671875 -17 l 1
 82.4638671875 -18 84.4638671875 -19 87.4638671875 -21 c 2
 88.4638671875 -20 l 1
 81.4638671875 -16 77.4638671875 -11 79.4638671875 -10 c 0
 80.4638671875 -9 83.4638671875 -4 84.4638671875 1 c 1
 148.463867188 12 141.463867188 64 110.463867188 80 c 1
 147.463867188 210 129.463867188 306 58.4638671875 404 c 1
 68.1640625 315.811523438 -17.9404296875 235.58203125 64.4638671875 81 c 1
 6.4638671875 42 46.4638671875 7 82.4638671875 1 c 0
 82.4638671875 -3 80.4638671875 -6 77.4638671875 -9 c 0
 76.4638671875 -11 79.4638671875 -14 80.4638671875 -16 c 2
 74.4638671875 -25 l 1
 75.4638671875 -24 l 1
98.4638671875 53 m 0
 104.463867188 53 109.463867188 47 109.463867188 39 c 0
 109.463867188 31 104.463867188 25 98.4638671875 25 c 0
 92.4638671875 25 87.4638671875 31 87.4638671875 39 c 0
 87.4638671875 47 92.4638671875 53 98.4638671875 53 c 0
66.4638671875 52 m 0
 71.4638671875 52 75.4638671875 46 75.4638671875 38 c 0
 75.4638671875 31 71.4638671875 24 66.4638671875 24 c 0
 60.4638671875 24 56.4638671875 31 56.4638671875 38 c 0
 56.4638671875 46 60.4638671875 52 66.4638671875 52 c 0
EndSplineSet
Validated: 37
EndChar

StartChar: j
Encoding: 75 106 75
Width: 374
GlyphClass: 1
Flags: W
HStem: 70 42<31.5518 48.5074 60.541 78.4632> 481 15<180.183 209.428>
VStem: 47.5381 1<112 112.466> 48.5381 12<42.049 69.1534> 197.538 8<467 479.002>
LayerCount: 2
Fore
SplineSet
201.538085938 496 m 0xc8
 187.538085938 496 174.538085938 488 167.538085938 476 c 0
 158.538085938 457 166.538085938 436 185.538085938 427 c 0
 203.538085938 418 226.538085938 425 236.538085938 443 c 0
 245.538085938 461 238.538085938 483 219.538085938 492 c 1
 213.538085938 481 l 1
 217.538085938 481 220.538085938 476 220.538085938 470 c 0
 220.538085938 464 217.538085938 459 213.538085938 459 c 0
 209.538085938 459 206.538085938 462 205.538085938 466 c 1
 202.538085938 460 l 1
 205.538085938 467 l 2
 205.538085938 468 205.538085938 469 205.538085938 470 c 0
 205.538085938 476 208.538085938 481 213.538085938 482 c 2
 219.538085938 492 l 1
 214.538085938 495 207.538085938 496 201.538085938 496 c 0xc8
188.538085938 481 m 0
 193.538085938 481 197.538085938 476 197.538085938 470 c 0
 197.538085938 464 193.538085938 459 188.538085938 459 c 0
 183.538085938 459 179.538085938 464 179.538085938 470 c 0
 179.538085938 476 183.538085938 481 188.538085938 481 c 0
197.538085938 377 m 1
 382.255859375 -188.235351562 121.602539062 -231.130859375 69.5380859375 0 c 1
 119.538085938 53 79.5380859375 111 48.5380859375 112 c 1
 53.5380859375 117 48.5380859375 124 45.5380859375 125 c 0
 44.5380859375 126 47.5380859375 130 52.5380859375 132 c 1
 51.5380859375 133 l 2
 49.5380859375 132 47.5380859375 131 46.5380859375 130 c 1
 41.5380859375 135 l 1
 40.5380859375 135 l 1
 46.5380859375 129 l 1
 45.5380859375 128 43.5380859375 126 44.5380859375 125 c 0
 49.5380859375 121 51.5380859375 117 47.5380859375 112 c 1xe8
 25.5380859375 111 -5.4619140625 58 29.5380859375 2 c 1
 -115.461914062 -327 631.794921875 -311.403320312 239.538085938 305 c 0
 225.538085938 327 197.538085938 377 197.538085938 377 c 1
69.5380859375 73 m 0
 74.5380859375 73 78.5380859375 66 78.5380859375 57 c 0
 78.5380859375 48 74.5380859375 41 69.5380859375 41 c 0
 64.5380859375 41 60.5380859375 48 60.5380859375 57 c 0xd8
 60.5380859375 66 64.5380859375 73 69.5380859375 73 c 0
39.5380859375 70 m 0
 44.5380859375 70 48.5380859375 64 48.5380859375 55 c 0
 48.5380859375 47 44.5380859375 40 39.5380859375 40 c 0
 34.5380859375 40 30.5380859375 47 30.5380859375 55 c 0
 30.5380859375 64 34.5380859375 70 39.5380859375 70 c 0
EndSplineSet
Validated: 37
EndChar

StartChar: k
Encoding: 76 107 76
Width: 337
GlyphClass: 1
Flags: W
HStem: -13 1<334.23 346.23>
VStem: 71.2305 13<34.5625 63.4279> 75.2305 24<412 519.563> 329.23 2<-21 -19.1457>
LayerCount: 2
Fore
SplineSet
75.23046875 681 m 1xb0
 18.23046875 412 11.23046875 310 61.23046875 126 c 1
 33.23046875 79 35.23046875 18 74.23046875 0 c 1
 72.23046875 -7 80.23046875 -10 82.23046875 -11 c 0
 84.23046875 -13 81.23046875 -19 72.23046875 -24 c 1
 74.23046875 -25 l 2
 77.23046875 -23 79.23046875 -21 81.23046875 -20 c 2
 88.23046875 -28 l 1
 90.23046875 -28 l 1
 81.23046875 -19 l 1
 83.23046875 -17 86.23046875 -13 84.23046875 -11 c 0xd0
 79.23046875 -6 76.23046875 -7 77.23046875 -1 c 1
 142.23046875 21 131.23046875 83 107.23046875 124 c 1
 104.23046875 185 l 1
 72.23046875 215 l 1
 74.23046875 225 85.23046875 246 99.23046875 263 c 1
 103.23046875 395.666992188 95.23046875 535 75.23046875 681 c 1xb0
270.23046875 399 m 0
 208.23046875 400 84.23046875 259 76.23046875 216 c 1
 125.475585938 169.953125 172.129882812 118.024414062 226.23046875 83 c 1
 221.23046875 -5 299.23046875 14 318.23046875 0 c 0
 319.23046875 0 319.23046875 0 319.23046875 0 c 1
 323.23046875 -4 328.23046875 -6 330.23046875 -5 c 0
 333.23046875 -6 333.23046875 -13 329.23046875 -21 c 1
 331.23046875 -21 l 2
 332.23046875 -18 333.23046875 -15 333.23046875 -13 c 1
 345.23046875 -16 l 1
 346.23046875 -15 l 1
 334.23046875 -12 l 2
 334.23046875 -9 334.23046875 -5 331.23046875 -4 c 0
 326.23046875 -3 322.23046875 -1 319.23046875 2 c 0
 332.23046875 45 345.23046875 82 263.23046875 110 c 1
 220.96875 172.666015625 180.853515625 204.380859375 141.23046875 229 c 1
 197.025390625 281.7421875 275.375 440.334960938 309.23046875 331 c 1
 310.23046875 365 290.23046875 399 270.23046875 399 c 0
298.23046875 84 m 0
 303.23046875 85 309.23046875 78 311.23046875 70 c 0
 314.23046875 60 311.23046875 51 305.23046875 50 c 0
 299.23046875 48 292.23046875 55 290.23046875 64 c 0
 287.23046875 74 290.23046875 82 296.23046875 84 c 0
 297.23046875 84 297.23046875 84 298.23046875 84 c 0
61.23046875 71 m 0
 66.23046875 71 71.23046875 62 71.23046875 52 c 0
 71.23046875 42 66.23046875 33 61.23046875 33 c 0
 55.23046875 33 51.23046875 42 51.23046875 52 c 0
 51.23046875 62 55.23046875 71 61.23046875 71 c 0
95.23046875 65 m 0
 102.23046875 65 107.23046875 58 107.23046875 48 c 0
 107.23046875 39 102.23046875 32 95.23046875 32 c 0
 89.23046875 32 84.23046875 39 84.23046875 48 c 0
 84.23046875 58 89.23046875 65 95.23046875 65 c 0
267.23046875 61 m 0
 272.23046875 61 279.23046875 58 283.23046875 52 c 0
 288.23046875 43 288.23046875 33 282.23046875 29 c 0
 275.23046875 25 266.23046875 29 261.23046875 37 c 0
 255.23046875 45 256.23046875 55 262.23046875 59 c 0
 263.23046875 60 265.23046875 61 267.23046875 61 c 0
EndSplineSet
Validated: 41
EndChar

StartChar: l
Encoding: 77 108 77
Width: 166
GlyphClass: 1
Flags: W
HStem: -1 43<75.2676 94.9985>
VStem: 63.2646 12<43.9287 73.1018>
LayerCount: 2
Fore
SplineSet
76.2646484375 -33 m 1
 77.2646484375 -33 l 1
 69.2646484375 -25 l 1
 71.2646484375 -23 73.2646484375 -20 72.2646484375 -19 c 0
 67.2646484375 -13 64.2646484375 -8 67.2646484375 -1 c 1
 128.264648438 10 124.264648438 98 97.2646484375 129 c 1
 166.264648438 315 131.264648438 525 71.2646484375 697 c 1
 76.2646484375 549 -29.7353515625 402 54.2646484375 136 c 1
 -2.7353515625 78 32.2646484375 14 66.2646484375 -1 c 1
 62.2646484375 -8 68.2646484375 -18 70.2646484375 -19 c 0
 72.2646484375 -21 69.2646484375 -26 62.2646484375 -30 c 0
 55.2646484375 -34 63.2646484375 -31 63.2646484375 -31 c 2
 66.2646484375 -29 68.2646484375 -27 69.2646484375 -26 c 0
 70.2646484375 -25 76.2646484375 -33 76.2646484375 -33 c 1
85.2646484375 41 m 0
 79.2646484375 41 75.2646484375 49 75.2646484375 58 c 0
 75.2646484375 68 79.2646484375 76 85.2646484375 76 c 0
 91.2646484375 76 96.2646484375 68 96.2646484375 58 c 0
 96.2646484375 49 91.2646484375 41 85.2646484375 41 c 0
52.2646484375 42 m 0
 46.2646484375 42 41.2646484375 49 41.2646484375 59 c 0
 41.2646484375 68 46.2646484375 75 52.2646484375 75 c 0
 58.2646484375 75 63.2646484375 68 63.2646484375 59 c 0
 63.2646484375 49 58.2646484375 42 52.2646484375 42 c 0
EndSplineSet
Validated: 41
EndChar

StartChar: m
Encoding: 78 109 78
Width: 535
GlyphClass: 1
Flags: W
VStem: 14.5391 94<1 109.166> 183.539 80<7.88302 199.09>
LayerCount: 2
Fore
SplineSet
8.5390625 400 m 1
 92.5390625 359 51.5390625 186 14.5390625 1 c 1
 108.5390625 1 l 1
 122.5390625 73 93.5390625 303 149.5390625 302 c 0
 199.5390625 298 193.5390625 247 183.5390625 9 c 1
 210.5390625 5 234.5390625 -10 263.5390625 10 c 1
 275.5390625 532 501.5390625 251 357.5390625 10 c 1
 404.5390625 -8 532.5390625 -9 538.5390625 76 c 0
 540.5390625 84 538.5390625 90 529.5390625 91 c 1
 533.5390625 103 l 1
 529.5390625 96 l 1
 527.5390625 92 l 1
 517.5390625 96 l 1
 521.5390625 93 523.5390625 93 527.5390625 90 c 2
 528.5390625 90 l 2
 534.5390625 90 539.5390625 84 537.5390625 79 c 0
 536.5390625 78 536.5390625 77 534.5390625 76 c 1
 537.5390625 75 l 1
 538.5390625 76 l 1
 538.5390625 76 538.5390625 78 537.5390625 79 c 0
 483.5390625 106 452.5390625 92 434.5390625 69 c 1
 598.5390625 484 237.5390625 459 233.5390625 272 c 1
 214.5390625 397 118.5390625 457 76.5390625 342 c 1
 76.5390625 342 86.5390625 383 8.5390625 400 c 1
496.5390625 66 m 0
 496.5390625 62 483.5390625 56 483.5390625 56 c 2
 477.5390625 54 463.5390625 51 463.5390625 56 c 0
 463.5390625 60 470.5390625 69 479.5390625 71 c 0
 480.5390625 72 496.5390625 70 496.5390625 66 c 0
EndSplineSet
Validated: 37
EndChar

StartChar: n
Encoding: 79 110 79
Width: 362
GlyphClass: 1
Flags: W
HStem: 47 9<290.539 315.539>
VStem: 57.5391 89<5.327 51.4297> 327.539 33<25 40>
LayerCount: 2
Fore
SplineSet
363.5390625 48 m 0
 365.5390625 56 367.5390625 48 370.5390625 60 c 0
 371.5390625 64 367.5390625 53 363.5390625 52 c 0
 359.5390625 52 355.5390625 63 355.5390625 63 c 1
 357.5390625 51 361.5390625 55 361.5390625 48 c 0
 361.5390625 36 358.5390625 32 358.5390625 33 c 0
 322.5390625 88 300.5390625 56 290.5390625 56 c 1
 480.5390625 521 99.5390625 407 94.5390625 335 c 0
 94.5390625 326 92.6015625 392.4296875 77.5390625 413 c 0
 42.8232421875 460.41015625 -25.5712890625 134.8828125 57.5390625 12 c 0
 76.49609375 -16.029296875 142.5390625 4 146.5390625 3 c 1
 124.977539062 69.716796875 75.009765625 329.9375 210.5390625 326 c 1
 257.5390625 322 292.5390625 307 232.5390625 24 c 1
 233.5390625 -9 352.5390625 -2 360.5390625 25 c 0
 360.5390625 26 361.5390625 40 363.5390625 48 c 0
323.5390625 46 m 0
 326.5390625 44 327.5390625 42 327.5390625 40 c 0
 327.5390625 36 321.5390625 34 314.5390625 34 c 0
 306.5390625 35 301.5390625 38 301.5390625 42 c 0
 302.5390625 45 308.5390625 48 315.5390625 47 c 0
 318.5390625 47 321.5390625 47 323.5390625 46 c 0
EndSplineSet
Validated: 41
EndChar

StartChar: o
Encoding: 80 111 80
Width: 385
GlyphClass: 1
Flags: W
HStem: 370 21G<150.461 156.961> 385 15<141.562 173.461>
LayerCount: 2
Fore
SplineSet
170.4609375 400 m 1x40
 146.4609375 400 128.4609375 388 117.4609375 366 c 1
 111.4609375 366 104.4609375 362 103.4609375 359 c 1
 101.4609375 358 96.4609375 361 91.4609375 368 c 1
 91.4609375 367 l 2
 93.4609375 364 94.4609375 362 96.4609375 361 c 1
 88.4609375 354 l 1
 88.4609375 353 l 1
 96.4609375 360 l 2
 98.4609375 359 102.4609375 356 103.4609375 358 c 0
 108.4609375 362 112.4609375 365 117.4609375 364 c 0
 137.4609375 348 158.4609375 323 188.4609375 349 c 1
 319.4609375 313 312.4609375 137 252.4609375 96 c 0
 202.4609375 64 183.4609375 72 146.4609375 93 c 0
 40.4609375 155 77.4609375 287 118.4609375 359 c 1
 -11.5390625 244 -5.5390625 105 81.4609375 33 c 0
 163.4609375 -34 287.4609375 15 300.4609375 37 c 1
 404.4609375 127 378.4609375 339 191.4609375 397 c 0
 184.4609375 399 176.4609375 400 170.4609375 400 c 1x40
153.4609375 385 m 0
 160.4609375 385 166.4609375 382 166.4609375 377 c 0
 166.4609375 373 160.4609375 370 153.4609375 370 c 0x80
 147.4609375 370 141.4609375 373 141.4609375 377 c 0
 141.4609375 382 147.4609375 385 153.4609375 385 c 0
EndSplineSet
Validated: 41
EndChar

StartChar: p
Encoding: 81 112 81
Width: 487
GlyphClass: 1
Flags: W
HStem: 104 297<76.4238 363.924> 393 8<75.1899 311.924>
VStem: 139.924 46<167.606 372.123 404.927 431.297> 145.924 9<-264.395 -241.605> 163.924 2<-327.821 -322.169>
LayerCount: 2
Fore
SplineSet
182.923828125 477 m 1x00
 176.923828125 460 137.923828125 445 141.923828125 403 c 1
 189.923828125 404 l 1
 171.923828125 424 169.923828125 430 182.923828125 477 c 1x00
174.923828125 401 m 0x80
 141.923828125 401 106.923828125 399 67.923828125 393 c 1x40
 311.923828125 365 404.923828125 316 393.923828125 188 c 1
 380.923828125 93 189.923828125 32 131.923828125 80 c 1
 101.923828125 130 76.923828125 125 17.923828125 99 c 1
 11.923828125 105 2.923828125 97 1.923828125 94 c 0
 -0.076171875 92 -4.076171875 96 -8.076171875 105 c 1
 -8.076171875 103 l 2
 -7.076171875 100 -6.076171875 97 -4.076171875 96 c 1
 -11.076171875 87 l 1
 -11.076171875 86 l 1
 -4.076171875 95 l 1
 -2.076171875 93 0.923828125 90 1.923828125 92 c 0
 6.923828125 98 10.923828125 102 15.923828125 98 c 1
 36.923828125 85 42.923828125 16 119.923828125 26 c 1
 153.923828125 -5 264.923828125 -6 337.923828125 12 c 1
 513.923828125 74 552.923828125 401 174.923828125 401 c 0x80
139.923828125 379 m 1x20
 125.872070312 270.8671875 120.615234375 168.888671875 136.923828125 82 c 1
 148.923828125 74 168.923828125 65 197.923828125 67 c 1
 203.928710938 162.451171875 198.018554688 264.907226562 185.923828125 371 c 1
 166.923828125 374 155.923828125 377 139.923828125 379 c 1x20
78.923828125 104 m 0x80
 80.923828125 104 83.923828125 103 85.923828125 103 c 0
 92.923828125 100 97.923828125 95 95.923828125 90 c 0
 94.923828125 86 87.923828125 84 80.923828125 87 c 0
 72.923828125 89 68.923828125 94 69.923828125 99 c 0
 70.923828125 102 73.923828125 103 78.923828125 104 c 0x80
129.923828125 7 m 1
 140.923828125 -187 l 1
 115.923828125 -238 116.923828125 -279 158.923828125 -306 c 1
 157.923828125 -313 161.923828125 -322 163.923828125 -323 c 0
 165.923828125 -325 162.923828125 -331 156.923828125 -335 c 1
 157.923828125 -336 l 1
 159.923828125 -334 161.923828125 -333 162.923828125 -331 c 1
 168.923828125 -339 l 1
 169.923828125 -339 l 1
 163.923828125 -330 l 2
 164.923828125 -328 166.923828125 -324 165.923828125 -323 c 0x08
 161.923828125 -317 158.923828125 -313 160.923828125 -306 c 0
 193.923828125 -270 196.923828125 -254 179.923828125 -189 c 1
 196.923828125 -2 l 1
 178.923828125 -3 143.923828125 4 129.923828125 13 c 1
 129.923828125 7 l 1
162.923828125 -240 m 0
 167.923828125 -240 171.923828125 -246 171.923828125 -253 c 0
 171.923828125 -260 167.923828125 -266 162.923828125 -266 c 0
 158.923828125 -266 154.923828125 -260 154.923828125 -253 c 0x10
 154.923828125 -246 158.923828125 -240 162.923828125 -240 c 0
138.923828125 -240 m 0
 142.923828125 -240 145.923828125 -246 145.923828125 -253 c 0
 145.923828125 -260 142.923828125 -266 138.923828125 -266 c 0
 135.923828125 -266 132.923828125 -260 132.923828125 -253 c 0
 132.923828125 -246 135.923828125 -240 138.923828125 -240 c 0
EndSplineSet
Validated: 41
EndChar

StartChar: q
Encoding: 82 113 82
Width: 510
GlyphClass: 1
Flags: W
HStem: 9 57<187.166 299.25> 374 23<279.027 321.922> 387 9<404.922 413.797>
VStem: 315.922 15<-319.638 -291.637> 316.922 2<-393.91 -388.163> 322.922 1<-373.269 -371>
LayerCount: 2
Fore
SplineSet
331.921875 429 m 1x8c
 297.921875 105 305.921875 18 300.921875 -244 c 1
 267.921875 -312 284.921875 -331 322.921875 -371 c 0
 324.921875 -378 321.921875 -383 316.921875 -389 c 0
 315.921875 -390 317.921875 -395 319.921875 -397 c 2
 311.921875 -407 l 1
 313.921875 -407 l 1
 319.921875 -398 l 1
 320.921875 -399 322.921875 -401 325.921875 -403 c 2
 326.921875 -403 l 1
 319.921875 -398 316.921875 -391 318.921875 -389 c 0
 320.921875 -388 325.921875 -379 323.921875 -371 c 1
 372.921875 -341 374.921875 -297 344.921875 -241 c 1
 357.921875 -29 l 1
 357.921875 -35 344.921875 431 331.921875 429 c 1x8c
292.921875 397 m 0xc4
 -7.078125 398 -79.078125 86 151.921875 19 c 0
 201.921875 8 252.921875 4 298.921875 9 c 1
 299.921875 28 300.921875 45 301.921875 66 c 1
 215.921875 62 97.259765625 113.057617188 84.921875 184 c 0
 64.921875 299 244.921875 365 321.921875 374 c 1
 321.921875 381 322.921875 391 323.921875 397 c 1
 312.921875 398 301.921875 396.969726562 292.921875 397 c 0xc4
342.921875 396 m 1xa0
 342.921875 391 343.921875 382 344.921875 376 c 1
 373.921875 380 404.921875 384 438.921875 387 c 1
 404.921875 391 372.921875 396 342.921875 396 c 1xa0
427.921875 111 m 0
 404.921875 111 387.921875 101 368.921875 75 c 0
 364.921875 73 364.921875 74 360.921875 72 c 1
 361.921875 52 361.921875 30 362.921875 11 c 1
 371.921875 15 375.921875 20 381.921875 25 c 1
 469.921875 15 475.921875 80 499.921875 92 c 1
 505.921875 95 510.921875 92 515.921875 86 c 0
 516.921875 84 520.921875 87 522.921875 89 c 1
 530.921875 80 l 1
 530.921875 82 l 1
 522.921875 90 l 1
 524.921875 91 525.921875 94 527.921875 97 c 2
 526.921875 98 l 1
 522.921875 90 517.921875 86 515.921875 88 c 0
 514.921875 91 504.921875 98 497.921875 93 c 1
 468.921875 103 446.921875 110 427.921875 111 c 0
421.921875 99 m 0
 429.921875 101 437.921875 99 438.921875 95 c 0
 439.921875 91 433.921875 86 424.921875 84 c 0
 416.921875 82 408.921875 83 407.921875 87 c 0
 406.921875 91 412.921875 97 421.921875 99 c 0
442.921875 75 m 0
 446.921875 75 449.921875 74 450.921875 71 c 0
 452.921875 66 446.921875 60 438.921875 57 c 0
 429.921875 54 421.921875 55 419.921875 60 c 0
 418.921875 64 423.921875 71 432.921875 74 c 0
 435.921875 75 439.921875 76 442.921875 75 c 0
305.921875 -291 m 0
 311.921875 -291 315.921875 -299 315.921875 -307 c 0x90
 315.921875 -316 311.921875 -323 305.921875 -323 c 0
 300.921875 -323 295.921875 -316 295.921875 -307 c 0
 295.921875 -299 300.921875 -291 305.921875 -291 c 0
339.921875 -289 m 0
 344.921875 -289 348.921875 -296 348.921875 -304 c 0
 348.921875 -313 344.921875 -320 339.921875 -320 c 0
 334.921875 -320 330.921875 -313 330.921875 -304 c 0
 330.921875 -296 334.921875 -289 339.921875 -289 c 0
EndSplineSet
Validated: 37
EndChar

StartChar: r
Encoding: 83 114 83
Width: 336
GlyphClass: 1
Flags: W
HStem: 180 1<318.308 324.308> 184 1<314.741 315.446>
VStem: 20.3076 304
LayerCount: 2
Fore
SplineSet
292.307617188 272 m 1
 327.307617188 246 320.307617188 204 311.307617188 188 c 0
 312.307617188 186 314.307617188 185 317.307617188 185 c 0
 318.307617188 185 318.307617188 183 318.307617188 181 c 1
 324.307617188 181 l 1
 323.307617188 180 l 1
 318.307617188 181 l 1
 318.307617188 180 317.307617188 178 316.307617188 177 c 2
 315.307617188 176 l 1
 318.307617188 181 318.307617188 184 317.307617188 184 c 0
 315.307617188 184 312.307617188 185 310.307617188 188 c 0
 232.307617188 199 254.307617188 277 254.307617188 277 c 1
 303.307617188 366 28.3076171875 457 195.307617188 10 c 1
 178.307617188 -10 83.3076171875 -9 20.3076171875 8 c 1
 79.3076171875 60 75.3076171875 408 17.3076171875 369 c 1
 50.3076171875 427 93.3076171875 374 87.3076171875 345 c 1
 100.307617188 417 390.307617188 463 292.307617188 272 c 1
301.307617188 241 m 0
 300.307617188 242 299.307617188 242 298.307617188 242 c 0
 296.307617188 241 296.307617188 235 298.307617188 228 c 0
 299.307617188 222 303.307617188 217 305.307617188 219 c 0
 307.307617188 220 307.307617188 226 306.307617188 232 c 0
 305.307617188 236 303.307617188 240 301.307617188 241 c 0
EndSplineSet
Validated: 37
EndChar

StartChar: s
Encoding: 84 115 84
Width: 378
GlyphClass: 1
Flags: W
HStem: 73 1<28.5243 31.7695>
LayerCount: 2
Fore
SplineSet
294.76953125 0 m 1
 428.76953125 40 381.76953125 190 279.76953125 218 c 1
 -99.23046875 342 232.76953125 415 340.76953125 379 c 1
 186.76953125 464 -159.23046875 321 151.76953125 193 c 1
 313.76953125 162 344.76953125 20 161.76953125 68 c 1
 141.76953125 112 91.76953125 116 31.76953125 74 c 0
 25.76953125 74 21.76953125 78 18.76953125 84 c 0
 17.76953125 86 13.76953125 84 10.76953125 83 c 2
 4.76953125 93 l 1
 4.76953125 91 l 1
 10.76953125 83 l 1
 8.76953125 82 6.76953125 81 3.76953125 78 c 1
 4.76953125 77 l 1
 10.76953125 83 16.76953125 85 17.76953125 82 c 1
 17.76953125 80 23.76953125 73 31.76953125 73 c 1
 62.76953125 37 87.76953125 16 138.76953125 27 c 1
 197.76953125 11 207.76953125 1 247.76953125 -1 c 2
 294.76953125 0 l 1
107.76953125 70 m 0
 104.76953125 70 101.76953125 69 98.76953125 70 c 0
 89.76953125 71 82.76953125 77 83.76953125 82 c 0
 84.76953125 87 92.76953125 90 101.76953125 89 c 0
 110.76953125 87 117.76953125 82 116.76953125 77 c 0
 116.76953125 74 112.76953125 71 107.76953125 70 c 0
EndSplineSet
Validated: 37
EndChar

StartChar: t
Encoding: 85 116 85
Width: 440
GlyphClass: 1
Flags: W
HStem: 366 20G<360.461 368.961> 368 17G<360.461 368.961 447.461 455.461>
VStem: 200.461 15<49.5809 81.0803>
LayerCount: 2
Fore
SplineSet
199.4609375 -33 m 1x20
 199.4609375 -33 203.4609375 -24 204.4609375 -25 c 0
 206.4609375 -27 207.4609375 -28 210.4609375 -30 c 2
 210.4609375 -30 218.4609375 -33 211.4609375 -29 c 0
 204.4609375 -25 201.4609375 -20 203.4609375 -18 c 0
 205.4609375 -17 210.4609375 -7 207.4609375 0 c 1
 261.4609375 29 285.4609375 54 227.4609375 137 c 1
 254.4609375 318 l 1
 215.4609375 315 197.4609375 310 163.4609375 314 c 1
 192.4609375 135 l 1
 119.4609375 62 154.4609375 29 205.4609375 1 c 1
 208.4609375 -7 206.4609375 -12 201.4609375 -18 c 0
 200.4609375 -19 203.4609375 -23 204.4609375 -25 c 2
 198.4609375 -33 l 1
 199.4609375 -33 l 1x20
188.4609375 85 m 0
 194.4609375 85 200.4609375 76 200.4609375 66 c 0
 200.4609375 56 194.4609375 48 188.4609375 48 c 0
 182.4609375 48 176.4609375 56 176.4609375 66 c 0
 176.4609375 76 182.4609375 85 188.4609375 85 c 0
225.4609375 82 m 0
 231.4609375 82 236.4609375 74 236.4609375 64 c 0
 236.4609375 54 231.4609375 46 225.4609375 46 c 0
 220.4609375 46 215.4609375 54 215.4609375 64 c 0
 215.4609375 74 220.4609375 82 225.4609375 82 c 0
301.4609375 386 m 1xa0
 125.4609375 369 88.4609375 377 -11.5390625 391 c 1
 103.4609375 312 177.4609375 308 305.4609375 335 c 1
 359.4609375 328 377.4609375 315 426.4609375 359 c 1
 433.4609375 357 441.4609375 362 442.4609375 365 c 1
 443.4609375 366 448.4609375 364 452.4609375 357 c 1
 453.4609375 358 l 2
 451.4609375 361 450.4609375 363 448.4609375 364 c 1
 455.4609375 370 l 1
 455.4609375 371 l 1
 448.4609375 364 l 2
 446.4609375 365 443.4609375 367 441.4609375 366 c 0
 437.4609375 361 433.4609375 358 426.4609375 361 c 1
 419.4609375 387 363.4609375 431 301.4609375 386 c 1xa0
364.4609375 386 m 0
 373.4609375 386 380.4609375 382 380.4609375 377 c 0
 380.4609375 372 373.4609375 368 364.4609375 368 c 0x60
 356.4609375 368 349.4609375 372 349.4609375 377 c 0
 349.4609375 382 356.4609375 386 364.4609375 386 c 0
252.4609375 387 m 1
 252.4609375 387 238.4609375 655 190.4609375 702 c 1
 158.4609375 382 l 1
 204.4609375 383 222.4609375 383 252.4609375 387 c 1
EndSplineSet
Validated: 37
EndChar

StartChar: u
Encoding: 86 117 86
Width: 414
GlyphClass: 1
Flags: W
HStem: 375 20G<69.9229 76.9229>
VStem: 325.923 7<37.5443 59.1718>
LayerCount: 2
Fore
SplineSet
313.922851562 400 m 0
 279.922851562 398 241.922851562 293 246.922851562 99 c 1
 40.9228515625 2 83.9228515625 206 69.9228515625 395 c 1
 69.9228515625 395 -31.0771484375 93 69.9228515625 25 c 0
 137.922851562 -20 269.922851562 8 295.922851562 54 c 0
 306.922851562 73 311.922851562 82 316.922851562 90 c 1
 316.922851562 86 316.922851562 83 316.922851562 79 c 0
 288.922851562 48 299.922851562 13 329.922851562 6 c 1
 335.922851562 -1 332.922851562 -6 327.922851562 -11 c 0
 325.922851562 -13 328.922851562 -16 330.922851562 -17 c 1
 323.922851562 -25 l 1
 324.922851562 -25 l 1
 330.922851562 -18 l 1
 331.922851562 -19 333.922851562 -20 336.922851562 -22 c 2
 338.922851562 -21 l 1
 330.922851562 -18 327.922851562 -13 328.922851562 -11 c 0
 331.922851562 -11 337.922851562 -1 331.922851562 5 c 1
 335.922851562 4 340.922851562 3 343.922851562 4 c 2
 343.922851562 4 354.922851562 4 364.922851562 13 c 1
 371.922851562 27 383.922851562 45 359.922851562 80 c 1
 378.922851562 300 347.922851562 402 313.922851562 400 c 0
318.922851562 62 m 0
 322.922851562 62 325.922851562 56 325.922851562 49 c 0
 325.922851562 41 322.922851562 36 318.922851562 36 c 0
 314.922851562 36 310.922851562 41 310.922851562 49 c 0
 310.922851562 56 314.922851562 62 318.922851562 62 c 0
339.922851562 61 m 0
 343.922851562 61 347.922851562 55 347.922851562 48 c 0
 347.922851562 41 343.922851562 36 339.922851562 36 c 0
 335.922851562 36 332.922851562 41 332.922851562 48 c 0
 332.922851562 55 335.922851562 61 339.922851562 61 c 0
EndSplineSet
Validated: 41
EndChar

StartChar: v
Encoding: 87 118 87
Width: 381
GlyphClass: 1
Flags: W
HStem: 362 67G<289.539 298.039 302.039 302.539 319.539 323.539> 368 20G<293.039 298.039> 392 17<313.935 328.101>
VStem: 304.539 9<369.442 386.076>
LayerCount: 2
Fore
SplineSet
289.5390625 441 m 1x30
 288.5390625 441 l 1
 295.5390625 432 l 2
 294.5390625 430 291.5390625 426 293.5390625 425 c 0
 298.5390625 419 301.5390625 414 298.5390625 407 c 1
 267.5390625 398 238.5390625 355 287.5390625 316 c 1
 325.5390625 176 267.5390625 199 205.5390625 75 c 1
 113.5390625 167 68.5390625 267 37.5390625 407 c 1
 17.5390625 128.883789062 153.166992188 -8.6005859375 213.5390625 -1 c 0
 324.489257812 12.9677734375 398.5390625 113 331.5390625 318 c 1
 355.5390625 384 336.5390625 408 312.5390625 409 c 2
 311.5390625 409 l 2
 307.5390625 409 304.5390625 409 300.5390625 408 c 1
 303.5390625 415 297.5390625 424 295.5390625 425 c 0
 293.5390625 427 296.5390625 433 303.5390625 437 c 1
 302.5390625 438 l 2
 299.5390625 436 297.5390625 434 296.5390625 433 c 1
 289.5390625 441 l 1x30
321.5390625 392 m 0
 325.5390625 392 328.5390625 387 328.5390625 380 c 0
 328.5390625 373 325.5390625 368 321.5390625 368 c 0x70
 317.5390625 368 313.5390625 373 313.5390625 380 c 0
 313.5390625 387 317.5390625 392 321.5390625 392 c 0
295.5390625 388 m 0
 300.5390625 388 304.5390625 382 304.5390625 375 c 0
 304.5390625 368 300.5390625 362 295.5390625 362 c 0x90
 290.5390625 362 286.5390625 368 286.5390625 375 c 0
 286.5390625 382 290.5390625 388 295.5390625 388 c 0
EndSplineSet
Validated: 41
EndChar

StartChar: w
Encoding: 88 119 88
Width: 607
GlyphClass: 1
Flags: W
HStem: 359 20G<522.231 526.731> 381 13<542.214 552.447> 414 4G<523.231 530.731 534.731 535.231>
VStem: 247.231 125<170.288 338.541> 532.231 9<356.938 377.769>
LayerCount: 2
Fore
SplineSet
523.231445312 426 m 1
 522.231445312 426 l 1
 529.231445312 417 l 2
 528.231445312 415 525.231445312 412 527.231445312 410 c 0
 532.231445312 405 535.231445312 400 531.231445312 392 c 1
 500.231445312 385 470.231445312 344 518.231445312 305 c 1
 554.231445312 172 509.231445312 82 450.231445312 102 c 0
 413.231445312 114 356.231445312 207 372.231445312 313 c 1
 332.231445312 512 234.231445312 332 247.231445312 311 c 1
 283.231445312 177 249.231445312 77 190.231445312 97 c 0
 127.231445312 117 63.2314453125 254 34.2314453125 387 c 1
 4.2314453125 -32 267.231445312 -78 325.231445312 102 c 1
 427.231445312 -87 653.231445312 20 560.231445312 307 c 1
 582.231445312 370 565.231445312 393 542.231445312 394 c 0
 541.231445312 394 541.231445312 394 540.231445312 394 c 0
 538.231445312 394 536.231445312 393 533.231445312 393 c 1
 537.231445312 400 531.231445312 410 528.231445312 411 c 0
 527.231445312 412 530.231445312 418 537.231445312 422 c 1
 536.231445312 423 l 2
 533.231445312 421 531.231445312 420 530.231445312 418 c 1
 523.231445312 426 l 1
548.231445312 381 m 0
 551.231445312 381 554.231445312 375 554.231445312 368 c 0
 554.231445312 361 551.231445312 356 548.231445312 356 c 0
 544.231445312 356 541.231445312 361 541.231445312 368 c 0
 541.231445312 375 544.231445312 381 548.231445312 381 c 0
524.231445312 379 m 0
 529.231445312 379 532.231445312 373 532.231445312 365 c 0
 532.231445312 358 529.231445312 351 524.231445312 351 c 0
 520.231445312 351 517.231445312 358 517.231445312 365 c 0
 517.231445312 373 520.231445312 379 524.231445312 379 c 0
EndSplineSet
Validated: 41
EndChar

StartChar: x
Encoding: 89 120 89
Width: 424
GlyphClass: 1
Flags: W
HStem: -1 1<394.692 403.692> 5 1<385.581 391.615> 6 22<79.74 100.059> 6 11<105.786 121.61>
VStem: 69.6924 1<-19 -9> 392.692 1<-8 -6.38007>
LayerCount: 2
Fore
SplineSet
70.6923828125 -19 m 1xac
 72.6923828125 -9 l 2
 74.6923828125 -9 78.6923828125 -9 79.6923828125 -7 c 0
 80.6923828125 0 82.6923828125 5 89.6923828125 6 c 0
 92.6923828125 6 95.6923828125 6 98.6923828125 6 c 0
 130.692382812 7 170.692382812 32 148.692382812 83 c 1
 159.692382812 109 171.692382812 133 181.692382812 155 c 1
 163.692382812 173 146.692382812 188 130.692382812 208 c 1
 115.692382812 174 107.692382812 140 110.692382812 95 c 1
 77.6923828125 87 43.6923828125 37 87.6923828125 7 c 1
 80.6923828125 5 77.6923828125 -3 78.6923828125 -6 c 1
 77.6923828125 -8 71.6923828125 -8 64.6923828125 -5 c 1
 64.6923828125 -6 l 2
 67.6923828125 -8 69.6923828125 -8 71.6923828125 -8 c 1
 69.6923828125 -18 l 1
 70.6923828125 -19 l 1xac
392.692382812 -8 m 1
 393.692382812 -8 l 2
 394.692382812 -5 394.692382812 -3 394.692382812 -1 c 1
 403.692382812 -1 l 1
 404.692382812 0 l 1
 394.692382812 0 l 2
 393.692382812 2 393.692382812 6 391.692382812 6 c 0x9c
 384.692382812 6 379.692382812 7 376.692382812 14 c 1
 393.692382812 40 386.692382812 92 315.692382812 95 c 1
 203.9375 268.286132812 96.283203125 311.650390625 24.6923828125 396 c 1
 66.6923828125 269 169.692382812 156 287.692382812 68 c 1
 283.692382812 42 311.692382812 2 350.692382812 4 c 0
 358.692382812 5 366.692382812 7 375.692382812 12 c 1
 378.692382812 5 388.692382812 4 390.692382812 5 c 1xcc
 392.692382812 5 394.692382812 -1 392.692382812 -8 c 1
335.692382812 24 m 0
 334.692382812 24 333.692382812 24 331.692382812 24 c 0
 322.692382812 24 316.692382812 29 316.692382812 34 c 0
 316.692382812 39 324.692382812 43 333.692382812 42 c 0
 342.692382812 41 349.692382812 37 348.692382812 32 c 0
 348.692382812 27 342.692382812 24 335.692382812 24 c 0
111.692382812 17 m 1
 109.692382812 17 107.692382812 17 105.692382812 19 c 0
 102.692382812 22 104.692382812 31 110.692382812 38 c 0
 116.692382812 45 124.692382812 47 128.692382812 43 c 0
 131.692382812 39 129.692382812 31 123.692382812 24 c 0
 120.692382812 20 115.692382812 17 111.692382812 17 c 1
356.692382812 42 m 2
 351.692382812 42 346.692382812 48 343.692382812 57 c 0
 339.692382812 66 340.692382812 76 345.692382812 77 c 0
 349.692382812 79 356.692382812 72 359.692382812 62 c 0
 363.692382812 53 362.692382812 43 357.692382812 42 c 2
 356.692382812 42 l 2
90.6923828125 28 m 0xac
 83.6923828125 27 78.6923828125 35 77.6923828125 44 c 0
 77.6923828125 53 82.6923828125 61 88.6923828125 61 c 0
 94.6923828125 61 99.6923828125 54 100.692382812 45 c 0
 100.692382812 36 96.6923828125 28 90.6923828125 28 c 0xac
220.692382812 224 m 1
 267.692382812 315 288.692382812 345 330.692382812 408 c 1
 263.692382812 360 213.692382812 336 170.692382812 272 c 1
 190.692382812 258 201.692382812 243 220.692382812 224 c 1
EndSplineSet
Validated: 41
EndChar

StartChar: y
Encoding: 90 121 90
Width: 485
GlyphClass: 1
Flags: W
HStem: -300 1<26.1533 39.1533> -293 1<42.8779 49.8831>
VStem: 40.1533 1<-309 -307.337>
LayerCount: 2
Fore
SplineSet
98.1533203125 410 m 1
 104.153320312 170 244.153320312 160 259.153320312 112 c 1
 299.153320312 181 l 1
 278.153320312 214 163.153320312 211 98.1533203125 410 c 1
450.153320312 414 m 1
 266.0703125 122.13671875 118.689453125 -147.905273438 120.153320312 -150 c 1
 48.1533203125 -159 34.1533203125 -231 63.1533203125 -283 c 1
 59.1533203125 -290 52.1533203125 -292 43.1533203125 -292 c 0
 40.1533203125 -291 39.1533203125 -296 39.1533203125 -299 c 1
 25.1533203125 -299 l 1
 26.1533203125 -300 l 1
 39.1533203125 -300 l 1
 38.1533203125 -302 39.1533203125 -305 40.1533203125 -309 c 1
 41.1533203125 -309 l 1
 39.1533203125 -300 41.1533203125 -293 44.1533203125 -293 c 0
 47.1533203125 -294 61.1533203125 -292 65.1533203125 -284 c 1
 130.153320312 -282 177.153320312 -253 173.153320312 -172 c 1
 175.947265625 -172.315429688 394.454101562 92.2294921875 450.153320312 414 c 1
326.153320312 54 m 1
 341.153320312 2 420.153320312 -6 451.153320312 14 c 1
 455.153320312 8 463.153320312 12 463.153320312 14 c 0
 465.153320312 15 468.153320312 12 471.153320312 7 c 1
 471.153320312 8 l 2
 470.153320312 10 469.153320312 11 468.153320312 12 c 1
 473.153320312 16 l 1
 473.153320312 17 l 1
 468.153320312 13 l 2
 466.153320312 14 464.153320312 16 463.153320312 15 c 0
 460.153320312 12 456.153320312 10 451.153320312 15 c 1
 449.153320312 49 421.153320312 126 362.153320312 129 c 1
 345.153320312 85 330.983398438 61.4296875 326.153320312 54 c 1
392.153320312 75 m 0
 395.153320312 78 402.153320312 76 408.153320312 70 c 0
 414.153320312 65 416.153320312 58 414.153320312 55 c 0
 411.153320312 52 404.153320312 54 398.153320312 59 c 0
 392.153320312 65 389.153320312 72 392.153320312 75 c 0
96.1533203125 -194 m 0
 98.1533203125 -194 100.153320312 -195 102.153320312 -195 c 0
 109.153320312 -199 110.153320312 -210 105.153320312 -219 c 0
 100.153320312 -228 90.1533203125 -232 83.1533203125 -228 c 0
 76.1533203125 -225 75.1533203125 -214 80.1533203125 -205 c 0
 84.1533203125 -198 90.1533203125 -194 96.1533203125 -194 c 0
EndSplineSet
Validated: 41
EndChar

StartChar: z
Encoding: 91 122 91
Width: 502
GlyphClass: 1
Flags: W
LayerCount: 2
Fore
SplineSet
147.692382812 8 m 1
 194.692382812 -5 260.692382812 -6 347.692382812 14 c 1
 477.692382812 3 437.692382812 22 479.692382812 65 c 1
 488.692382812 68 494.692382812 64 500.692382812 57 c 0
 502.692382812 55 507.692382812 57 509.692382812 59 c 1
 519.692382812 49 l 1
 519.692382812 50 l 1
 510.692382812 60 l 1
 512.692382812 61 514.692382812 63 517.692382812 66 c 1
 516.692382812 68 l 1
 510.692382812 60 503.692382812 56 501.692382812 59 c 1
 500.692382812 62 487.692382812 72 477.692382812 66 c 1
 408.692382812 120 349.692382812 118 322.692382812 66 c 1
 14.6923828125 77 150.692382812 130 331.692382812 209 c 1
 681.692382812 338 230.692382812 492 42.6923828125 363 c 1
 231.692382812 400 559.692382812 347 163.692382812 211 c 1
 -12.3076171875 172 0.6923828125 48 147.692382812 8 c 1
387.692382812 38 m 0
 384.692382812 39 382.692382812 40 381.692382812 42 c 0
 380.692382812 47 385.692382812 53 394.692382812 56 c 0
 402.692382812 60 411.692382812 58 412.692382812 54 c 0
 414.692382812 49 409.692382812 43 400.692382812 39 c 0
 395.692382812 38 390.692382812 37 387.692382812 38 c 0
389.692382812 72 m 0
 379.692382812 75 372.692382812 81 374.692382812 86 c 0
 375.692382812 91 384.692382812 93 394.692382812 90 c 0
 404.692382812 87 411.692382812 81 410.692382812 76 c 0
 409.692382812 71 399.692382812 70 389.692382812 72 c 0
EndSplineSet
Validated: 41
EndChar

StartChar: braceleft
Encoding: 92 123 92
Width: 229
GlyphClass: 1
Flags: W
HStem: -1 16<169.354 196.786> 7 8<229.787 243> 29 33<169.004 196.11>
LayerCount: 2
Fore
SplineSet
249 13 m 1x60
 249 13 229 15 224 15 c 1x60
 208 49 204 60 143 62 c 1
 34 165 76.076171875 183.93359375 168 290 c 0
 181 305 110 344 110 344 c 1
 110 344 180.224609375 392.34375 162 404 c 0
 -35 530 66 626 220 700 c 1
 -41 650 -57 469 88 388 c 1
 58 364 12.1083984375 340.314453125 30 334 c 0
 64 322 96 282 96 282 c 1
 -63 155 4 88 126 28 c 0
 150.819335938 15.7939453125 162 -1 180 -1 c 0xa0
 192 -1 205 4 222 13 c 1
 222 13 223 14 223 15 c 1
 221 14 l 1
 222 14 l 2
 227 12 239 7 243 7 c 1
 235 12 l 1
 239 14 249 13 249 13 c 1x60
183 15 m 0xa0
 175 15 169 18 169 22 c 0
 169 26 175 29 183 29 c 0
 191 29 197 26 197 22 c 0
 197 18 191 15 183 15 c 0xa0
267 -14 m 1
 265 -11 269 -18 267 -14 c 1
239 -5 m 1
 244 -11 l 1
 239 -5 l 1
243 1 m 1
 227 0 l 1
 243 1 l 1
239 -32 m 1
 238 -4 l 1
 239 -32 l 1
EndSplineSet
Validated: 37
EndChar

StartChar: bar
Encoding: 93 124 93
Width: 187
GlyphClass: 1
Flags: W
HStem: -5 32<100.007 136.792>
VStem: 81 19<30.0059 57.1789>
LayerCount: 2
Fore
SplineSet
100 -38 m 1
 102 -38 l 1
 88 -30 l 1
 91 -28 95 -24 93 -23 c 0
 83 -17 77 -12 84 -5 c 1
 200 6 193 95 141 127 c 1
 201 318 206 527 91 702 c 1
 101 551 15 394 58 134 c 1
 -49 75 16 11 81 -5 c 1
 73 -12 85 -22 90 -23 c 0
 93 -25 87 -30 74 -35 c 0
 60 -39 76 -35 76 -35 c 2
 81 -33 85 -32 87 -30 c 0
 89 -29 100 -38 100 -38 c 1
120 25 m 0
 109 25 100 33 100 42 c 0
 100 52 109 60 120 60 c 0
 131 60 140 52 140 42 c 0
 140 33 131 25 120 25 c 0
60 27 m 0
 49 27 40 35 40 44 c 0
 40 54 49 61 60 61 c 0
 72 61 81 54 81 44 c 0
 81 35 72 27 60 27 c 0
EndSplineSet
Validated: 37
EndChar

StartChar: braceright
Encoding: 94 125 94
Width: 232
GlyphClass: 1
Flags: W
HStem: -2 10<30.9468 58.4126> 22 40<30.4734 58.9956>
VStem: 1 29<13 21.9329>
LayerCount: 2
Fore
SplineSet
-9 10 m 1
 -9 10 -9 10 -10 11 c 2
 -12 10 l 2
 -13 9 -15 8 -17 7 c 0
 -21 5 -23 4 -24 3 c 0
 -26 0 -6 10 1 13 c 1
 19 3 33 -2 45 -2 c 0
 64 -2 77.513671875 9.5517578125 99 28 c 0
 198 113 307 167 145 296 c 1
 145 296 102.688476562 306.896484375 139 319 c 0
 157 325 161 360 131 384 c 1
 278 466 263 649 -1 700 c 1
 154 625 249.763671875 514.797851562 49 388 c 0
 30 376 105 334 105 334 c 1
 105 334 39.052734375 318.045898438 53 302 c 0
 146 195 193 166 82 62 c 1
 22 60 17 49 1 16 c 1
 1 16 1 14 1 13 c 1
 3 14 4 14 4 14 c 1
 4 14 4 16 2 16 c 0
 0 15 -4 14 -10 11 c 0
 -12 11 -15 12 -23 12 c 0
 -33 12 -18 11 -12 10 c 0
 -10 10 -9 10 -9 10 c 1
45 8 m 0
 37 8 30 11 30 15 c 0
 30 19 37 22 45 22 c 0
 53 22 59 19 59 15 c 0
 59 11 53 8 45 8 c 0
EndSplineSet
Validated: 37
EndChar

StartChar: asciitilde
Encoding: 95 126 95
Width: 651
GlyphClass: 1
Flags: W
LayerCount: 2
Fore
SplineSet
631 762 m 1
 631 762 623 767 624 768 c 0
 626 769 627 770 628 773 c 2
 628 773 631 779 628 774 c 0
 624 768 620 765 618 767 c 0
 617 769 609 774 603 771 c 1
 591 800 537 830 487 782 c 1
 324 687 192 929 18 723 c 1
 242 860 333 602 493 746 c 1
 519 722 593 718 603 769 c 1
 609 772 614 770 618 765 c 0
 619 764 622 766 624 767 c 2
 631 761 l 1
 631 762 l 1
571 754 m 0
 571 749 564 745 556 745 c 0
 548 745 542 749 542 754 c 0
 542 759 549 763 557 763 c 0
 564 763 571 759 571 754 c 0
562 784 m 0
 562 779 556 775 548 775 c 0
 540 775 534 779 534 784 c 0
 534 789 541 793 548 793 c 0
 556 793 562 789 562 784 c 0
EndSplineSet
Validated: 41
EndChar

StartChar: cent
Encoding: 97 162 97
Width: 351
GlyphClass: 1
Flags: W
HStem: 86 19<299.062 323.368> 364 26<137.3 219> 393 21G<189 206>
VStem: 170 34<136.242 336.722> 181 23<293.334 360>
LayerCount: 2
Fore
SplineSet
195 0 m 1xe0
 193 -2 197 -9 196 -9 c 2
 196 -9 195 -4 194 -4 c 0
 193 -4 191 -9 191 -9 c 1
 191 -9 193 -3 194 -1 c 0
 194 0 192 0 192 0 c 1
 157 13 173 47 175 83 c 1
 187 82 200 81 212 83 c 1
 227 62 227 44 223 30 c 0
 219 13 203 1 195 0 c 1xe0
208 26 m 0
 211 27 213 30 214 34 c 0
 215 41 214 48 211 50 c 0
 207 52 204 49 202 43 c 0
 201 36 203 29 206 27 c 0
 207 27 207 26 208 26 c 0
197 84 m 0
 -19 87 -110 393 219 390 c 1
 219 390 293 381 307 354 c 0
 310 348 248 364 220 364 c 0
 6 384 13 86 255 139 c 1
 319 174 339 148 351 139 c 1
 357 137 360 140 364 145 c 0
 365 146 368 145 370 144 c 2
 376 150 l 1
 371 143 l 2
 372 142 374 141 376 139 c 1
 375 138 l 1
 371 143 366 145 364 143 c 0
 364 141 357 136 350 137 c 1
 344 114 334 90 309 86 c 0
 299 85 285 87 268 94 c 1
 243 87 220 84 197 84 c 0
310 105 m 0
 311 105 312 105 313 106 c 0
 320 107 325 111 324 115 c 0
 323 119 317 121 310 120 c 0
 304 119 299 115 299 111 c 0
 300 108 305 105 310 105 c 0
204 135 m 1xe8
 190 134 180 136 170 137 c 1xf0
 163 219 164 289 181 360 c 1
 188 360 197 362 204 361 c 1
 198 269 204 208 204 135 c 1xe8
189 393 m 1
 195 412 206 452 214 470 c 1
 212 451 207 412 205 393 c 1
 200 393 199 394 189 393 c 1
EndSplineSet
Validated: 37
EndChar

StartChar: sterling
Encoding: 98 163 98
Width: 521
GlyphClass: 1
Flags: W
HStem: 36 8<47.2676 68.4569> 40 2<-1.03284 3.69684> 333 29<333 356.027> 379 1<-17 -13> 384 25G<108 331> 395 14<45.7159 68.0908> 587 87<207 303>
VStem: 133 36<284.656 345>
LayerCount: 2
Fore
SplineSet
207 674 m 0x33
 182 674 157 669 139 652 c 0
 74 593 131 388 131 388 c 1
 170 390 l 1
 170 390 142 547 195 591 c 0
 239 627 303 587 303 587 c 1
 296 535 330 489 357 490 c 0
 360 490 362 491 365 491 c 0
 366 489 368 490 370 492 c 1
 368 491 366 490 365 491 c 2
 364 492 l 1
 368 493 372 496 375 501 c 0
 428 594 364 651 321 644 c 1
 321 644 263 673 207 674 c 0x33
361 585 m 0
 366 585 371 581 371 575 c 0
 371 570 366 565 361 565 c 0
 356 565 351 570 351 575 c 0
 351 581 356 585 361 585 c 0
57 395 m 0x37
 64 395 69 390 69 385 c 0
 69 379 64 375 57 375 c 0
 50 375 45 379 45 385 c 0
 45 390 50 395 57 395 c 0x37
57 62 m 0
 65 61 71 57 71 52 c 0
 71 47 65 44 57 44 c 0xb3
 49 44 43 48 43 53 c 0
 43 58 50 62 57 62 c 0
58 36 m 0
 66 35 72 31 72 26 c 0
 72 21 66 17 58 17 c 0
 51 17 44 22 45 27 c 0
 45 32 51 36 58 36 c 0
376 484 m 1
 370 476 l 1
 376 484 l 1
62 409 m 1x37
 37 409 22 392 -1 389 c 0
 -7 391 -13 383 -13 380 c 0
 -14 379 -18 380 -22 384 c 1
 -22 383 l 2
 -20 381 -19 380 -18 380 c 1
 -21 372 l 1
 -21 371 l 1
 -17 379 l 2
 -16 379 -13 378 -12 379 c 0
 -10 385 -7 389 -1 388 c 1
 31 333 68 323 115 347 c 1
 329 362 l 2
 358 362 370 356 333 333 c 1
 415 345 380 408 331 396 c 1
 121 384 l 1x3b
 95 403 77 409 62 409 c 1x37
169 347 m 1
 133 345 l 1
 132 61 l 2
 131 61 129 61 127 61 c 0
 101 84 28 88 18 38 c 1
 12 35 8 37 3 42 c 0
 2 43 -1 41 -3 40 c 2
 -9 46 l 1
 -9 45 l 1
 -3 39 l 1
 -4 38 -6 37 -7 34 c 2
 -7 33 l 1
 -3 39 2 42 3 40 c 0x73
 4 38 12 33 18 36 c 1xb3
 30 8 83 -22 132 24 c 1
 350 42 395 34 519 27 c 1
 379 79 288 84 137 62 c 1
 169 347 l 1
EndSplineSet
Validated: 37
EndChar

StartChar: dieresis
Encoding: 99 168 99
Width: 338
GlyphClass: 1
Flags: W
HStem: 637 41<229.231 248.892> 650 30<50.0974 75.191>
VStem: 22 28<605.671 643> 76 20<605.702 639.528> 201 21<591.977 627.812> 249 23<591.534 636.616>
LayerCount: 2
Fore
SplineSet
235 637 m 4xbc
 243 637 249 626 249 614 c 4
 249 601 243 591 235 591 c 4
 228 591 222 601 222 614 c 4
 222 619 223 624 225 628 c 6
 225 628 228 633 229 635 c 6
 211 649 l 5
 206 640 202 627 201 617 c 4
 200 593 212 570 232 558 c 4
 261 540 299 550 316 581 c 4
 334 612 324 651 295 669 c 4
 285 676 273 679 261 678 c 4
 241 678 222 667 211 649 c 6
 210 647 l 5
 229 635 l 5
 234 638 234 637 235 637 c 4xbc
63 650 m 4x7c
 70 650 76 640 76 627 c 4
 76 615 70 605 63 605 c 4
 56 605 50 621 50 633 c 6
 53 643 l 5
 31 649 l 5
 27 641 23 629 22 619 c 4
 21 595 33 572 53 560 c 4
 83 542 120 552 138 583 c 4
 155 614 146 653 116 671 c 4
 106 678 95 681 83 680 c 4
 62 680 42 668 31 649 c 5
 50 634 l 5
 50 639 50 638 52 642 c 5
 50 634 l 5
 52 639 59 650 63 650 c 4x7c
286 637 m 4xbc
 294 637 300 626 300 612 c 4
 300 599 294 588 286 588 c 4
 278 588 272 599 272 612 c 4
 272 626 278 637 286 637 c 4xbc
110 641 m 4
 118 641 124 630 124 617 c 4
 124 604 118 593 110 593 c 4
 103 593 96 604 96 617 c 4
 96 630 103 641 110 641 c 4
EndSplineSet
Validated: 37
EndChar

StartChar: copyright
Encoding: 100 169 100
Width: 672
GlyphClass: 1
Flags: W
HStem: 450 74<225.649 341.99>
LayerCount: 2
Fore
SplineSet
179 626 m 1
 171 626 164 619 164 617 c 0
 163 615 156 616 149 620 c 1
 149 619 l 2
 152 617 154 616 156 616 c 1
 151 608 l 1
 151 607 l 1
 157 616 l 2
 159 615 164 614 165 616 c 0
 168 621 171 624 179 624 c 1
 178 624 l 1
 183 620 189 617 195 612 c 0
 234 586 275 575 353 582 c 1
 571 549 691 258 458 114 c 1
 361 61 232 74 170 131 c 0
 -89 373 199 589 195 612 c 1
 -97 495 -27 184 140 64 c 0
 296 -47 523 42 548 78 c 1
 747 227 716 555 358 652 c 1
 260 722 197 658 179 626 c 1
261 665 m 0
 274 665 284 662 284 658 c 0
 284 654 274 651 261 651 c 0
 249 651 238 654 238 658 c 0
 238 662 249 665 261 665 c 0
295 524 m 0
 125 522 54 245 249 169 c 1
 311 151 386 152 415 181 c 1
 481 171 486 236 504 248 c 1
 509 251 512 248 516 242 c 0
 517 241 520 244 521 245 c 1
 527 237 l 1
 527 238 l 1
 522 246 l 2
 523 248 524 250 525 253 c 2
 524 255 l 1
 521 246 517 242 516 244 c 0
 515 247 508 255 502 249 c 1
 452 273 430 278 405 231 c 1
 355 186 211 240 200 328 c 0
 183 458 311 517 458 450 c 1
 398 503 343 524 295 524 c 0
448 251 m 0
 451 251 454 249 455 246 c 0
 456 241 452 236 446 234 c 0
 440 231 434 233 432 238 c 0
 431 242 435 248 442 250 c 0
 444 251 446 251 448 251 c 0
EndSplineSet
Validated: 37
EndChar

StartChar: guillemotleft
Encoding: 101 171 101
Width: 540
GlyphClass: 1
Flags: W
LayerCount: 2
Fore
SplineSet
199 530 m 0
 189 532 49 357 6 364 c 1
 27 317 54 283 127 227 c 1
 138 181 180 162 219 156 c 0
 225 153 225 148 224 143 c 0
 224 141 227 140 229 139 c 2
 228 130 l 1
 229 131 l 1
 230 139 l 2
 231 139 233 139 236 139 c 1
 236 140 l 1
 230 139 225 141 225 143 c 0
 226 145 226 154 221 157 c 1
 220 201 203 241 148 253 c 1
 128 288 143 313 72 339 c 1
 112 330 202 517 200 530 c 1
 200 530 200 530 199 530 c 0
483 530 m 1
 472 531 333 357 290 364 c 1
 311 317 338 282 411 227 c 1
 421 180 464 162 503 156 c 0
 508 153 509 148 508 143 c 0
 508 141 511 140 513 139 c 2
 512 130 l 1
 513 131 l 1
 513 139 l 1
 515 139 517 138 520 139 c 2
 520 140 l 1
 513 139 509 141 509 143 c 0
 510 145 510 153 504 157 c 1
 503 201 487 240 431 253 c 1
 411 288 426 312 356 339 c 1
 395 330 486 517 484 529 c 0
 484 530 483 530 483 530 c 1
183 204 m 0
 187 204 191 203 195 200 c 0
 202 196 205 190 202 186 c 0
 200 182 193 183 187 187 c 0
 182 190 179 195 179 198 c 0
 179 199 179 200 179 201 c 0
 180 202 182 203 183 204 c 0
470 203 m 0
 474 204 479 203 483 200 c 0
 489 196 492 190 490 186 c 0
 487 182 480 183 474 187 c 0
 469 190 466 195 466 198 c 0
 466 199 466 200 467 201 c 0
 467 202 469 203 470 203 c 0
EndSplineSet
Validated: 37
EndChar

StartChar: registered
Encoding: 102 174 102
Width: 667
GlyphClass: 1
Flags: W
HStem: 185 2<187.683 187.953> 208 3<507.69 509.953> 225 7<428.003 451.945> 397 21G<174.5 176> 542 9<149.203 267.212> 649 31<255.521 392.782> 651 2<172.345 182.73> 658 1<186 196>
VStem: 174 59<249.871 338.992> 182 35<489.529 541.999> 186 1<661.355 667> 187 10<216.023 229.863>
LayerCount: 2
Fore
SplineSet
355 680 m 5xfc20
 297 682 234 665 167 624 c 1
 167 632 167 639 166 645 c 1
 170 651 175 652 181 651 c 0
 183 651 185 655 186 658 c 2
 196 657 l 1
 196 658 l 1
 186 659 l 1
 187 661 187 663 187 667 c 1
 186 667 l 1
 186 659 183 652 181 653 c 0xfb20
 179 654 169 653 164 646 c 1
 126 652 93 635 71 603 c 0
 55 580 45 550 41 515 c 1
 -90 182 126 -58 426 12 c 0
 473 23 653 99 653 365 c 0
 653 507 544 672 355 680 c 5xfc20
308 649 m 0xfc
 596 651 609 251 463 125 c 0
 327 8 -47 151 105 473 c 1
 160 609 169 571 167 621 c 1
 220 640 267 649 308 649 c 0xfc
116 615 m 2
 116 615 117 614 118 614 c 0
 122 611 118 598 109 585 c 0
 100 572 90 564 85 567 c 0
 81 570 85 583 94 596 c 0
 102 607 111 615 116 615 c 2
201 587 m 1
 195 570 193 573 183 550 c 1
 193 552 202 552 213 553 c 1
 208 569 207 567 201 587 c 1
225 551 m 1
 197 551 168 548 138 542 c 1
 440 568 437 386 232 415 c 0
 81 436 281 302 386 215 c 1
 414 197 462 188 487 211 c 1
 492 212 496 210 501 207 c 0
 502 206 505 207 506 208 c 2
 513 203 l 1
 513 204 l 1
 507 208 l 1
 508 208 509 209 510 211 c 1
 509 211 l 2
 507 208 503 207 501 208 c 0
 500 209 491 214 485 211 c 1
 467 217 476 236 397 232 c 1
 364 339 225 377 292 385 c 0
 570 417 424 550 225 551 c 1
197 542 m 0xf810
 191 542 186 542 182 541 c 2
 175 405 l 1
 180 425 224 417 234 416 c 1
 217 541 l 1xf840
 210 542 203 543 197 542 c 0xf810
176 405 m 1
 174 403 174 400 175 397 c 1
 176 405 l 1
174 397 m 1xf880
 168 322 163 330 182 246 c 1xf840
 162 228 165 206 190 194 c 0
 192 191 190 189 187 187 c 0xf810
 186 187 187 185 188 185 c 1
 183 182 l 1
 184 182 l 1
 188 184 l 2
 189 184 190 183 191 183 c 2
 192 183 l 1
 188 185 187 186 188 187 c 0
 189 187 194 191 190 194 c 1
 220 202 239 214 212 245 c 1
 227 304 220 263 233 334 c 1
 202 362 195 367 174 397 c 1xf880
202 230 m 0
 206 230 208 227 208 223 c 0
 208 219 206 216 202 216 c 0
 199 216 197 219 197 223 c 0xf810
 197 227 199 230 202 230 c 0
181 230 m 0
 184 230 187 227 187 223 c 0
 187 218 184 215 181 215 c 0
 178 215 175 218 175 223 c 0
 175 227 178 230 181 230 c 0
437 225 m 0
 439 225 442 225 444 225 c 0
 452 223 458 219 457 216 c 0
 456 213 449 212 441 214 c 0
 433 215 427 219 428 222 c 0
 428 224 432 225 437 225 c 0
EndSplineSet
Validated: 37
EndChar

StartChar: macron
Encoding: 103 175 103
Width: 551
GlyphClass: 1
Flags: W
LayerCount: 2
Fore
SplineSet
531 741 m 1
 525 745 l 1
 526 746 527 747 529 749 c 1
 528 750 l 1
 525 745 521 743 520 744 c 0
 520 746 513 751 508 748 c 1
 497 772 453 797 411 758 c 1
 228 742 135 747 31 752 c 1
 151 708 283 707 416 727 c 1
 437 707 500 704 508 747 c 1
 513 749 516 747 520 743 c 0
 521 742 524 744 525 745 c 2
 531 740 l 1
 531 741 l 1
476 736 m 0
 476 732 471 728 465 728 c 0
 459 728 454 732 454 737 c 0
 455 741 459 745 465 745 c 0
 471 745 476 741 476 736 c 0
473 761 m 0
 473 757 468 753 461 754 c 0
 455 754 450 757 450 761 c 0
 450 766 455 769 461 769 c 0
 468 769 473 765 473 761 c 0
EndSplineSet
Validated: 37
EndChar

StartChar: degree
Encoding: 104 176 104
Width: 52
GlyphClass: 1
Flags: W
HStem: 690 3<31.0007 33>
LayerCount: 2
Fore
SplineSet
31 693 m 1
 29 693 27 693 25 691 c 0
 -2 684 -5 658 10 646 c 0
 12 643 27 637 39 646 c 0
 52 655 60 677 37 688 c 1
 38 689 34 693 31 693 c 1
33 691 m 2
 34 690 l 2
 34 689 34 689 33 689 c 0
 32 689 31 689 31 690 c 2
 31 690 32 691 33 691 c 2
36 684 m 0
 42 683 59 669 36 649 c 0
 30 646 24 645 17 649 c 0
 -1 661 8 679 24 682 c 0
 35 684 33 682 36 684 c 0
EndSplineSet
Validated: 37
EndChar

StartChar: plusminus
Encoding: 105 177 105
Width: 294
GlyphClass: 1
Flags: W
HStem: 235 5<252 262.378> 253 13<242.5 263.729> 414 13<237.159 259.905> 416 20G<281.5 285> 437 8<237.227 255.788> 454 8<236.238 255.545>
VStem: 134 7<286.409 305.526> 135 22<334.587 417 449 536.057> 265 13<222.692 234.853> 286 2<237 237.038>
LayerCount: 2
Fore
SplineSet
133 611 m 1xcdc0
 135 559 138 516 137 449 c 1
 144 449 151 448 157 448 c 1
 157 505 149 558 133 611 c 1xcdc0
244 462 m 1
 236 462 227 458 218 448 c 1
 114 441 61 447 2 453 c 1
 70 418 144 414 219 425 c 1
 225 419 234 414 244 414 c 0xecc0
 256 413 269 420 272 437 c 0
 275 439 277 437 279 435 c 0
 279 434 281 435 282 436 c 1
 285 432 l 1
 282 436 l 2xdcc0
 282 437 283 437 284 439 c 1
 282 436 280 434 279 435 c 0
 279 437 275 440 272 438 c 1
 269 449 258 461 244 462 c 1
246 454 m 0
 252 454 256 452 256 450 c 0
 256 447 252 445 246 445 c 0
 240 445 236 447 236 450 c 0
 236 452 240 454 246 454 c 0
248 437 m 0
 255 437 260 435 260 432 c 0
 260 429 255 427 248 427 c 0
 242 427 237 429 237 432 c 0
 237 435 242 437 248 437 c 0
135 418 m 1xcdc0
 134 392 132 367 130 333 c 1
 106 303 122 270 137 262 c 1
 135 258 138 254 139 253 c 0
 140 252 138 249 135 247 c 1xcdc0
 136 247 l 2
 137 248 138 249 138 249 c 1
 141 245 l 1xcec0
 142 245 l 1
 138 250 l 2
 139 251 140 252 139 253 c 0
 137 256 136 258 137 262 c 0
 163 268 161 314 149 330 c 1
 153 361 156 387 157 417 c 1
 150 417 142 418 135 418 c 1xcdc0
145 307 m 0
 148 307 149 302 149 296 c 0
 149 290 148 286 145 286 c 0
 143 286 141 290 141 296 c 0xcec0
 141 302 143 307 145 307 c 0
129 306 m 0
 132 306 134 302 134 296 c 0
 134 290 132 286 129 286 c 0
 127 286 125 290 125 296 c 0
 125 302 127 306 129 306 c 0
247 266 m 1
 238 266 228 261 219 248 c 1
 107 235 50 240 -14 244 c 1
 60 207 141 205 222 222 c 1
 235 206 273 203 278 239 c 0
 281 241 283 239 285 236 c 0
 286 235 288 237 288 238 c 1
 292 233 l 1
 292 234 l 1
 289 238 l 2
 289 239 290 240 291 241 c 1
 290 242 l 1
 289 238 286 236 286 237 c 0
 285 239 281 242 278 240 c 1
 274 253 262 266 247 266 c 1
257 253 m 0
 261 253 264 250 264 247 c 0
 264 243 261 240 257 240 c 0
 253 240 250 243 250 247 c 0
 250 251 253 253 257 253 c 0
258 235 m 0
 262 234 265 232 265 228 c 0
 265 225 262 222 258 222 c 0
 254 222 250 225 250 228 c 0
 250 232 254 235 258 235 c 0
EndSplineSet
Validated: 37
EndChar

StartChar: acute
Encoding: 106 180 106
Width: 298
GlyphClass: 1
Flags: W
LayerCount: 2
Fore
SplineSet
278 921 m 1
 278 921 271 919 271 920 c 0
 271 921 271 923 270 924 c 2
 270 924 267 929 269 925 c 0
 271 920 270 916 269 916 c 0
 267 916 260 914 259 909 c 1
 235 915 191 898 196 848 c 1
 101 713 142 770 78 701 c 1
 155 751 159 732 221 834 c 1
 248 839 286 880 260 909 c 0
 261 913 265 915 269 915 c 0
 271 915 271 918 271 919 c 2
 278 920 l 1
 278 921 l 1
255 888 m 0
 259 884 258 876 253 869 c 0
 248 862 241 859 237 863 c 0
 233 866 234 875 239 882 c 0
 244 889 251 891 255 888 c 0
237 900 m 0
 241 897 240 889 236 884 c 0
 231 878 223 876 220 879 c 0
 216 882 216 889 221 895 c 0
 226 901 233 903 237 900 c 0
EndSplineSet
Validated: 41
EndChar

StartChar: cedilla
Encoding: 108 184 108
Width: 243
GlyphClass: 1
Flags: W
LayerCount: 2
Fore
SplineSet
92 13 m 1
 91 12 l 1
 90 8 l 2
 89 8 88 8 85 8 c 1
 85 7 l 1
 90 8 94 7 94 6 c 0
 93 4 93 -2 100 -3 c 1
 85 -14 96 -58 139 -62 c 1
 203 -114 136 -105 98 -136 c 1
 214 -135 283 -74 153 -40 c 1
 162 -30 150 2 119 2 c 0
 114 2 109 1 104 0 c 0
 103 -1 101 -1 100 -2 c 0
 94 0 94 2 95 6 c 0
 95 7 92 7 91 8 c 2
 92 13 l 1
122 -10 m 0
 127 -10 132 -14 132 -19 c 0
 132 -24 127 -28 122 -28 c 0
 116 -28 112 -24 112 -19 c 0
 112 -14 116 -10 122 -10 c 0
EndSplineSet
Validated: 41
EndChar

StartChar: guillemotright
Encoding: 109 187 109
Width: 507
GlyphClass: 1
Flags: W
LayerCount: 2
Fore
SplineSet
250 521 m 1
 250 521 l 1
 249 513 l 2
 248 513 246 513 243 513 c 1
 243 512 l 1
 250 513 254 511 254 509 c 0
 253 507 254 499 260 496 c 1
 264 452 283 415 339 406 c 1
 361 373 348 348 420 327 c 1
 380 333 305 141 308 129 c 0
 311 116 442 311 487 307 c 1
 463 352 433 384 357 433 c 1
 343 479 300 494 261 497 c 0
 255 500 255 504 255 510 c 0
 255 511 252 512 250 513 c 2
 250 521 l 1
10 527 m 1
 9 526 l 1
 9 518 l 1
 7 518 5 518 3 518 c 2
 2 517 l 1
 9 518 14 516 13 514 c 0
 12 512 14 504 19 501 c 1
 23 457 42 420 98 411 c 1
 121 379 108 353 179 332 c 1
 140 338 64 146 67 134 c 0
 70 121 202 316 247 312 c 1
 222 357 193 389 117 439 c 1
 103 484 60 499 20 502 c 0
 15 505 14 509 15 515 c 0
 15 517 11 517 9 518 c 2
 10 527 l 1
299 471 m 0
 301 471 303 470 305 469 c 0
 310 466 313 462 314 458 c 0
 314 457 314 456 313 455 c 0
 311 451 304 451 297 455 c 0
 291 459 287 465 289 469 c 0
 291 471 294 472 299 471 c 0
56 475 m 0
 58 474 61 473 63 472 c 0
 68 470 71 465 71 462 c 0
 71 461 71 460 71 459 c 0
 69 455 62 455 55 458 c 0
 48 462 45 468 47 472 c 0
 48 474 52 475 56 475 c 0
EndSplineSet
Validated: 37
EndChar

StartChar: questiondown
Encoding: 110 191 110
Width: 392
GlyphClass: 1
Flags: W
HStem: 575 22<204.898 232.218>
VStem: 190 13<613.141 635.322>
LayerCount: 2
Fore
SplineSet
189 613 m 2
 199 634 l 1
 174 581 l 1
 182 577 190 575 198 575 c 0
 220 574 241 587 250 608 c 0
 264 637 252 672 224 687 c 0
 196 701 162 689 148 660 c 0
 134 631 145 596 173 581 c 1
 183 602 l 1
 180 598 176 596 172 596 c 0
 163 596 155 608 155 622 c 0
 155 636 163 648 172 648 c 0
 182 648 190 636 190 622 c 0
 190 619 189 616 189 613 c 2
 183 602 l 1
 185 605 187 608 189 613 c 2
329 136 m 0
 318 136 309 142 309 150 c 0
 309 158 318 164 329 164 c 0
 340 164 348 158 348 150 c 0
 348 142 340 136 329 136 c 0
219 597 m 0
 210 597 203 606 203 618 c 0
 203 630 210 640 219 640 c 0
 228 640 236 630 236 618 c 0
 236 606 228 597 219 597 c 0
118 0 m 1
 163 0 221 21 291 72 c 1
 409 102 370 112 396 178 c 1
 406 176 415 186 415 189 c 0
 416 191 424 190 432 184 c 1
 432 186 l 2
 429 188 426 189 424 190 c 1
 430 199 l 1
 430 200 l 1
 423 190 l 2
 420 191 415 192 414 190 c 0
 410 183 405 179 396 179 c 1
 321 225 268 202 256 128 c 1
 42 -17 45 156 237 296 c 1
 416 478 181 552 141 542 c 1
 242 447 284 441 109 329 c 1
 -40 221 -30 0 118 0 c 1
EndSplineSet
Validated: 37
EndChar

StartChar: Agrave
Encoding: 111 192 111
Width: 593
GlyphClass: 1
Flags: W
HStem: 194 48<144.83 402.561> 577 124<256.333 334.238>
VStem: 215 1<793 796.907>
LayerCount: 2
Fore
SplineSet
212 790 m 1
 216 793 l 1
 216 792 216 790 217 791 c 0
 219 793 221 794 223 791 c 0
 211 759 235 750 250 761 c 1
 293 722 342 700 402 710 c 1
 362 725 325 738 262 782 c 1
 260 817 235 807 223 792 c 1
 222 795 218 793 217 792 c 0
 216 791 216 793 216 797 c 1
 215 795 215 794 215 793 c 2
 212 791 l 1
 212 790 l 1
241 799 m 0
 242 799 244 798 246 797 c 0
 248 794 249 791 247 789 c 0
 245 787 241 787 239 790 c 0
 237 792 236 796 238 797 c 0
 239 798 240 798 241 799 c 0
232 783 m 1
 234 783 236 783 237 781 c 0
 239 779 240 775 238 773 c 0
 236 771 233 772 230 774 c 0
 228 777 228 780 230 782 c 0
 230 783 231 783 232 783 c 1
292 701 m 0
 161 700 74.6611328125 194.1328125 32 85 c 0
 -11 -25 20 46 8 17 c 1
 33 39 60 80 90 151 c 0
 92 157 94 164 97 172 c 1
 91 189 94 206 112 221 c 1
 150 346 214 574 295 577 c 0
 376 580 450 338 483 220 c 1
 490 215 495 208 499 199 c 1
 511 191 l 1
 517 192 l 2
 518 192 518 191 518 191 c 1
 518 190 l 2
 518 189 518 189 518 189 c 1
 515 189 l 1
 516 188 l 2
 517 187 517 187 517 186 c 2
 516 185 l 1
 515 185 l 1
 498 196 l 2
 496 194 494 192 492 190 c 0
 495 178 498 168 500 162 c 0
 508 137 485 83 586 18 c 1
 587 16 l 1
 593 13 596 10 601 8 c 0
 604 7 608 7 612 8 c 2
 622 0 l 1
 623 1 l 1
 614 8 l 1
 617 8 621 9 626 11 c 1
 626 12 l 1
 613 8 607 8 602 9 c 0
 597 11 593 14 587 17 c 1
 608 125 562.408203125 144.672851562 551 166 c 0
 528 209 424 702 292 701 c 0
198 242 m 0
 194 242 190 242 187 242 c 0
 164 241 145 242 119 221 c 0
 66 179 142 121 192 85 c 1
 171 129 97 197 189 194 c 0
 315 191 311 216 376 212 c 0
 432 208 460 162 493 198 c 1
 476 241 440 231 326 237 c 0
 261 240 225 242 198 242 c 0
464 216 m 0
 468 216 470 214 470 211 c 0
 470 208 468 206 464 206 c 0
 461 206 458 208 458 211 c 0
 458 214 461 216 464 216 c 0
557 101 m 0
 562 101 566 97 566 92 c 0
 566 87 562 83 557 83 c 0
 552 83 548 87 548 92 c 0
 548 97 552 101 557 101 c 0
EndSplineSet
Validated: 41
EndChar

StartChar: Acircumflex
Encoding: 112 194 112
Width: 600
GlyphClass: 1
Flags: W
HStem: 188 1<78.9539 79> 195 47<195.337 451.17> 578 118<256.308 339.89> 666 1<144 150> 669 1<151.905 154.55> 672 13<179.861 189.858>
VStem: 149 1<661 664.303>
LayerCount: 2
Fore
SplineSet
327 831 m 1xde
 290 816 263 796 219 742 c 1
 183 735 168 703 163 673 c 0
 160 669 157 669 153 670 c 0
 151 670 150 667 150 666 c 1
 143 667 l 1
 144 666 l 1
 150 665 l 1
 149 664 149 663 149 661 c 2
 150 660 l 1
 150 665 151 669 153 669 c 0
 154 668 161 668 163 672 c 1
 198 672 228 683 239 725 c 1
 266 740 284 728 306 781 c 1
 299 751 439 678 449 679 c 0
 459 681 320 797 327 831 c 1xde
189 703 m 0
 190 703 191 703 191 702 c 0
 194 701 194 695 190 690 c 0
 187 686 182 683 179 685 c 0
 176 687 177 693 180 697 c 0
 183 701 186 703 189 703 c 0
304 696 m 0xe2
 173 697 66.9296875 209.038085938 44 167 c 0
 32 145 -13 125 8 17 c 1
 2 14 -2 11 -7 9 c 0
 -12 8 -18 8 -31 12 c 1
 -31 11 l 1
 -26 9 -22 8 -19 8 c 1
 -28 1 l 1
 -27 0 l 1
 -17 8 l 2
 -13 7 -9 7 -6 8 c 0
 -1 10 2 13 8 16 c 1
 9 18 l 1
 110 83 87 137 95 163 c 0
 97 168 100 178 103 191 c 0
 101 192 99 194 97 197 c 1
 81 186 l 2
 80 185 80 186 79 186 c 1
 79 187 l 1
 78 187 78 188 79 188 c 2
 80 189 l 1
 78 189 l 2
 77 189 77 190 77 190 c 1
 77 191 l 2
 77 192 77 192 78 192 c 2
 84 192 l 1
 96 200 l 2
 97 200 97 200 97 200 c 1
 101 209 105 216 112 221 c 1
 145 339 220 581 301 578 c 0
 382 576 446 347 484 221 c 1
 502 206 505 189 499 172 c 1
 502 164 504 157 506 152 c 0
 536 81 563 39 588 17 c 1
 577 46 607 -25 564 85 c 0
 521 195 436 695 304 696 c 0xe2
398 242 m 0
 371 242 335 240 270 237 c 0
 156 232 119 241 102 198 c 1
 136 162 163 208 220 212 c 0
 285 217 281 191 407 195 c 0
 499 197 425 130 404 85 c 1
 454 121 530 179 477 221 c 0
 451 242 432 242 409 242 c 0
 406 242 402 242 398 242 c 0
131 217 m 0
 135 217 137 214 137 211 c 0
 137 208 135 206 131 206 c 0
 128 206 125 208 125 211 c 0
 125 214 128 217 131 217 c 0
38 102 m 0
 43 102 48 98 48 93 c 0
 48 87 43 83 38 83 c 0
 33 83 29 87 29 93 c 0
 29 98 33 102 38 102 c 0
EndSplineSet
Validated: 41
EndChar

StartChar: AE
Encoding: 113 198 113
Width: 817
GlyphClass: 1
Flags: W
HStem: 166 49<214.703 428> 338 1<304 305> 351 23<330.375 358.995> 565 129<275.053 389.953> 610 3<785.094 796.365> 655 26<738.005 756.875>
VStem: 431 65<54.6047 146.01 312 312.268 504 528.842>
LayerCount: 2
Fore
SplineSet
697 676 m 1xe6
 686 676 660.974609375 698.1640625 653 698 c 2
 459 694 l 2
 428.217773438 690.905273438 391.05859375 693.458984375 317 694 c 0
 180 695 74 181 50 137 c 0
 38 115 -9 94 12 -19 c 1
 6 -22 3 -26 -3 -27 c 0
 -8 -29 -15 -29 -28 -24 c 1
 -28 -25 l 1
 -23 -27 -19 -28 -15 -29 c 1
 -25 -36 l 1
 -24 -37 l 1
 -14 -29 l 2
 -9 -30 -5 -29 -2 -28 c 0
 3 -27 7 -23 12 -20 c 2
 14 -19 l 1
 119 50 95 106 104 133 c 0
 105 138 108 149 112 162 c 0
 110 163 108 165 105 168 c 1
 88 156 l 1
 88 156 87 156 87 157 c 2
 86 158 l 1
 86 159 l 1
 88 160 l 1
 85 160 l 1
 84 161 l 1
 84 162 l 2
 84 163 85 163 85 163 c 1
 92 163 l 1
 105 171 l 1
 109 181 114 188 121 193 c 1
 156 316 233 568 318 565 c 0xf2
 364 564 402 544 433 504 c 1
 432 457 432 411 431 365 c 1
 496 368 l 1
 497 622 l 1
 647 640 l 1
 700 607 780 574 789 622 c 0
 796 667 732 682 682 681 c 1
 697 676 l 1xe6
753 655 m 0xe6
 761 655 767 651 767 645 c 0
 767 640 761 635 753 635 c 0
 745 635 738 640 738 645 c 0
 738 651 745 655 753 655 c 0xe6
791 613 m 1xea
 789 613 787 612 785 610 c 1
 795 613 799 609 803 602 c 0
 803 601 807 602 809 602 c 2
 814 594 l 1
 814 595 l 1
 810 602 l 2
 811 603 813 604 815 606 c 2
 815 607 l 1
 810 603 804 601 803 604 c 0
 803 606 798 613 791 613 c 1xea
367 374 m 1
 338 375 319 358 305 339 c 1
 295 344 285 334 285 331 c 0
 283 329 277 330 270 335 c 1
 270 334 l 2
 273 332 275 331 277 330 c 1
 272 322 l 1
 272 321 l 1
 278 330 l 2
 280 329 284 328 285 330 c 0
 289 336 294 341 304 338 c 1
 326 313 336 268 422 321 c 1
 514 306 760 381 705 288 c 1
 810 370 774 379 705 368 c 1
 421 357 l 1
 400 369 382 374 367 374 c 1
344 351 m 0
 352 351 359 348 359 344 c 0
 359 340 352 337 344 337 c 0
 336 337 330 340 330 344 c 0
 330 348 336 351 344 351 c 0
497 315 m 1
 469 314 462 314 431 312 c 1
 431 279 430 247 430 215 c 1
 426 215 423 215 419 215 c 0
 391 215 353 213 286 210 c 0
 166 205 128 214 111 169 c 1
 146 132 174 180 233 184 c 0
 301 189 297 162 428 166 c 1
 428 166 428 166 429 166 c 1
 428 130 427 93 426 52 c 1
 460 -66 820 62 809 123 c 1
 758 78 550 12 496 67 c 1
 496 114 l 1
 524 146 538 181 506 206 c 0
 503 209 500 211 496 212 c 1
 497 315 l 1
141 189 m 0
 144 189 147 186 147 183 c 0
 147 180 144 178 141 178 c 0
 137 178 135 180 135 183 c 0
 135 186 137 189 141 189 c 0
44 69 m 0
 49 69 54 65 54 59 c 0
 54 54 49 50 44 50 c 0
 39 50 34 54 34 59 c 0
 34 65 39 69 44 69 c 0
EndSplineSet
Validated: 37
EndChar

StartChar: Ccedilla
Encoding: 114 199 115
Width: 610
GlyphClass: 1
Flags: W
HStem: -103 1<225 228> -98 11<237.213 246.473>
VStem: 247 13<-86.8557 -70.0029> 613 1<138.669 140.927> 620 1<143 152>
LayerCount: 2
Fore
SplineSet
520 43 m 1
 520 43 521 44 522 44 c 0
 556 56 591 90 606 128 c 1
 612 130 614 138 614 140 c 0
 614 142 619 143 626 140 c 1
 626 141 l 2
 623 142 621 143 619 143 c 1
 621 152 l 1
 620 152 l 1
 619 143 l 2
 617 143 613 143 613 141 c 0
 612 135 610 131 605 129 c 1
 561 170 502 147 467 89 c 1
 79 -44 -189 695 534 684 c 1
 -241 850 -162 -234 479 43 c 1
 491 38 506 38 520 43 c 1
550 104 m 0
 540 101 530 104 528 110 c 0
 526 117 533 124 543 128 c 0
 552 131 562 128 564 122 c 0
 566 115 560 107 550 104 c 0
228 -106 m 1
 228 -103 l 2
 229 -102 230 -102 230 -101 c 0
 229 -99 230 -97 233 -95 c 1
 233 -96 234 -96 235 -97 c 0
 237 -98 240 -98 242 -98 c 0
 258 -98 264 -75 260 -68 c 1
 326 -44 286 -14 226 -14 c 1
 246 -36 285 -14 252 -52 c 1
 231 -55 225 -87 232 -95 c 1
 229 -96 229 -100 229 -101 c 0
 230 -102 228 -103 225 -102 c 1
 225 -103 l 1
 226 -103 227 -103 228 -103 c 1
 228 -106 l 1
242 -87 m 0
 239 -87 237 -84 237 -79 c 0
 237 -74 239 -70 242 -70 c 0
 244 -70 247 -74 247 -79 c 0
 247 -84 244 -87 242 -87 c 0
EndSplineSet
Validated: 37
EndChar

StartChar: Egrave
Encoding: 115 200 116
Width: 491
GlyphClass: 1
Flags: W
HStem: 4 50<421.098 447.495> 74 3<474.031 484.365> 798 10<184.047 189.773>
VStem: 122 62<63 308 366 590.268>
LayerCount: 2
Fore
SplineSet
371 4 m 0
 420 4 485 18 478 63 c 0
 477 68 475 72 473 75 c 1
 473 74 l 1
 483 77 487 73 491 66 c 0
 492 64 495 66 497 66 c 2
 502 58 l 1
 502 59 l 1
 498 66 l 1
 500 67 501 68 504 70 c 2
 504 71 l 1
 498 66 492 65 491 67 c 0
 491 70 486 77 479 77 c 1
 477 77 475 76 473 75 c 0
 454 104 383 75 335 45 c 1
 285.997070312 58.1103515625 240.375 89.2841796875 184 63 c 1
 187.736328125 144.49609375 200.515625 219.6875 183 316 c 1
 121 308 l 1
 121 208 119 118 122 7 c 1
 340 7 l 2
 348 5 359 4 371 4 c 0
188 823 m 0
 189 823 190 823 191 822 c 0
 195 821 196 816 193 812 c 0
 191 808 187 807 184 808 c 0
 181 810 180 815 182 819 c 0
 183 821 186 823 188 823 c 0
184 798 m 0
 185 799 186 798 187 798 c 0
 190 796 191 791 189 787 c 0
 187 783 183 782 180 783 c 0
 176 785 176 790 178 794 c 0
 179 796 182 798 184 798 c 0
432 73 m 0
 439 76 447 74 449 69 c 0
 451 63 446 57 438 54 c 0
 431 52 423 54 421 59 c 0
 419 64 424 70 432 73 c 0
41 351 m 0
 49 354 56 354 58 350 c 0
 59 346 54 341 47 338 c 0
 39 335 32 335 31 339 c 0
 29 343 34 348 41 351 c 0
186 366 m 1
 197.245117188 437.670898438 192.795898438 514.345703125 179 594 c 1
 238.465820312 633.84375 441 681 492 582 c 1
 469 688 309 750 114 651 c 1
 117 552 118 452 119 363 c 1
 150 362 157 367 186 366 c 1
194 832 m 0
 184 831 175 823 166 807 c 0
 163 805 162 808 161 812 c 0
 161 814 159 812 158 812 c 2
 157 818 l 1
 157 817 l 1
 158 811 l 1
 157 811 156 810 155 808 c 2
 154 807 l 1
 158 811 161 813 161 811 c 0
 160 809 162 804 166 805 c 1
 163 779 177 746 213 777 c 1
 315 759 361 736 414 711 c 1
 367 778 299 805 222 809 c 1
 219 823 207 834 194 832 c 0
62 371 m 0
 35 372 17 355 4 335 c 1
 -5 341 -15 330 -15 328 c 0
 -16 325 -22 327 -28 331 c 1
 -28 330 l 2
 -26 328 -24 327 -22 327 c 1
 -27 319 l 1
 -26 318 l 1
 -21 326 l 2
 -19 326 -15 325 -14 326 c 0
 -11 333 -6 337 4 335 c 1
 4 335 3 335 3 334 c 0
 24 309 33 263 112 317 c 1
 197 302 424 396 352 267 c 1
 400 327 373 296 422 362 c 0
 434 378 111 354 111 354 c 1
 92 366 76 371 62 371 c 0
EndSplineSet
Validated: 37
EndChar

StartChar: Eacute
Encoding: 116 201 117
Width: 476
GlyphClass: 1
Flags: W
HStem: 1 57<171 320 408.097 437.042> 64 1<461 463> 338 1<-11.9372 -11> 353 22<19.877 47.9949>
VStem: 105 65<87.8564 315> 109 68<363 427.862> 148 1<748.094 753>
LayerCount: 2
Fore
SplineSet
358 -1 m 0xf4
 407 -2 472 13 465 58 c 0
 464 60 464 62 463 63 c 2
 463 65 l 1
 461 65 460 65 458 66 c 1
 460 65 461 64 463 64 c 2
 465 63 l 2
 471 64 477 71 477 73 c 0
 478 75 483 74 489 69 c 1
 489 70 l 2
 487 72 485 73 483 74 c 0
 481 75 477 76 476 74 c 0
 473 68 470 64 463 65 c 1
 447 102 373 71 322 40 c 1
 279.20703125 48.2060546875 244.163085938 58.677734375 171 58 c 1
 189.90625 150.153320312 173.865234375 231.129882812 170 316 c 1
 105 315 l 1xf8
 99.7880859375 206.12109375 101.051757812 105.926757812 109 1 c 1
 327 1 l 2
 335 0 346 -1 358 -1 c 0xf4
171 788 m 0
 173 788 176 786 177 784 c 0xf4
 179 780 178 775 175 774 c 0
 171 772 167 774 165 778 c 0
 163 782 164 786 167 788 c 0
 168 788 169 789 171 788 c 0
186 766 m 0
 188 765 191 763 192 761 c 0
 194 757 193 752 190 751 c 0
 187 749 182 751 180 755 c 0
 178 759 179 764 182 765 c 0
 183 766 185 766 186 766 c 0
420 70 m 0
 428 72 435 69 437 65 c 0
 438 61 433 56 425 54 c 0
 417 52 410 55 408 59 c 0
 407 63 412 68 420 70 c 0
33 353 m 0
 41 354 48 352 48 348 c 0
 49 344 43 340 35 339 c 0
 27 338 20 340 19 344 c 0
 19 348 25 352 33 353 c 0
177 363 m 1
 191.870117188 432.66015625 187.5625 507.353515625 172 585 c 1
 227 641 401 643 475 629 c 1
 421 688 167 744 102 648 c 1
 95.3125 536.274414062 98.5478515625 439.745117188 109 362 c 1
 141 361 148 364 177 363 c 1
52 375 m 1
 23 375 3 358 -11 339 c 1
 -21 344 -31 334 -31 331 c 0
 -33 329 -39 330 -46 335 c 1
 -46 334 l 2
 -43 332 -41 331 -39 330 c 1
 -44 322 l 1
 -44 321 l 1
 -38 330 l 2
 -36 329 -32 328 -31 330 c 0
 -27 336 -22 341 -11 338 c 1
 11 313 21 267 108 321 c 1
 202 306 446 391 430 286 c 1
 449 347 434 321 445 370 c 1
 107 357 l 1
 86 369 68 375 52 375 c 1
366 875 m 1
 298 875 242 845 193 798 c 1
 173 811 140 799 158 756 c 0
 156 753 154 754 150 756 c 0
 149 757 148 755 148 753 c 1
 143 757 l 1
 143 756 l 1
 148 753 l 2
 148 752 148 750 149 748 c 1xf2
 148 753 149 756 150 755 c 0
 152 754 157 751 158 755 c 1
 175 735 210 723 211 770 c 1
 294 832 342 851 396 873 c 1
 386 874 376 875 366 875 c 1
EndSplineSet
Validated: 37
EndChar

StartChar: Ecircumflex
Encoding: 117 202 118
Width: 492
GlyphClass: 1
Flags: W
HStem: 61 3<468.094 473> 320 37<78.5573 310.988> 338 1<-5.93719 -5> 351 24<21.4288 66> 727 1<152 158> 729 1<160.178 166.75>
VStem: 124 68<79.7294 312> 158 1<723 726.969> 455 27<48.8687 60.8601>
LayerCount: 2
Fore
SplineSet
127 -4 m 1x8e80
 344 -4 l 2
 353 -5 364 -6 375 -6 c 0
 425 -7 490 8 482 53 c 0
 482 56 481 58 480 61 c 1
 482 59 484 57 486 53 c 0
 487 52 490 53 493 54 c 0
 495 54 496 55 499 57 c 2
 499 58 l 1
 493 54 487 52 486 55 c 0
 486 56 483 61 479 63 c 0
 478 63 476 64 474 64 c 0
 472 64 470 63 468 61 c 1
 473 63 477 63 480 61 c 1
 479 63 l 2
 461 95 389 65 340 35 c 1
 297.223632812 50.5859375 261.268554688 74.4599609375 188 53 c 1
 235.857421875 133.37109375 202.115234375 224.19921875 192 312 c 1
 124 316 l 1
 121.79296875 179.73046875 122.874023438 89.4951171875 127 -4 c 1x8e80
203 768 m 0
 204 768 205 768 206 767 c 0
 209 765 208 759 204 754 c 0
 201 748 195 746 192 748 c 0
 189 750 190 756 194 762 c 0
 196 766 200 768 203 768 c 0
439 67 m 0
 447 68 454 64 455 59 c 0
 455 54 450 48 442 47 c 0
 434 46 426 49 426 55 c 0
 425 60 431 66 439 67 c 0
35 351 m 0x9c80
 43 351 50 348 50 344 c 0
 50 340 43 337 35 337 c 0
 27 337 21 340 21 344 c 0
 21 348 27 351 35 351 c 0x9c80
58 375 m 1
 29 375 9 358 -5 339 c 1
 -15 344 -25 334 -25 331 c 0
 -27 329 -33 330 -40 335 c 1
 -40 334 l 2
 -37 332 -35 331 -33 330 c 1
 -38 322 l 1
 -38 321 l 1
 -32 330 l 2
 -30 329 -26 328 -25 330 c 0
 -21 337 -16 341 -5 338 c 1xbc80
 17 313 27 266 114 320 c 1xcc80
 408 304 429 355 457 240 c 1
 459 319 458 292 454 351 c 1x9c80
 113 357 l 1xcc80
 92 370 74 375 58 375 c 1
193 360 m 1
 238.1328125 427.038085938 206.606445312 512.7109375 189 595 c 1
 244 651 438 625 490 580 c 1
 478.348632812 722.77734375 154.608398438 752.971679688 115 603 c 1
 108.684570312 484.659179688 117.065429688 437.677734375 123 361 c 1
 155 359 164 361 193 360 c 1
329 869 m 1
 323 868 l 1
 291 855 266 837 226 793 c 1
 191 787 176 759 171 733 c 0
 169 730 165 730 161 730 c 0
 160 730 159 728 159 727 c 1
 152 728 l 1
 152 727 l 1
 158 727 l 1
 158 726 158 724 158 723 c 2
 159 722 l 1x8d80
 159 727 160 730 162 729 c 0
 163 729 169 729 172 732 c 0
 205 732 234 742 245 779 c 1
 271 791 289 781 310 827 c 1
 302 801 439 738 448 739 c 0
 458 740 328 838 329 869 c 1
EndSplineSet
Validated: 37
EndChar

